/* XPM */
static char *result[] = {
/* columns rows colors chars-per-pixel */
"64 64 222 2 ",
"   c #253E0C",
".  c #263D11",
"X  c #323F22",
"o  c #2D4506",
"O  c #2C4A05",
"+  c #2D4C0C",
"@  c #314B06",
"#  c #324C0D",
"$  c #304704",
"%  c #2D550D",
"&  c #35530D",
"*  c #39540D",
"=  c #355B0E",
"-  c #3A5C0E",
";  c #345107",
":  c #2B4413",
">  c #2E4B13",
",  c #2E4F1B",
"<  c #324E12",
"1  c #334C1B",
"2  c #384C1A",
"3  c #2E5213",
"4  c #355413",
"5  c #385614",
"6  c #365A14",
"7  c #3A5C14",
"8  c #355519",
"9  c #3C561E",
"0  c #365B1A",
"q  c #3A5D1A",
"w  c #39640F",
"e  c #356114",
"r  c #3C6315",
"t  c #3E6A15",
"y  c #376319",
"u  c #3C641B",
"i  c #3E6A1B",
"p  c #3F701C",
"a  c #3A4828",
"s  c #3A5423",
"d  c #3C5A22",
"f  c #3B5729",
"g  c #3C6421",
"h  c #3E6A21",
"j  c #415D1B",
"k  c #406516",
"l  c #416B16",
"z  c #41661C",
"x  c #416C1C",
"c  c #44731D",
"v  c #46791D",
"b  c #497B1F",
"n  c #46731B",
"m  c #425C24",
"M  c #41532E",
"N  c #435C2B",
"B  c #465C29",
"V  c #44483D",
"C  c #475937",
"Z  c #436424",
"A  c #426D22",
"S  c #46632C",
"D  c #49662A",
"F  c #456B29",
"G  c #4A6C29",
"H  c #457422",
"J  c #497622",
"K  c #467923",
"L  c #4A7C23",
"P  c #477928",
"I  c #48772A",
"U  c #50792D",
"Y  c #4C6534",
"T  c #4D6C34",
"R  c #4D643C",
"E  c #4A6535",
"W  c #52643B",
"Q  c #526B3B",
"!  c #57683B",
"~  c #4E7433",
"^  c #537435",
"/  c #527834",
"(  c #57763B",
")  c #516B28",
"_  c #63703E",
"`  c #4C4D49",
"'  c #4A5243",
"]  c #4E5C42",
"[  c #4D504B",
"{  c #51554C",
"}  c #525C49",
"|  c #535253",
" . c #595C55",
".. c #5B5C5C",
"X. c #565D51",
"o. c #536444",
"O. c #556D43",
"+. c #59674A",
"@. c #5A7445",
"#. c #5C7B43",
"$. c #5B7348",
"%. c #567140",
"&. c #5C6554",
"*. c #5E625C",
"=. c #5D6955",
"-. c #5F7053",
";. c #4E6047",
":. c #636E49",
">. c #607442",
",. c #657649",
"<. c #60645D",
"1. c #626B5B",
"2. c #6A7A5E",
"3. c #677657",
"4. c #767D57",
"5. c #70754D",
"6. c #5E5D61",
"7. c #626462",
"8. c #666A64",
"9. c #696D66",
"0. c #6B6C6A",
"q. c #676868",
"w. c #6C7664",
"e. c #6D7B62",
"r. c #6E726B",
"t. c #70746D",
"y. c #717968",
"u. c #737372",
"i. c #757974",
"p. c #797C75",
"a. c #797A79",
"s. c #807E7F",
"d. c #4D8224",
"f. c #4D8628",
"g. c #518927",
"h. c #63843C",
"j. c #5F8A42",
"k. c #6D8D4B",
"l. c #668946",
"z. c #6A8256",
"x. c #768657",
"c. c #769156",
"v. c #76836C",
"b. c #7C8768",
"n. c #7D9665",
"m. c #7E827A",
"M. c #7C8674",
"N. c #858A59",
"B. c #84905C",
"V. c #B88748",
"C. c #878969",
"Z. c #8B9668",
"A. c #95996B",
"S. c #81847D",
"D. c #878F71",
"F. c #8B9776",
"G. c #989877",
"H. c #998A74",
"J. c #AC8060",
"K. c #B78E6A",
"L. c #8BA071",
"P. c #A6A47D",
"I. c #C19350",
"U. c #C9A872",
"Y. c #807F80",
"T. c #848483",
"R. c #8C8C8B",
"E. c #878886",
"W. c #8C9287",
"Q. c #989986",
"!. c #949394",
"~. c #9D9C9C",
"^. c #9F9A90",
"/. c #A59C87",
"(. c #B29D8F",
"). c #9AA184",
"_. c #A8AA8A",
"`. c #B7A987",
"'. c #ACA591",
"]. c #B7AA95",
"[. c #B5B49C",
"{. c #BAB494",
"}. c #A4A3A4",
"|. c #ACABAC",
" X c #AAA7A8",
".X c #B0AFAF",
"XX c #AEB1AC",
"oX c #B1B1AE",
"OX c #B1AFB0",
"+X c #B5B3B4",
"@X c #B7B8B7",
"#X c #BAB7B8",
"$X c #BCBBBB",
"%X c #B8B7B7",
"&X c #C4A792",
"*X c #CBB698",
"=X c #D3B397",
"-X c #CAAA8A",
";X c #C1AFA2",
":X c #DABCA8",
">X c #C0BEBF",
",X c #C7B6A5",
"<X c #BEC0BB",
"1X c #CDC6B6",
"2X c #DFC4B2",
"3X c #C2BFC0",
"4X c #C4C3C4",
"5X c #CCCBCC",
"6X c #C8C5C6",
"7X c #D3D3D3",
"8X c #D8D6D7",
"9X c #DBDADB",
"0X c #D0D3CE",
"qX c #E0DFE0",
"wX c #E4E3E4",
"eX c #ECECEC",
"rX c #E8E6E7",
"tX c #F0EFF0",
"yX c #F5F4F4",
"uX c #FFFFFF",
"iX c #F8F7F8",
"pX c #F2F4EF",
/* pixels */
"A 6 i i A A q i 7 4 x q # 5 x v f.H 7 q x y e v J q H A n x 4 c l 7 u b c g h u 4 g H k r 4 t q P H q u t 7 4 e 7 5 H H h c r 6 ",
"q & A A H u y r c 5 # 5 r u p c z r t 5 q z i 6 H u u g H k # 5 # 5 7 q l z P P z 7 & # 6 q k g u L x y i r # 4 4 8 H L h 6 & r ",
"u 6 q r u q r 4 J l k 6 4 A L u 4 < 4 6 # 7 u 0 l H J H y k q 7 q 0 5 < r q q x x k 5 7 6 8 i u A k u y 4 x n k 7 & 6 t i t r 0 ",
"4 0 u c q y i c f.c w r q H L i u r q 7 u q 4 4 u H H H r r k y i h 5 4 l n u r 5 < 4 g I Q ] &.&.W C q q H u y 6 m x.k.Z = q q ",
"u z u c n c c n p O.-.w.w.k.j.~ t < 7 i q t x y y l t x v z u i g.L A q e w ; * t 6 8 Q *.!.|.%X+X|.!. .#.k u L h._.1X1Xx.+ 0 u ",
"z A u r v c c i O.a.E.E.T.b.v.e./ 9 u c i i J & w r - * 7 A u K x q z l - @ $ j c c Q 7.%X3X#X#X#X$X3X+X7.#.l r L.`.U.=XQ.S w x ",
"x u u u = t v v -.i.i.i.i.r.0.9.1.m e u u b.XX_.( - & t J x i i u u l u # @ $ 7 H ^ i.#X#X+X$X$XOX+X#X>X+X..( + ( _.&XoXD.q p d.",
"i q l A u b d.~ -.q.q.q.q.q.7.7...B w & Y [.U.*XF.& - c L 6 z q 0 4 & 7 - & 4 5 4 1.@X%X6XrXiXiXwX>XOX#X3X~.+.# o ,.Q.D.E y H t ",
"# 5 l L H L i R 7.7.7.7.*.7.*.6.{ s e + S [.&X,XF.3 u H H u 5 < q 6 5 x v w ; w Y |.+X5XiXuXuXuXuXiX7XOX#X>X9.9 : g I d 0 A y 8 ",
"# l K A g u y M | 6.*.*.6.*.6.| C u 4 # 5 :./.Q.Y 4 0 y u c y q 5 5 t d.d.U j o y.>X>XuXuXuXuXuXuXuXuX5X+X>XT.j 6 0 u y g k 7 5 ",
"7 x H h u p q 0 f ` O.X.| ` ' f A A 7 5 4 : E d 0 u 8 h c c u l u q z t _ A.N._ S.#XqXuXuXuXuXuXuXuXuXiX>X>XR.d 6 0 q q z l 7 7 ",
"t y y H A c r @ , f f a X 1 , d i z z i 4 4 t o 7 q h H H c t & y y i % 5.P.-XC.m.6XuXuXuXuXuXuXuXuXuXuX7X$Xu.j 3 6 y u u y & 7 ",
"r i y L P i u 7 > >   . : : , 8 u n y u 4 q L u q g P L r 7 i 6 4 7 u 6 Z C.H.o.y.5XuXuXuXuXuXuXuXuXuXuX8X!.` M f B u i e e r r ",
"r c z H H u H c u 6 4 4 s y u y i u u z 4 6 6 r q u A g.6 q i H u 5 r u 6 m N 3 $.6XuXuXuXuXuXuXuXuXuXiXOXu.E.!.!.a.&.$.n.k.L p ",
"H c v i 6 e t 7 i t q 0 z u u h u 5 7 u r q 4 * i g g A x u * x z 4 q r y y 6 = W }.uXuXuXuXuXuXuXuXuXtXOX$X3X#X#X>X@XR./._.U t ",
"H u L c l.l.z 3 i y 4 4 q 4 y h z 7 5 e i t c 6 c i u u H q 5 e 7 A H h h z r q [ q.eXuXuXuXuXuXuXuXuXuX$XOX$X7X9X0X@X3X~.v.h e ",
"u q i k.{.{.Z.6 5 q 7 5 4 u i u u r q r 7 r L u u z u h K u 5 5 z H J g u 7 5 Y R.~.6XuXuXuXuXuXuXuXuXuX7X7XiXuXuXuXeX3X#Xw.A u ",
"A i y x.`.=X'.8 6 q q y y x x u r q 0 4 4 q A 8 u A z i c g 5 5 u k q t k 4 q &.oX7XrXiXuXuXuXuXuXuXuXuXuXuXuXuXuXuXuXiX4X~.H u ",
"c y q 1 5.G.:.> x l 6 n x 7 l t e n u 0 x c u 5 A t w r u r i x n c i n r 5 Q R.rXuXuXuXuXuXuXuXuXuXuXuXuXuXuXuXuXuXuXuXrXoXq y ",
"r 0 4 + 1 d + ; l l l x c 5 5 l 7 r k l H A z u r @ w t l i c L c x x l * k t.9XuXuXuXuXuXuXuXuXuXuXuXuXuXuXuXuXuXuXuXuXuX$X4 4 ",
"x u r u i O 6 * l v n u q 7 6 i k r n l u u u u u * * - l H q J c u q 5 u $.>XuXuXuXuXuXuXuXuXuXuXuXiXuXuXuXuXuXuXuXuXuXuX0X- l ",
"i < q 5 A q 5 4 z L v y 4 i l u u r d.b q q r 7 u i - 6 Z A q u i r 5 q %.R.uXuXuXuXuXuXuXuXuXuXuXyX7XuXuXuXuXuXuXuXuXuXuXXXq x ",
"q 4 7 7 6 i 5 # # l H 7 8 q u z q q x c q 5 # # q A u k u q u L 7 4 q g i.9XuXuXuXuXuXuXuXuXuXuXiX4X#XuXuXuXuXuXuXuXuXuXiX2.4 4 ",
"5 y y i u i q 4 r q u & 6 5 4 u u u l q 5 # u t A H 5 t t t k c x u u 8.4XuXuXuXuXuXuXuXuXuXuXiX6X+XT.9XuXuXuXuXuXuXuXuXXXI t q ",
"q q x p l u 4 q 7 q h u k n c u h u q h x r 4 4 h H g i y u o 5 7 t =.|.eXuXuXuXuXuXuXuXuXuXeX4X|.T.` Y.qXuXuXuXuXuXuX@X$.y # & ",
"7 7 c A 5 u * 4 5 u u r u u y h g q h H 6 # r 6 H L l u u 7 t 6 7 o.|.9XuXuXuXuXuXuXuXuXeX4X~.i.o.F g @.7.|.eXiXyX6XE.r.%.A t r ",
"c 7 c L r q q @ h u 4 # l A q u g u H i * u h.l x i x u v 5 i H R ~.8XuXuXuXuXuXuXuXyX$XT.1.E A g u 6 '  ...0.i.0.i.R.E.<.d 6 i ",
"i l c H K 7 u q i - 5 u L c x H i c i q _ P.-XA.y 4 q A f.5 k $. X6XuXuXuXuXuXuXuX7Xa.[ D A 7 q g u i ' ..<.r.i.m.E.R.T.&.d y A ",
"z 4 0 z H q y i l q 4 x x 7 u z d y 6 z A.-Xs.K.,.4 q u 7 r $.~.5XiXuXuXuXuXuXiX X .C 5 r i 6 Z u u i A +.O.3.u.m.T.S.i.+.A = # ",
"t & 4 A A A u 3 7 L # * 6 5 y q u h i H x.`.K./.^ y A u n @.|.5XuXuXuXuXuXuX9Xa.C 0 r n t r q q i u u H S A E } 1.2.z.$.S i - 5 ",
"5 4 A L g q x r L v k 5 5 y h h h z A , m C.C.! A H i x :.}.0XiXuXuXuXuXuX5X1.R q * r H l < 0 q A z y q c H : . 1 9 H i q 7 < 5 ",
"# 7 u H L i u x h u 7 7 6 8 H d.K l u g 8 9 2 # u u z 2.OX9XuXuXuXuXuXuX}.&.A 4 7 u u h i u 5 q ; 7 t 7 l i 4 + + > r t n c q 5 ",
"r 4 8 q x c c r A A u A u u J c l n i H H y 6 6 l q w.+X9XuXuXuXuXuXuX Xo.k 7 i i H H g A H c q * $ k w t r 7 7 q r 6 l d.l y u ",
"@ 6 q 5 5 n L k H L P A u k i - & t c v c x n d.( S.$XrXuXuXuXuXuXiXT.C - - * r n i i H L H c k t w * 7 k K k e c = O r t 7 7 q ",
"t 7 7 u u t c x u H A u u H n - @ * u i x t q $.!.3XyXuXuXuXuXuXiXR.R u 7 q - t z u t u x g l x n n r 7 0 u 6 6 = ( n.^ + 4 7 q ",
"c u u x u r u r l u y u i L d.k - 7 5 6 r T 1.}.8XiXuXuXuXuXuXyXr.W H H l k l v A 4 t r u h l b J c x u 0 r y & d A.*XA.A = u z ",
"A z H L x q 4 u q 4 4 7 k J b t l l 7 0 C t.@X9XuXuXuXuXuXuXiXS.C 6 q K H x c d.L 4 5 & x K y i u z c 5 q y 4 + N P.:XG.F e x z ",
"z H H L H k 4 y r q q q u x i q r u Z +.!.6XeXuXuXuXuXuXuXyXu.C 7 0 < t t 6 y K c q 4 & l c u H Z 0 A k i y r 4 < :.S.O.7 x H u ",
"u c c L x c q k i u 7 i z 5 q u u E 7.}.0XiXuXuXuXuXuXuXuX!.;.z & q i x / T 4 u t r i 6 7 r c K H g x J t 7 x u 4 + 0 e x f.A q ",
"A i n v z A x A m M M S 7 # 5 Q *.!.$XrXuXuXuXuXuXuXuXuXR.} u u # r p k.`.G.Y 6 x n c 5 4 i x h u z l u q 4 5 u u y p d.L L h y ",
"z q t u H Z o.9.Y.T.u.| ' B C Y.+X6XyXuXuXuXuXuXuXuXuX#Xa S u q 4 q 6 Z.:X*Xz.% p K u # q H i 0 A i i r H u # y 5 l H i H h u y ",
"e y u x ^ m.}.#X$X$X>X|.T...~.$X5XiXuXuXuXuXuXuXuXuX6X .Q g q l y 4 + Q C.C.~ e y y 4 y u k H u u u u u t J 7 6 7 u i d u l 7 7 ",
"x q i T R.$X%X6XwXeXyXrX7X|.+X6XuXuXuXuXuXuXuXuXuXrX6.o.q z 7 i t k & O , , u K i & 7 r u 0 c z H h u 0 # x g 5 u k u i A k 5 k ",
"i < u W.$X3XrXuXuXuXuXuXuXeX3XwXuXuXuXuXuXuXuXuXeXR.} z q u y 4 u H l 6 6 4 i K r * & < u l q 6 J f.g 4 r k 4 q r * u u H x 7 c ",
"0 5 W  X#XyXuXuXuXuXuXuXuXuXuXiXuXuXuXuXuXuXuXiXOX| Y r c u 4 q c g g z z u x c 7 # r 5 A L n u u x A 5 & c H H u A A y J A 8 5 ",
"7 u w.+XrXuXuXuXuXuXuXuXuXuXuXuXuXuXuXuXuXuXuX0X0.o.- k 7 r c x L l H J q 6 r k u k u 8 r n n - n u q < 7 x x J g u k l H H q & ",
"k 5 p.0XuXuXuXuXuXuXuXuXuXuXuXuXuXuXuXuXuXuXqX}.{ * o - ; r H L c i h l t * * 7 u q 8 u u l r - @ t r r n t z l r r - - y q & = ",
"A 5 M.eXuXuXuXuXuXuXuXuXuXuXuXuXuXuXuXuXuXrX3XT.S @ * & k H 7 x H H u q c k w l l u 7 i u 5 k * & t c r x L H x x t & 5 l u q 7 ",
"L u e.tXuXuXuXuXuXuXuXuXuXuXuXuXuXuXuXuXiX}.T.&.6 q y t u A q A u r 5 y n 7 0 A g # & i 5 r k l n t & i z H u k l i & * 7 z u u ",
"l L #.8XuXuXuXuXuXuXuXuXuXuXuXuXuXuXuXuXuXwXt.=.z.M.M.3.H 7 q L q 8 q u u r A P H - & 5 7 d.d.x 5 i ) q 5 u u A l 0 7 & - r q A ",
"u K d.W.uXuXuXuXuXuXuXeXyXuXuXuXuXuXuXuXuXuXiXu.W.!.!.M.( ! k c l x i k x k H H 3 6 r # q c i y ) A.[.P.j 7 L 7 6 0 7 z i i H P ",
"q g z D W.iXuXuXuXuXuX5X%XeXuXuXuXuXuXuXuXuXuX5Xr.T.T.v.3.7.M 5 5 t L x u c L x 0 q 5 h i 6 i 0 B.`.I.].5.# l t u 0 q H H u r 0 ",
"r i p K F w.7XuXuXuX6X!.7XuXuXuXuXuXuXuXuXuXuXuXr.i.t.0.8.6.D y 6 5 b L g 9 u i x H 4 4 u q i 8 >.(.s.-X_ # & i q q g u q t t 5 ",
"& 6 H H i x S o.v.1.` |.uXuXuXuXuXuXuXuXuXuXuXuXY.r.q.7.7.;.g c 6 6 c i q 0 q 6 u J q 5 u u u 0 < 4.G.4.j j 4 A 6 & q u i i t 5 ",
"6 k z I K c i 6 r H { wXuXuXuXuXuXuXuXuXuXuXuXuXa.8.*.6.6.( q K 5 0 h H i g u q t i 4 6 t H A h 4 8 d z q # 4 l 7 4 q g A l 6 q ",
"t v H u u q u q < t X.eXuXuXuXuXuXuXuXuXuXuXuXeX7...;.C f E 6 z 4 t x p H P h q 7 # # u i z u u y u y y 5 5 z u 7 u h g q k u u ",
"r 6 H x z H A 0 5 q o.8XuXuXuXuXuXuXuXuXuXuXuX$X' a a 3 8 L q < 4 i r 7 H d.H y r 7 k x 5 q q i H H L 6 r 7 q y e 5 & = c d.i 6 ",
"p 6 i v A L H g 4 & Q  XuXuXuXuXuXuXuXuXuXuX8X&.. : , i c x I g 7 @ 7 t r p h u t u H H 6 r u z u x K 5 & & 5 Z J r 7 A L v l 6 ",
"h y t v n q x q 7 r r 1.wXuXuXuXuXuXuXuXuXwXo.H 3 8 5 n J x L L k # 7 e i p 6 i A x A z v i i t r r g 0 # r q l n t c.`.c.H r r ",
"A H n r = r l l c H 7 Y ..9XuXuXuXuXuXuX5X2.f.K i u t x c z z x H n e ,.).L./ e z J H u K p y 7 k 7 l A 7 0 h i t r G.2XG.g e L ",
"u x A q w l x n c A t q A ] T.7XyXeX<Xv.S i h q h H t r x r q v d.w ^ Q.*X*XF.r e z y g z i 5 u - ; l x u 0 h g u 4 >.x.W 8 u P ",
"r q u k c u v b x q i 7 7 q 7 l i u H L H z 4 0 H L i r u 4 7 L v = E _.U.=X).H r 7 7 u q t 7 x - k l 0 i 5 7 u i 7 5 6 4 4 5 u ",
"z A z x H z z v z 5 5 & 5 g i u u 0 i A z x 5 6 H L H i y 7 5 l c 4 3 e.'.'.3.i c r 5 5 < u q u z v n q 7 & & q P A u t l q 7 0 ",
"x v u A c u 5 7 u 6 5 5 y H A y 7 & 7 4 5 t 4 0 g A u H u q 6 i 6 4 + 2 :.O.> 4 u r u q q 5 g u q L L A < 7 r 4 A L c x n H i 7 "
};
