/* XPM */
static char *result[] = {
/* columns rows colors chars-per-pixel */
"64 64 223 2 ",
"   c #253D0A",
".  c #263D11",
"X  c #323F22",
"o  c #2C4507",
"O  c #2C4A05",
"+  c #2C430D",
"@  c #2D4C0C",
"#  c #26410E",
"$  c #304705",
"%  c #314B06",
"&  c #334D0D",
"*  c #2C530C",
"=  c #2F5B0F",
"-  c #285107",
";  c #35530D",
":  c #39550D",
">  c #355A0D",
",  c #395B0E",
"<  c #345107",
"1  c #2B4413",
"2  c #2D4B13",
"3  c #2E4F1B",
"4  c #324E12",
"5  c #334C1B",
"6  c #3A4C1D",
"7  c #2E5112",
"8  c #2F5812",
"9  c #355413",
"0  c #385613",
"q  c #365A14",
"w  c #3A5C14",
"e  c #355519",
"r  c #3B551D",
"t  c #365B1A",
"y  c #3A5D1A",
"u  c #3B620F",
"i  c #38650F",
"p  c #356114",
"a  c #3C6315",
"s  c #3E6A15",
"d  c #37631A",
"f  c #3C641B",
"g  c #3E6A1B",
"h  c #376814",
"j  c #3F701B",
"k  c #3A4729",
"l  c #3A5423",
"z  c #3B5A21",
"x  c #3F5B29",
"c  c #385029",
"v  c #3E4530",
"b  c #3C6521",
"n  c #3E6A21",
"m  c #415D1B",
"M  c #406516",
"N  c #416B16",
"B  c #40661B",
"V  c #416C1C",
"C  c #44731D",
"Z  c #48751D",
"A  c #46791D",
"S  c #497B1F",
"D  c #437217",
"F  c #415D22",
"G  c #425B2B",
"H  c #495F2D",
"J  c #405523",
"K  c #49553C",
"L  c #445737",
"P  c #426623",
"I  c #426D21",
"U  c #46622B",
"Y  c #4A652B",
"T  c #466C29",
"R  c #496B2B",
"E  c #496827",
"W  c #457322",
"Q  c #497622",
"!  c #467923",
"~  c #4A7C23",
"^  c #467428",
"/  c #49712A",
"(  c #477928",
")  c #4A7D2A",
"_  c #50792D",
"`  c #4A6633",
"'  c #4D6C33",
"]  c #4C633E",
"[  c #456130",
"{  c #54663D",
"}  c #536A3B",
"|  c #576A3A",
" . c #4D7333",
".. c #4D7830",
"X. c #537334",
"o. c #537933",
"O. c #5B723C",
"+. c #56773B",
"@. c #516B28",
"#. c #63703E",
"$. c #4D4C4C",
"%. c #485141",
"&. c #4D504B",
"*. c #535A4B",
"=. c #535354",
"-. c #5C5C5C",
";. c #585B55",
":. c #4E6047",
">. c #556D43",
",. c #576549",
"<. c #5C7342",
"1. c #5B724C",
"2. c #5A7E41",
"3. c #5E625C",
"4. c #5B6754",
"5. c #5F7053",
"6. c #636E49",
"7. c #607442",
"8. c #647B46",
"9. c #65744D",
"0. c #687743",
"q. c #70754D",
"w. c #60645D",
"e. c #616C58",
"r. c #6A7D56",
"t. c #677659",
"y. c #767D57",
"u. c #5E5D61",
"i. c #626462",
"p. c #666A64",
"a. c #686C67",
"s. c #676969",
"d. c #6A6D6A",
"f. c #6E716D",
"g. c #6D7864",
"h. c #727A6E",
"j. c #737573",
"k. c #767975",
"l. c #797B78",
"z. c #4D8225",
"x. c #4D8329",
"c. c #518926",
"v. c #518929",
"b. c #63843C",
"n. c #5F8A42",
"m. c #66844B",
"M. c #6D8D4B",
"N. c #688948",
"B. c #718B4F",
"V. c #6A8256",
"C. c #75875E",
"Z. c #768657",
"A. c #7B965D",
"S. c #768263",
"D. c #7E8C65",
"F. c #79856A",
"G. c #7D9665",
"H. c #7E817E",
"J. c #7C8774",
"K. c #858A59",
"L. c #84905C",
"P. c #B88748",
"I. c #898963",
"U. c #848E6E",
"Y. c #868669",
"T. c #8C9A6C",
"R. c #899468",
"E. c #95996B",
"W. c #81847F",
"Q. c #878F71",
"!. c #8B9877",
"~. c #959475",
"^. c #969D73",
"/. c #989A7A",
"(. c #998A74",
"). c #AC8060",
"_. c #A49F7D",
"`. c #B78E6A",
"'. c #8BA071",
"]. c #96A47F",
"[. c #A6A47D",
"{. c #C19350",
"}. c #CAA35A",
"|. c #C29C64",
" X c #C9A97B",
".X c #CAA662",
"XX c #848583",
"oX c #878987",
"OX c #8F968C",
"+X c #9B9A86",
"@X c #929293",
"#X c #A39F8C",
"$X c #A79A84",
"%X c #B29E8E",
"&X c #9DA285",
"*X c #9AA686",
"=X c #ABAE87",
"-X c #A7AC8B",
";X c #A4A08E",
":X c #B1AC87",
">X c #BCA689",
",X c #B9AA86",
"<X c #ACA591",
"1X c #AEAC95",
"2X c #B6A795",
"3X c #BAB192",
"4X c #B5B49C",
"5X c #BAB796",
"6X c #BDB6AA",
"7X c #C9AA88",
"8X c #C4A792",
"9X c #CFB693",
"0X c #C8B79B",
"qX c #D2B499",
"wX c #C9B18A",
"eX c #C1AFA2",
"rX c #C7B7A3",
"tX c #C3BCAF",
"yX c #C7BBA4",
"uX c #DABCA8",
"iX c #CDC1AA",
"pX c #CDC6B6",
"aX c #D8C3B3",
/* pixels */
"I q g g I B y g w q V y & q N S z.Q q y I d p C Q z ^ V C C 4 C B w f Z Z b n f 9 f W B w ; s y ^ ^ y d s q e a y e W ^ W g s q ",
"y ; I I W f f d V 0 & q a f I C B a s 0 d B g q C f f n Q M & w & w w w g N ^ ) B w 9 & q y g f g Q N s g a ; & 9 9 C ) g 0 > w ",
"f q y a B y y 9 Q N a q 9 I ~ f 0 4 e q & q g q s Q Q C f w y q q t 4 9 a w y B N B 0 0 w t g f g N d d 9 V N s , 9 q f g s a t ",
"e t f C d d g C c.Z u a d Q ~ f a a y q m y e 0 y W W ! a a s d g I y 9 V C f a w 4 4 P ^ B w w W V r w y Q b a q F B.M.P q q y ",
"f B f Z D C C D ( >.5.g.g.M.n. .s & y g y s f a f s s N Z V f g c.Q I w a u < , s t e V W N N N w ; y y D M f ~ N.-XpXpXy.* t y ",
"B V f y A C W s >.l.XXXXXXF.F.g.o.r f C g g Q 9 i p w : w n g ~ I w I s , % $ , D C B W B a V 0 $ , a Q I D V h G.3X}.9X+XY p C ",
"V f B f > s Z ! 5.j.k.k.j.f.s.d.4.G q s b C.4X-XO.i ; s Q C f B f f M B ; $ % w W V A A V a a : w : s V g N Z @ 2.<X8X6XU.y j z.",
"f d N I g S z...5.s.s.s.s.p.i.p.-.H i ; { 4X X0X!.; , C ) 0 f w t 9 9 w , ; 9 9 0 w A ~ C 9 & w y w f W ) ~ B & # 9.+XQ.` d W s ",
"& 0 V ) W z.j K u.i.i.i.i.i.3.3.*.l p @ U 4X8XrX!.7 f W C g 9 9 y q 9 N A u < p a q W Z 0 + w B q C a g f B M q 1 b / b l n d e ",
"& s S n f f p L =.u.3.3.3.u.-.=.K f 9 & 0 6.#X+X` 9 t f g C y y 0 w f z.z._ t o 0 9 w f w w t B g g , s e f w 0 q t d f f g w 0 ",
"q N C g f W y e c &.>.,.=.$.%.L I V w q e 1 ` r t d e I n S s f f y B j #.E.K.#.P ; B f 9 w y y f f f g 9 f N w q q y y f B p , ",
"g f d W I C s o 3 c x k X X 3 t g B B g 9 9 s o t y n n S g a 0 d f s * 7.>X7XI.r ; f w B y w B y d y N q 0 g a 7 q d f f s 0 q ",
"a f s ( j n g w 2 2   . 1 1 e e f C f f ; y ! f y f ( x.a w V q 9 w B q P I.(.,.9 9 9 q g f 9 f f W y V f ; e q & , B f p p a f ",
"s C g W ^ f ~ C g q e 9 t y f d g B f f 0 e q s y f I v.q y g C f 0 a a e x G 2 a W t t w C d f b ~ N y f B y 0 N B q o.A.M.~ C ",
"W C C g > p s q g s y q B f f n f 0 e g a y 9 ; g b f I V f 9 D f 9 y d y d q > q V g 9 y s y f f f V a t B f s V I = m.yX=X_ h ",
"W f S C N.m.g 9 f d 9 9 y e f f f a ; w V s C w C n y f W y 9 q w I Q n n V s w & 0 a & V D q f B r f N 4 4 s f q f q 7.~.C.I d ",
"b y V M.5X3XR.q q y q 0 e s g g f a y a q a z.f y B f g ! f 0 0 g Z ^ B f y 0 q e q 9 : N W B C I s d y q w y e q N V B z b C f ",
"I g p C.,X9X;Xr q y y f d V V f a w t e e y I e B I I g Q b 0 0 f B w B M 0 y I f e q s y r 0 N W C C d d V B y y f C g 7 g ^ f ",
"C d y 5 q./.9.& N N w D V w N M y V f t D C w 0 V N a u s a g V C D s D a 0 f S Q t d w y I q w D s V C s V ~ C f N S f r q t d ",
"a q e @ 5 r @ & N B N V C 9 0 N , s M N W I B f p < , N g f C ~ Q V V M , a M a C s q f B Q W a C w g V ( B f a a Z D s & 0 ; 9 ",
"V f y f g O 0 ; N A D f y t q s M M D N f b f f f ; ; , N Q w Z W d t 9 f N u a a I P t d Q A S C 0 y W ~ B a y B B s g B a w N ",
"g & f q I a 0 9 B z.S d e f N f a f z.S t y s 0 f g p w n C r f s a 0 y V s N p T T.*X2.y t D D N e 9 B y e w w f I I V z.V y V ",
"y 9 q q y B w & 4 B Q q q w f B y y B Z y 9 & & y n B f f y f ) w e y q q a q e R.pXaXtX9.O D D s 0 0 9 w t w y T n V Q ~ C e 9 ",
"0 d s g f f t 9 a q f ; 0 w 0 f b d N y 0 ; f a I Q 0 N a s a C N f y f N g q ..*X9X{.2XS.q v.( y N g p 4 ~ ` =.4.} I g Q C a w ",
"w y V j s f e y 0 y g f s V C b n b y f B y 9 9 I C g B f a o q w s w f B g d R ^.2X%X+X<.* B y f I B C B ] 4.i.s.j.p. .j w ; ; ",
"y w C I w f ; 9 0 B f f s f d b B y n ^ 0 2 a y I ( V f f y s t e a g ( Q g g 8 x D.S.,.2 t s f f B f ^ :.-.i.d.k.l.W.h.>.W s w ",
"C w C ( a y y @ n f ; & g V y f b f ^ g & B b.B C g V f Q 0 N C 0 0 a g V t e w 9 @ 4   7 f f b b f q %.;.3.a.j.l.XXOXoX3.z p b ",
"g N C Q S q f w g w 0 f ~ Q V W g C j q O.=X3XQ.y 9 y V z.0 B V 9 y j C g f r f 0 q g 9 d I q f b f f %.-.i.f.k.W.oXoXXX4.z a n ",
"N 9 y B W y f g N a 4 V V q f B y b q B T.7XP.$X8.7 r g w p w b 0 w a V W ^ ! I y q ; q s g q f f f f ^ ,.>.t.j.l.oXW.l.1.n > ; ",
"s & 0 B I I f 2 y Q & ; q w y f f n g W Z.7X`.$XX.b n a D S 9 4 y w w B C S z.n 9 w y N a f y y B g f V U W ` *.e.t.V.>.H f q : ",
"0 0 I ) b y g a ~ Q a w 0 f n n g V I 3 J I.Q.| n W g j 0 Q ^ g , ; q q s S W f w 0 M W N 4 t y W f f d C I 1 . 5 l Q g f q 9 0 ",
"4 q f W ~ g f C g f w a t 9 I z.Q f f b e e 6 + f g w D w V x.n ; & w e t C f 9 q B d b V f 0 y & w s w N g 4 @ ; 4 f N D V q w ",
"a q e y V S D M I I f g f d Z Z s C N W W d q 0 N ; % , y & d b f f q y B M a M g W ^ f W W V w ; $ s M s a w w y w , N S V a f ",
"@ q y 0 0 V S B W ) ( I f B g : & s S C C V C ~ N : , % N B N f Q V f q , , ; a C f B W ( W S a a s > , s S a p C > O p B a a y ",
"a w q B f s A V f Q V b f Q D w < ; B V g s t W B 0 N u s a y N a y n f w p , N N f s B V f B V C D y w y f q y p O.G.o.@ ; 0 y ",
"Z a f B f a f w g f y s V ( z.N , 0 q q f f f a y y w N a q 9 a & ; W W B B N Z I q a a f I N S ~ C V a q y a * z E.0XE.I q f g ",
"I B W ! C q e f y ; 0 w M Q S s N N q y w g ~ w w q N ~ C C y 9 q 0 t Q Q V C z.( q 0 > V Q d j B m C 9 t f 0 @ x $XuX/.T p V B ",
"B W W ~ C f 9 d p y w y y Z g y f M y d f N B < a f C z.~ z.B q w q 9 s s q d ! D y 0 & B D g n I y I B g s y 0 7 9.Y.{ t V W d ",
"f C C z.N Q y a s d y B f q y d f w w 0 h > e w f f B P B C f N 0 q g V o.Y 9 f M a g q q s W ! I b V Q a w V d 9 2 q d V c.I y ",
"I g C C B I I D y 0 ; y w & 0 N f t 9 0 R P q S a B f y y f f f 4 a j B.:X/.` d C C D e 9 B V g f B N f t 9 0 g f d j z.~ ( n f ",
"V q f f W b B g 9 f B y r w ; r P f > P ^._.#.V a I B f t y f y 9 w q U.uX0XV.= g ! s @ y W g t B V I w V f & d w N ^ g W g f d ",
"a d g V x.f w q ; s D V 9 w d y g w ; X.yXyXS.= d g B f y f f f a 9 * } Y.D.o.d f w 9 f f B W f f f f d B ~ q 0 q f f z g g w q ",
"V w g s W I a w t 4 ; w a n W n d w y E S.Y.H & t S Q f a B q g f M ; @ 3 3 f ! f : q a f y C B ^ n f q ; V b 0 f B B g I N 0 M ",
"n & y y y w f q d y q d Q Q f f a B ~ V @ # o w W ! f w a y f q f Q N > q 9 g ) a ; ; 4 f N w y ~ v.b q a M e y a : a f W B w Z ",
"y 0 0 q s V C Q ! g a q w w w ; , u N y e p ; ; f g f s C f e w D P f B B f N I t : a t B ~ V f f V B 0 0 C W W f g I f Q I e 0 ",
"q y t 0 s Z j C Q g g w B N 0 , , , N M B V a V a w w u 0 a C V S g W ( w q a s y s f e a D D , V g y 9 y B N W b f g N W W y ; ",
"N 0 q B : & p s f g g M B w < w w ; f D S N f V M % o , < a Q ~ C g n V s : : , M y e f B N M , @ s a a D N g N a a , , f y ; > ",
"I 0 M a V 9 M V f P / T M M a : : ; 9 C S N y t ; & ; ; s Q y V W W f y C M a N B f w g f q M : ; s C a N ~ W C V s & , g f y w ",
"~ y B S C y t * X.&X6X*XY p C w f q + w z.W e ; > t y s f I f B f y e d C a w n b 4 ; g 9 s s V D a ; I B Q f B B g : ; m s f f ",
"N ~ C C f M q @ D.0X7XrXD.n g N t q 0 M f N ; I V.J.J.t.W w t ) w 9 a a a f V ( C , ; 0 q ~ z.V w s @.y q f b V N y q : , a t I ",
"f ! z.~ ! s 9 * !.0X|.3XJ.n h f e q w w B q r D.OX@X@XJ.+.} M C D V B B N f W ^ 9 q a & y C g d Y E.5X=Xm w Q q q t w B g g ^ ( ",
"y f B q a ) V - 7.1X6X/.U q g g B w r f W z.8.oXoXXXW.F.r.a.k 0 0 s ( I N C Q I t t 0 V f y g t L.>X{.%Xq.& N s d q y W W f a q ",
"f g j ! b I Z e 4 k { r @ W C f a q I f 0 U k.l.k.h.f.f.p.u.R t q 9 ~ ! b r f g V W 9 e f a f e 8.$X).%X0.4 ; g y f b f y s s 0 ",
"; q C ^ n C , ; d 9   @ d B b y f g s & ; G f.d.d.d.i.i.i.:.F C q q C B y t y q f Q y 0 f b f y 9 y.~.y.b t 9 I q & y f g g s 0 ",
"q M N ^ Q C f w y D f B V f r b y p w t d I w.p.p.i.3.u.u. .y C 0 q C I f b f t s g 0 0 g I I g e r z f f 4 9 g q e y b I f q w ",
"s C Q b P t d y 4 s q t g f n g a B C 9 ; I K 1.3.;.:.] K T y g 9 g V C W ) I f q @ & a N g f f w f d d 9 0 g f w s g b f B B f ",
"s q C V P W n t 0 y B ^ ! Q W g I W B , 0 q b x v v c e r ( d 4 e s a w W z.W y a w M V 9 t y B W Q ! q a w y f w 9 ; > A ~ V q ",
"g q V S V ~ ! f 9 ; B V W N V a 9 b w a y f I 3 # 1 2 f C V ^ b w % w f a C n f s f Q W y f f B f V ^ w ; ; e B Q a q T ~ S N > ",
"n f f S j a V y w a w M w a D B y W g V g b z.Q 3 t 0 C C C ) Q f & p i g j p f W g I f C g g s a a f t & a d B D s Z.,XL.I s y ",
"n W V s , p V M C Q w y s , , 0 N ( C n N g x.! g f s V C N N V Q V p 8.*X'.o.p B Q W f A j d a a , V I w t f g N s ^.aX~.b d ! ",
"f V W q u N D D C W f y g w % ; s C B f f g I f g W s f D y a Z S h  .&X9X0XT.f w B f P B g q f , < N V f y n n g ; #.D.} 9 f ^ ",
"a y f M C f C z.g y g 0 0 y , N g f W ) W B 4 t n z.s y f 0 q ~ S = ` #X X9X+XI h q q f y s q I M M N 0 g w e f g q 9 q q 9 e f ",
"B I I B W B B Q N 9 0 ; q b g g f y B I V B 0 q I z.W V f r 9 N C 9 2 y.<X<Xr.g C a 0 r & f y f B Z W y w ; ; w ^ W s a N f q y ",
"V C f I C f q w f 0 q q a Q P d y : w 9 q M e t d n f Q f w q s w e @ 6 9.>.2 e B a a y t q f f f ! ~ V & y a e n Q C V C C g , "
};
