/* XPM */
static char *result[] = {
/* columns rows colors chars-per-pixel */
"64 64 248 2 ",
"   c #04071C",
".  c #371B1C",
"X  c #2C3612",
"o  c #050823",
"O  c #0B1928",
"+  c #161A29",
"@  c #131B36",
"#  c #271D2B",
"$  c #0A2B36",
"%  c #1A2436",
"&  c #07363B",
"*  c #122F2E",
"=  c #27282B",
"-  c #293628",
";  c #373A2B",
":  c #262936",
">  c #362C32",
",  c #353A36",
"<  c #332A2C",
"1  c #50301D",
"2  c #76351B",
"3  c #6B361B",
"4  c #492A27",
"5  c #473528",
"6  c #533629",
"7  c #4B3B38",
"8  c #563B38",
"9  c #512E24",
"0  c #693524",
"q  c #7B3B22",
"w  c #2D4C0D",
"e  c #2A4608",
"r  c #324D0D",
"t  c #314B07",
"y  c #2C520C",
"u  c #35530D",
"i  c #395B0E",
"p  c #36590D",
"a  c #2C4714",
"s  c #324E12",
"d  c #354B1C",
"f  c #355413",
"g  c #385613",
"h  c #365A14",
"j  c #395C14",
"k  c #355619",
"l  c #365B19",
"z  c #3A5D1A",
"x  c #3A551C",
"c  c #2F5214",
"v  c #3C6315",
"b  c #3E6A15",
"n  c #3C631B",
"m  c #3E6A1B",
"M  c #366316",
"N  c #3D6B15",
"B  c #1D4936",
"V  c #144F35",
"C  c #374927",
"Z  c #3C5A22",
"A  c #3B5628",
"S  c #3B4834",
"D  c #24583A",
"F  c #32512F",
"G  c #3D6421",
"H  c #3E6A21",
"J  c #2C6B3B",
"K  c #156632",
"L  c #445A1D",
"P  c #416B16",
"I  c #40661C",
"U  c #416C1C",
"Y  c #406417",
"T  c #44731D",
"R  c #46791D",
"E  c #48781D",
"W  c #445A29",
"Q  c #464A39",
"!  c #58453C",
"~  c #48573A",
"^  c #535030",
"/  c #655B31",
"(  c #724D34",
")  c #426622",
"_  c #426D22",
"`  c #496729",
"'  c #447322",
"]  c #497623",
"[  c #467922",
"{  c #4A7C23",
"}  c #49752A",
"|  c #4B6735",
" . c #55693C",
".. c #4D7535",
"X. c #567438",
"o. c #50742D",
"O. c #776837",
"+. c #043A40",
"@. c #363B4A",
"#. c #363C53",
"$. c #28334A",
"%. c #094A47",
"&. c #0B534F",
"*. c #095A4F",
"=. c #175E46",
"-. c #0F554E",
";. c #3A4358",
":. c #335348",
">. c #177449",
",. c #2A7644",
"<. c #2E6A4F",
"1. c #3E4D63",
"2. c #484A46",
"3. c #4B5645",
"4. c #535A48",
"5. c #454A55",
"6. c #575857",
"7. c #504E4D",
"8. c #694D43",
"9. c #6B5243",
"0. c #7D5D4A",
"q. c #685A5D",
"w. c #566946",
"e. c #5A7546",
"r. c #5A6558",
"t. c #4E6B4F",
"y. c #647447",
"u. c #656859",
"i. c #677559",
"p. c #6D754E",
"a. c #495569",
"s. c #565B67",
"d. c #555D75",
"f. c #596477",
"g. c #586668",
"h. c #666865",
"j. c #6C7769",
"k. c #73796C",
"l. c #6B757C",
"z. c #767975",
"x. c #636A79",
"c. c #675F63",
"v. c #813D22",
"b. c #AA481B",
"n. c #894A2F",
"m. c #B05025",
"M. c #8F7432",
"N. c #B1702C",
"B. c #97451E",
"V. c #C65824",
"C. c #CB6929",
"Z. c #CD762F",
"A. c #CC711B",
"S. c #825D49",
"D. c #925F43",
"F. c #89664D",
"G. c #966D52",
"H. c #9C7154",
"J. c #92674C",
"K. c #A27556",
"L. c #A37758",
"P. c #A67859",
"I. c #A87A59",
"U. c #807A7A",
"Y. c #4D8225",
"T. c #4B8129",
"R. c #518929",
"E. c #2A8A4B",
"W. c #2B9548",
"Q. c #319A4C",
"!. c #268B50",
"~. c #34A751",
"^. c #30A84E",
"/. c #1D8749",
"(. c #688949",
"). c #768658",
"_. c #728B55",
"`. c #7A8867",
"'. c #7C8A71",
"]. c #5F8A42",
"[. c #28933E",
"{. c #B09235",
"}. c #BDA33A",
"|. c #9B8837",
" X c #D78E32",
".X c #E59031",
"XX c #C8A938",
"oX c #D5B63C",
"OX c #D0A739",
"+X c #EBBB3A",
"@X c #ECAE38",
"#X c #F5C83D",
"$X c #DDC03F",
"%X c #84886A",
"&X c #979877",
"*X c #8A9173",
"=X c #AD8F6D",
"-X c #99925F",
";X c #CF8C4B",
":X c #C6A163",
">X c #EBC941",
",X c #F2CE41",
"<X c #F5D241",
"1X c #FAD641",
"2X c #FEDD43",
"3X c #F2D962",
"4X c #6A758A",
"5X c #6E778A",
"6X c #586B87",
"7X c #79828A",
"8X c #7A889C",
"9X c #7E88A3",
"0X c #858786",
"qX c #858B92",
"wX c #919695",
"eX c #A99C89",
"rX c #99A691",
"tX c #B3AC8F",
"yX c #838EA9",
"uX c #828EA4",
"iX c #8693AB",
"pX c #949BA5",
"aX c #8C98B2",
"sX c #919DB8",
"dX c #9CA4AA",
"fX c #99A3B9",
"gX c #A5ACB3",
"hX c #B5BBBC",
"jX c #A9B0AE",
"kX c #CBB394",
"lX c #C8B7A8",
"zX c #B5C6B2",
"xX c #D0C6B3",
"cX c #E5C9B8",
"vX c #B4BCC7",
"bX c #A8B4C5",
"nX c #BBC3C9",
"mX c #C8D4C7",
"MX c #C3CCD5",
"NX c #CBD4D7",
"BX c #CDD2D1",
"VX c #DCE5E6",
"CX c #E3EAE9",
"ZX c #F5FBFA",
"AX c #FDFFFE",
"SX c #F2F8F6",
"DX c #E9F1F2",
"FX c #E7DAD3",
/* pixels */
"_ h m m _ _ z m j f P z r j P E Y.] j n I n v T ] Z ' m T U f P P j n R T G H n f n ' I j u b n ' ] z n v z f M z f ' ' ' T M j ",
"z u _ _ ' n n M U j r j M n I R U M v g z m m h T n n H ] v r j d ` ` n m P [ } I j f r h z Y n n [ m n m n u u f f T T.H f i j ",
"n h z v n z h f ] P v h s ' { n g s f h r h n l m [ } ] n v z h ~ + : Q Y Y l _ U Y g g h l H n I m n n f P T Y j p h v b v v z ",
"f l n T M n m T Y.E v v M ] { n n v l j n z h f n ..~  .` j P | r.7X7Xd.2.~ ) M j s f _ } P h z ' T f h h ] I M h W _.(._ f j z ",
"n I Y ] P R T R [ X.u.j.j.(.]...b u j m v v P Y e.zXhXrXw._ ` j.MXDXMXyXd.d.S z b h k | Q 2.2.! v u z j R v n { (.tXxXxXp.r l z ",
"I _ n M R T ' b w.z.0X0X0X'.'.i...L n T P P o.X.zXAXAXZXwX6.'.NXAXCXvXvXfXiXa.4.] ..4.6.a.a.a.a.Q L L E P T b b `.tX:XkXrX` M T ",
"U n n n p b [ [ i.j.z.z.k.l.h.h.r.W i Y G `.jXBXAXAXZXZXSX@.dXAXAXDXbXwXNXNXaXs.6.4.1.4XaXaXsXyXa.3.` U m U T w ].tXkXtX%Xn R Y.",
"m z P _ n E Y.o.r.h.h.h.h.h.h.h.6.W N i  .jXBXAXVXNXAXZXDXwXqXBXZXZXNXl.gXAXMXx.s.fXbXyXyXiXyXyXuX:.w.o.{ Y.I w X e.wX*X| n _ M ",
"r j P { ' Y.m 3.c.g.s.u.h.u.s.h.7.Z M u | MXAXZXvXx.ZXZXAXAXpX5XpXpXpXl.# ZXDX@.vXAXVXsX9X5X6X9XiXiX5.Z n I Y j w G } Z Z H n k ",
"r P [ H n n M W 6.6.u.r.6.c.6.7.~ n u w Z jXAXZXhXs.vXSXZXFXxXi.X 1 . . 8 jXgX4XBXAXAXVXyXa.#.9XaX8X5.z k v j g k l M M n m j f ",
"j P ' H n H z l ~ 2.w.r.7.2.2.W _ ' j h z wXDXZXAXNXf.cXcX;X( {.2X2X+XZ.N.. 4 dXnXCXFXvXfXs.yXyXyXt.3.` s m U j l l M z m b v p ",
"n n M ' ' T v t a A Z C C C C z n P n n s z.hXBXVXZXcXZ.C.+X1X<X#X#X#X#X+XZ.C.. # qXqXf.MXVXiXyXt.2.A b j f I M c h n n n v u z ",
"v b n { [ H m j a c e X a a c k n T n } l rXwX@.5XFX;X@X$XoXoX<X2X<X<X<X<XoXXXN.b.0 7XVXAXDXyX4X:.X.n I n r l z r j v m M N v b ",
"v T m ' H n [ T n k c f k l n n m m n jXmXVXCXBXlXZ.#X#X>X/ < |.2X2X<X2XoX; ^ OXZ.b.8 yXAXNX4X: = o.P z n m j g U P h ..`.(.Y.m ",
"[ H [ m p M b M b m z z n n n H G z rXZXZXZXAXAXxXA.#X#X1X{.= + |.1X<X{.>   |.<X1XZ.9 ;.iX5.;.x.f.3.o.n j n v v U I y _.xXtX} b ",
"' v Y.m (.(.I c n M u f z l z H X.rXZXZXZXAXAXcX;X+X#X2X,XM.= o - |.oX; o @ / oX2X Xb.8 #.f.6XaXsXf.3.` f f n n h m p X.*X)._ M ",
"n n m (.tXkX*XM h h j f h n U m e.AXSXMXCXSXgX0. X#X#X$XO.'.@.  ; XXoX^ % 7X% ^ oX.XV.2 $.aXsXsXyXaXd.4.~ j z f z m P _ Z G _ n ",
"_ m M ).tXkXeXl h z z n n P U n e.zXZXBXvXpX5Xc.n.2X2XoX% 4X@.  n.#X#XN.: 5X@ o {..XV.2 @ d.iX5Xa.8XiX;.= ' n n j n T b y m ' n ",
"T n z d p.&Xy.s U P h T U j P n | o.zXZXnX5XhXbXL 1X2X$XO.    ^ N.@X#XN.^   O 9 {.Z.V.0 $.d.d.a.;.9X8X5.- I ] R n P R I g z l n ",
"M j f w d Z e u P P P P ' f j b M | ] mXAXAXAXnXp.{.<X2X#XO.^ XX2X#X#X1X#X/ / N.C.V.B.8.fXVX#.#.9X9Xr.| w.U n v v T E M s u f f ",
"U j M z P e j u P R T n z j h v P v X.rXCXAXAXAXgX= #X#X#X#XXX}.$X3XcX2X}.XX<X#XZ.V.9 4XAXNXaXaXiXt.~ ` { ) j z H P v m I v j P ",
"U s n h _ M g f I { E n f m P I n v Y. .qXBXCXDXqX! XX#X#X X( + 4XNXnXrX+ 5 ;XZ.V.b.8 5XnXsXyX4Xt.3.C ) z l z j n _ _ U Y.U z U ",
"z f j j z P j r r P ' j l z n I z z U ] 4.- '.gXl.MX^ XX#X2X>X/ : , S % . m.C.V.b.( dXgX#.5X4X:.:.L s f j z j l ` m T ] { m f g ",
"g n n m n I z s v z n u f j f n n n v j W L u.l.VXSXhXy.}.$X<X>XXXXX{.b.m.V.m.b.6 0XCXMXa.: #.X.` I P j s { ` 6.r. ._ I [ ] v j ",
"z v b H Y m f n j z n I Y T T G H n z H m M j.NXAXAXAXgX7 5 {.#X@XC.C.V.V.m.4 7 pXqX5XfXyX4X6X~ z _ m T I | r.h.h.l.h.} m M r u ",
"j z R H j n f s g n n n n n M H G z H ' G '.VXAXDXDXNX0XpXfXk./ 9 4 4 4 4 5 a.6XgX8X;.a.yXiX9Xd.4.) n } 4.6.h.h.z.'.0Xz.w.' Y v ",
"R z T { v z n w m n u r P _ z n G n ' m k `.xXzXpXs.x.pXAXAXvX@.o +.+.+.& O 5.x.9XaX4X;.#.a.aX'.@.z h ~ 6.h.h.l.z.0XqX0Xu.x M n ",
"n P T ' [ h n h m j g n [ R U ' H ' b z X.tXtXjXfXz.qXAXAXZXhX@.$ *.*.*.%.- F A g.9XsX4X;.a.l.4.W I b 2.6.c.j.z.0X0X0X*Xr.Z M _ ",
"P s z I _ n n n T j s P U j n I l G h _ *XkX;XeXhXmXAXmXjXpXc.: & *.&.&.%.S [ A ` 6.4XaXaX7XS ~ Z n n ' w.w.i.z.'.0X*Xz.w.I p g ",
"v u f _ _ _ n f v ] r u h j z n n m m _ ).:X=X*XX...dXo.W C Z ~ $ *.&.&.%.F ..H d C 6.6Xg.| ~ z m n n _ ` _ | 4.r.j.i.w.| m j u ",
"j g _ { G z P n ] E v j f n H H H U H k W %X%X .` A Z ` g ] ' w.* %.&.&.-.V A G M g  .- S F z z } ` G n T ' a X d Z R m v z s u ",
"s j n ' [ m n P H n j v l k _ Y.[ I n n k F D F n n j P j I T.H ~ $ &.&.-.%.B d z n n G b m l ` :.=.X.j b m c w w w v P T U z z ",
"z k k z P E T v H ' n I n n E T v E m ' e.>.[.J J D A j z f M n  .O *.&.-.%., G m ' ' ) y.<.<.<.!./.<.` v v v z z v p P E P n n ",
"t j M g g T [ I } { } _ n I P u u v R R <.>.~.W.E.E.E.=.:.2.G n w.V !.-.&.%., l m  .- B ,.W.!.E.^.^.D A b R b j R p t b m v z z ",
"Y j j n n Y E b n ' _ n G ' T j u u n P t.>.^.^.J V Q.!./.,.F S , B ^.>.&.%.* - ~ :.& V !.E.B Q.~.W.:.Z z n j h p X.`.R.w f j z ",
"E v n U n v n M m b n n P [ Y.P i i g h ' t.K ^.W.J * B Q.^.E.J * B ~.E.&.&.O B & %.%.* B B ,.~.W.J W L l h n u Z *XkX&X_ p v m ",
"_ I ' [ m z f n z f f j v [ E P P P j l M o.4.,.Q.Q.D D D D E.~.D B ~.!.&.&.@ %.+.$ B <.D J ~.W.J Q U f n n f w W eXlX&X` M T b ",
"n ] ' { T I f n M z j z n U P z v n z n n P ` a D K ^.Q.K B D D - =.~.!.&.%.+ $ $ & ,.~.^.W.D J ~ g _ I b n n f s y.*Xw.h H _ n ",
"n ] R { U R n v b v z m v j z n n j g h N y f h , ~ ,.,.J ^.K * %.>.~.E.&.%.+ O %.=.,.,.,.F C S U n U ] M j U n u w l M T Y.' l ",
"_ b b ] I _ I T j h r z z r g I n z f f ` ` z R Y G S C Q <.,.,.=.>.^.!.&.&.@ & %.,.F ; S W U H n m P n z f f m n M T { { [ H n ",
"m l n m _ n _ n g n n j j j r j H n p ` &X&Xy.R v U I n l ~ = ; ;.>.~.E.&.%.: - - S A w z T m l m m m z _ n r n j I ' _ ' _ n z ",
"M M m I T.I v i u M T U f z n n m j y X.lXkX`.y n m I n z z M n r.V ^.!.&.=.7.n n k f n n m T n n n m n Y E l g j n n G n m j j ",
"T h m m ' I v j h f u j z H _ H n j z ` ).U.` r h [ ' Y Y I j w.,.^.~.!.%.= G } m u z v n z T I ' H n h u U I f n I P n I I p Y ",
"_ r z j M z n k n z j M R ] I n j P { U w e e j ' [ n n z n n ~ K ~.!.-.%., G [ v u f s n I j z ] R.G j v Y k z v u v n ' U v U ",
"z f g g P T U [ ' H v z j v j u i i P j g h u f n m v n T v 4.D W./.*.& $.` b ' j u v h I { T Y n U _ f f ' ' ' n m U n ] _ k f ",
"j z l z v E P E ] m b h I Y j i i v P Y I P v ` ^ L d d d ~ , $ D & % @ = ~ C d C C C - A T P i U m z f j P U T G n m m ] ' z u ",
"P f j Y i r M n n m b m I i u i i u v T R P b I ( M.4.9.9.! 8.8.8.8.8.8.8.! 6 9 9 9 1 4 S P v i t v v z E b m P v M i i n l u p ",
"_ g Y j U g v T M ) ..` Y Y v u i u u E R P L W 0.n.! 8.9.( 9.9.8.9.9.8.9.8.9 1 1 4 1 W A j Y i u b E v U E ' T U P u i m n z v ",
"[ Y I [ T z z w ..rXzXrX| v T p n z e j { ] l f L 1 7 7 7 7 7 7 ! 7 7 7 7 7 . 4 < . < F f M b b T v u H I ' n Y I m u u j I n n ",
"P [ E T I Y h y `.kX:XlX%Xn m P z f g v n I f ' `.( I.I.S.S.S.S.0.0.S.S.0.S.0 0 q 2 4 C j { Y.T i b o.n j M z ' P z j i i Y z _ ",
"n ' Y.] [ I y y &XlX:XkX'.G N n k z v j m z f _.wX( I.H.> + #.> O # : : 5.@ o # 0 2 5 - z R m n ` &XtXeXL v E z j l z n m m ' { ",
"z n m j n { U y X.tXjX&X` h m m I j g n T T.p.0X0XF.H.K.F.7 pXf.  8 S.6.nX@ + 0 n.3 5 W n z m l -XtX;XtXp.u P n n f n U ' n n l ",
"n n H [ H H E f s C  .Z w ' ' n v j n n f W k.z.U.U.S.H.L.G.7.% 8 P.L.0., # 0 q 2 6 C h n v n k X.eX=XeXp.r f b j z G n l n b h ",
"u M R ' H T j u M y X w l m G l n m n u f W k.l.j.k.( H.L.P.G.J.H.I.I.H.J.J.q q 2 5 A f G n n l s _.&Xp.W f u m h f z n b m b j ",
"h Y m } ] T n h j ' n n P n z G z M M l n ` r.h.h.u.7 G.L.L.H.H.L.H.H.H.K.H.n.q 2 7 C f m ' _ m f x Z ) v f f m j f l G _ P g j ",
"v E ] n I l n z r Y j l m m G m v U U f p m ~ y.q.7.: G.P.L.8.= : > > > > > 0 q 2 4 d n b I n n M n M M g f m n z n m G n I n n ",
"n l T T I ' H l j z I ] ' [ ' m _ ' U i f j H A S S = G.I.K.9.8 2.8.2.8 ! ! q v.3 ^ W P f l z m H ] { h j j z n v u u i R Y.b h ",
"T f b E ' [ ' G f f I U ' I U v g G j v z n H d a a 3.! G.P.I.I.P.L.I.I.I.I.v.q 1 ~ ` ' z n n m b m } h u h f I ] v Y o.{ R P h ",
"m n m R P M T z j v j Y v v T Y z _ m P n H Y.' s f f C F.P.-XK.L.L.L.P.P.D.v.0 > ) _ I R b m v v v G h r v n I T b _.&X%X_ v M ",
"G ' T v i v P v R T j z v i i g U [ ' H P I Y.[ m n P ; J.I.L.H.L.L.L.H.D.q v.2 > A ' n T H n v v v P U z z n m b v &XcX&XG M { ",
"m U _ j v P P R R _ n j P j t u P T _ G n m H z m T m ~ 0.H.K.L.L.L.K.D.q q q 0 S W z n _ P j v i u P P n l _ H n u X.`.| h n ' ",
"n z n Y ' P E E P z m j j z j b m n _ { ' I f z _ T.b z ~ 9.J.J.J.J.D.0 3 3 ( Q z j h n z v h _ Y Y P g m j f n _ j g f p f l n ",
"P _ I U _ I I R I f h u h G m n n z m _ I P f z ' { ' I ) Q - ; , , > , 7.2.2.Z T z j g s z z n Y R T z z u u z ] _ v b P z j j ",
"U ] n _ T n g z I f h j v ' I n j u j f z v f l n H n ] n j z n h f w d y.w.a k P z z z z j H z n [ { _ r z v f _ [ E U T ' m j "
};
