/* XPM */
static char *result[] = {
/* columns rows colors chars-per-pixel */
"64 64 244 2 ",
"   c #1E110A",
".  c #180D05",
"X  c #24150C",
"o  c #2C1D15",
"O  c #281C15",
"+  c #301E15",
"@  c #34231B",
"#  c #39271D",
"$  c #293212",
"%  c #3B2B22",
"&  c #323F22",
"*  c #462E1B",
"=  c #4A3628",
"-  c #543B27",
";  c #4D3A2E",
":  c #2D4B0D",
">  c #2C4707",
",  c #334D0D",
"<  c #314A06",
"1  c #2C530C",
"2  c #35530D",
"3  c #3A5B0E",
"4  c #36590E",
"5  c #2D4814",
"6  c #324E12",
"7  c #354B1C",
"8  c #355413",
"9  c #385613",
"0  c #365A14",
"q  c #3A5C15",
"w  c #355619",
"e  c #365B1A",
"r  c #3A5D19",
"t  c #3C561E",
"y  c #2E5213",
"u  c #39630F",
"i  c #356113",
"p  c #3C6315",
"a  c #3E6A16",
"s  c #3C641B",
"d  c #3E6A1B",
"f  c #37631A",
"g  c #3F711C",
"h  c #3B5A21",
"j  c #3B5626",
"k  c #39462C",
"l  c #3D6521",
"z  c #3E6A21",
"x  c #415B1C",
"c  c #416B17",
"v  c #40661B",
"b  c #416C1C",
"n  c #406517",
"m  c #44731D",
"M  c #46791D",
"N  c #48781D",
"B  c #455C27",
"V  c #594638",
"C  c #4E4E31",
"Z  c #66472D",
"A  c #6A4C33",
"S  c #784B31",
"D  c #785538",
"F  c #77462E",
"G  c #426D22",
"H  c #486728",
"J  c #526C2A",
"K  c #457422",
"L  c #497622",
"P  c #467922",
"I  c #4A7C23",
"U  c #477629",
"Y  c #52752D",
"T  c #4B6736",
"R  c #55693B",
"E  c #4D7433",
"W  c #557535",
"Q  c #6F713B",
"!  c #565657",
"~  c #535047",
"^  c #604F42",
"/  c #685749",
"(  c #765D48",
")  c #576A46",
"_  c #5D6459",
"`  c #5D7347",
"'  c #647546",
"]  c #777846",
"[  c #7A6758",
"{  c #6B7054",
"}  c #5E5D61",
"|  c #656865",
" . c #767775",
".. c #6E7768",
"X. c #9B3C2C",
"o. c #835C3B",
"O. c #8D4F36",
"+. c #B64B33",
"@. c #B85939",
"#. c #B04830",
"$. c #89623E",
"%. c #83733C",
"&. c #B6623D",
"*. c #D44E2D",
"=. c #CC5233",
"-. c #C75737",
";. c #D85938",
":. c #D45030",
">. c #E55B37",
",. c #DB623D",
"<. c #E1663E",
"1. c #E3683F",
"2. c #855F41",
"3. c #AE5944",
"4. c #8C6542",
"5. c #88674A",
"6. c #966B46",
"7. c #9D734B",
"8. c #92794C",
"9. c #856B56",
"0. c #997657",
"q. c #90714F",
"w. c #B66845",
"e. c #A4774E",
"r. c #B7734C",
"t. c #A67B53",
"y. c #B27053",
"u. c #897666",
"i. c #977B67",
"p. c #927E71",
"a. c #B47767",
"s. c #C56745",
"d. c #DE6441",
"f. c #D66544",
"g. c #C47952",
"h. c #E56641",
"j. c #C47E69",
"k. c #4D8324",
"l. c #4D812B",
"z. c #598332",
"x. c #63823C",
"c. c #698949",
"v. c #778758",
"b. c #789156",
"n. c #7B8A68",
"m. c #7D8E6D",
"M. c #5F8A42",
"N. c #848349",
"B. c #898553",
"V. c #AC8458",
"C. c #B6875B",
"Z. c #BC925F",
"A. c #858A6A",
"S. c #998577",
"D. c #989776",
"F. c #8E9570",
"G. c #A68469",
"H. c #B98C65",
"J. c #BD9264",
"K. c #A48B7A",
"L. c #B89475",
"P. c #AD8F7D",
"I. c #94A675",
"U. c #A6A47D",
"Y. c #C48B5A",
"T. c #C58D63",
"R. c #C49264",
"E. c #CC9C6C",
"W. c #C79868",
"Q. c #D29D6D",
"!. c #C89B77",
"~. c #D49F73",
"^. c #C78975",
"/. c #CDA36B",
"(. c #D3A26E",
"). c #D9A96F",
"_. c #CEA373",
"`. c #CAA57A",
"'. c #D5A472",
"]. c #D3A974",
"[. c #DAAA75",
"{. c #DDAC7B",
"}. c #D8A678",
"|. c #DCB17B",
" X c #E2AB7C",
".X c #E1B27D",
"XX c #E6B87F",
"oX c #848584",
"OX c #979587",
"+X c #A38F81",
"@X c #A89687",
"#X c #B69B88",
"$X c #B09E92",
"%X c #9CA284",
"&X c #A6A989",
"*X c #B9A689",
"=X c #ADA792",
"-X c #B8B598",
";X c #BAA491",
":X c #BDB6AA",
">X c #CAA787",
",X c #D6AB85",
"<X c #DDB483",
"1X c #DAB688",
"2X c #C7AB96",
"3X c #CAB798",
"4X c #D5B699",
"5X c #E3AD81",
"6X c #E4B483",
"7X c #E8B486",
"8X c #E4BA8A",
"9X c #EBBB8B",
"0X c #E6B887",
"qX c #E9BE94",
"wX c #F0BE91",
"eX c #F1BC8E",
"rX c #C7B6A6",
"tX c #D2B2A2",
"yX c #D6BDAA",
"uX c #C1AFA2",
"iX c #C49681",
"pX c #EAC294",
"aX c #F1C293",
"sX c #F6C896",
"dX c #EAC08C",
"fX c #C8C3AB",
"gX c #DBC1AB",
"hX c #DAC7B5",
"jX c #D2CAB9",
"kX c #EACAAE",
"lX c #E4CBB9",
"zX c #E8D2BE",
"xX c #DDC39F",
"cX c #DCD4C3",
"vX c #E6D2C3",
"bX c #EAD4C3",
"nX c #ECDACC",
"mX c #EBD8C8",
"MX c #F1DFD1",
"NX c #EAD6C8",
"BX c #F4E2D4",
"VX c #F8E6DA",
"CX c #FAE9DD",
"ZX c #F6E5D8",
/* pixels */
"G 0 d d G d r d q 9 d q , q c N k.L 0 s G f f m L h K b m m 6 m n q p I m l z s 8 l K n q 8 n s U K r s f q 8 f q 9 K P g z f 9 ",
"r 2 G G L s s f b 9 2 0 f s b m b q p 0 e b a 0 m s s z L n , q , 9 q r n b U U b 9 2 , e q p v d L d s a s 2 2 8 8 m I z 9 3 p ",
"s 0 r p s r i 8 L c p 0 8 G I s q 6 9 0 , 9 d e a L L K f q q e q e 6 6 p q f b m n 0 9 0 w z f d d s s 8 b m n q 4 w a a p p q ",
"8 r s m r f b m k.N p p e L L b p p e r r r 9 9 r K K K s p a s d K e 9 b m p p 9 6 8 l K b q q K b 9 r q L s s 0 B c.v.G 0 q r ",
"s d n L c M g M g ) _ ....M.M.E a 2 f p p s a s s a a c L b s a k.L G s p 3 2 3 p q 9 b m c b n 3 4 r q M n f I M.&XjXjX{ 1 e r ",
"v G s q M m K a ) m.oXoXoXm.n...W B f m b d U 0 u p 3 3 q d s L m e b c 3 < < 3 m m s K n p c q > 4 n m b m a a m.*X/.3X%XT u m ",
"b s s s 4 a L P `  . . . . .| | _ B i f l v.-X%XW p 2 p L m d b s n c p 2 < < x K b N m b p f 3 9 3 p G s b m : M.&X;XuXA.s g k.",
"s f b G s N k.Y | | | | | | | | ! B u 8 R -X`.2XF.y 3 m I e s r e 8 8 9 3 2 2 2 8 p M I K 9 , q p q s K I k.n 6 > ' OXF.T f K p ",
", 4 d I g k.d T _ | } _ | _ _ } ~ j 0 : H -X2XrXF.y s K m p Q w.r.Q 6 b M u 1 p f 9 G m q , q s q m f a l n p 9 5 h U h h G f 9 ",
", b P z l l e C ! } } _ } } } ! T s 8 : 7 ` @X%XT 8 e l b V.>.h.h.d.8.k.k.Y q > 3 9 q n q q 9 s s b 3 a w r p 9 e e s f s s q 8 ",
"q b K d s z f e k ! ) ) ! ! ~ j G b q q w 5 T t e s t z z $.#.=.-.#.4.a x.F.8.Q G 2 v s 9 q e r s s s b 8 s c q e e f r d a p q ",
"p s f K K m p > 5 j h k & & 7 f s b v s 8 8 f > e e G G N.@.W.C.H.Y.3.Q R *X2XA.t , s s s q x v f s r a q 8 b f y 8 f s d p 8 9 ",
"p d s I U d a q 5 y > $ 5 5 5 y s m p s 8 q L n r s c.&.@.[.0X7.7.|._.@.r.D.S.) 8 8 8 0 d s 9 r s K r b s , e 9 2 3 s d i i i f ",
"p M d K g l K m s e y 8 y e l l l d s d 8 w q n H e.-.g.8XE.$.Z Z 4._.|.s.;.e.B f b r 9 q m s f s I b r s b q q c s r W b.b.L m ",
"K m m d 4 i a q a d f e d f f z s 9 8 d p q 9 Q ,.-.'.dXG.o.A ; V Z 6.Z.1XT.=.f.] m m 8 r b e s s s b p q s a p b G 1 c.fX&XY a ",
"K f k.g c.c.d y s s 6 8 e e f z n p 8 f g Q g.:.r.<X].4.D - / [ [ ^ V $.e.].].w.*.s.Q 2 b c 0 d v e s b 8 6 s s 8 s q W D.n.z i ",
"s r g c.-X-XA.q 8 r 9 q 9 f d s s f q f 8.>.=.Y._.H.$.A V ( A.9.u.A./ V A 6.J.J.r.=.;.8.b K s m v d q e 9 q q w e n b b h l d l ",
"z b i v.*X3X&Xe 0 q f p s b m s p f q e 7.@.W.{.t.D - V u.S.9.Z Z 9.S.[ V A D e.|.E.+.8.r e 8 a G N m s f m s f e v m s 4 d K f ",
"m s r 7 { D.' 6 m c 0 c b q c p q m J 7.w._.!.e.D = / p.S.[ A A S A [ p.p.V = $.V./.].w.7.J 4 i M s m a s b P m s c N c 9 r e f ",
"p 9 w : 6 B > , b c c m m 8 9 a 3 %.-.r.].R.6.A ; [ S.p.D D ( D D 5.$.( A.S.[ ; D e.W.<Xr.-.8.p m 0 d m I b f s p m M p 6 2 9 8 ",
"b f q s b > 0 2 b M c s r q 9 W r.-.W.].V.7.Z V p.+Xu.A F S S X.F S S F A u.S.u.V A 6.C.<XW.-.r.x.3 t m I v r q b b p d n p q n ",
"b 6 s 0 b q 9 9 b I N s 9 m 8.;.@.J.E.7.o.- / +X+X9.S O.+.#.+.3.3.#.X.X.S A 9.S.S./ Z 6.V.[.J.s.:.8.x v r w q q s G G b I K r b ",
"q 8 9 q e d 9 , 8 n K q Q s.*.g.|.C.D Z V u.$X+Xq.q.X.+.=.=.j.2X2Xy.+.#.X.O.$.5.S.S.[ C D 4.!.pXY.*.s.Q r q r r H z b L I K 9 8 ",
"8 s s b s d r 8 q q G e.>.=.W.|.V.4.- V S.$Xp.4.t.0.3.:.=.iX+X0.0.K.j.=.+.O.q.$.D p.@Xp.V A 7.R.0XT.=.>.y.l.H ! _ R G d L m p q ",
"q q b z c s 9 r q e G w.s.}.}.0.D - [ @X@Xi.o.$.C.C.&.,.;.y.P.lXvXp.w.=.=.3.G.e.$.$.0.@X+X( Z 4.t._.E.@.w.) _ } |  .| E g l y 4 ",
"r q M z 9 s 2 8 9 J 6.r.'.T.4.F V u.#X+Xq.6.e.6.T.E.w.;.h.=.#XcXvXiX=.;.=.y.J.V.$.7.%.5.+X@Xu.Z o.e.Y._.y.a.| |  . .oX .) z s i ",
"m q m I f p q , ] -.r.'.H.$.Z ^ S.$XS.7.V.t.e.e.R.Q.C.w.;.h.@.@.3.-.>.;.r.W.W.Z.7.e.7.$.5.p.@XS.^ D 8.J.E.w.s.+Xm.oXOXoX_ h i d ",
"a b m K I q J t.-.'.9X0.( Z [ @X@Xi.6.C.R.Y.C.t.Y.E.).E.w.&.&.@.+.w.w.g.].[./.W.t.Z.V.7.6.4.i.+XK.[ A 4.V.,XT.=.a.OXoXoX_ h f z ",
"b 8 e a G ] =.-.|.1XG.i.9.[ @X+Xq.t.H.C.R.W.T.r.R.E.E.(.].,X4X3X3XgX1XXX).).|./.V./.R.Z.t.e.4.5.K.+X[ 5.L.L.[._.-.f.+X .` G 3 , ",
"p , 0 W r.:.g.8X].G.K.S.p.+XS.6.t.R.W.R.T.T.Q.C.W.E.Q.yXbXBXCXmXBXCXZXmXxX|.|.].Z.].[./.C.e.t.7.( S.S.S.P.#XL.].'.-.>.a.R b q 2 ",
"9 9 ] ,.;.Y.0X`.K.K.K.S.S.$X#Xe.Z.W.].R.T.T.'.C.Y.'.lXBXMXrXS.[ [ D.rXBXZXlX.X).W.|.|./.J.C.V.t.5.@XK.@X@X@X#X#X`.|.g.:.>.Q 6 9 ",
"8 q B.*.y.<XH.S.K.K.+X+X+X;XrXG.R.).{.(.W.W.Q.C.R.zXZXyXV + X X X X @ / hXVXzX]./.[.[.(.(.R.T.C.5.$X+X$X$X$X@X*X;X,X}.7.:.B.q q ",
"f 8 w J Y x.x.J W W E W E &XjXH.(.[..X[.W.Q. XC.yXVXuX%   O + O @ @ + X = yXCXgXW.|.(./.[.E.W.R.t.2XF.J Y Y J T J W J Y z.b p s ",
"> 9 r 9 9 m P v K I U G x @XcXL.). X.X[.Q.W.Q.!.ZXhX@   O O @ @ + @ @ @ X ; NXMX,XXX.X).[.'.).E.G.hXF.q n M p q m 4 < p n q p r ",
"n p q n s p m b s L z z s U.NXP.'.{..X}.Q.Q.W.yXCXu.. O o o @ + @ # # # @   S.CXkXXX{.{.|.|.|./.P.lXA.0 e s q f i W A.Y : 8 q e ",
"m s s b s p n f d s i a a F.MX>X[.|.5X XQ. XQ.nXNX=   + + + @ @ @ # # # # O V BXmX|..X.X.X.X.XE.>XvXb.p 0 q s 8 h F.3XI.G 3 r b ",
"G G b I b q 9 f q 8 9 q n b.MX3X(.5X0X.X~.Q.~.BXyX+ X + + @ @ + % % % % % O = lXMX0X6X.X6X0X0XE.2XnXc.9 e s 8 > B D.yXD.H i b d ",
"v m L I K n 8 f i r r q v c.ZXtX(.6X0X.X~.~.,XNXrX@ O + + + @ % @ % % % % O % yXzX8X{.{.XX9XdX'.yXnXx.d a a f 8 w { A.) e m K r ",
"s L K I b m q p a s q z i W MXhX(.6X0X.X{.}.,XNXyX@ O + @ @ @ % % % % % % @ % hXmXdX9X.X0X0X0XQ.hXNXY L f q b s 8 : e i m k.G e ",
"G d a M b G G m q 0 6 q q B NXhXE.7X9X7X7X5X5XMXvX% o + @ % % % % % % % % o ; NXmXdX9XXXdX0X0XW.hXjXd p r 8 8 d f f g k.I I z f ",
"b 0 p d G l v d 8 s d q q r cXlXW.7X9X0X9X7X,XnXlX% o @ @ % % % % % % % # @ ; mXbX8X6X6X9X0XeXW.vXfXb q m s , f q v L z m z s f ",
"f f d b l.d q 0 8 p m b w q fXbX!.0XaX8X7X9X XnXvX= o @ % % % % % % % % # o V mXzX.X}.0XeX7X9X!.mX-Xl f s L e 9 9 v s h s b q 9 ",
"b r d d K v p 9 e 6 3 9 s G -XmX!.5X9X0X7X9X XbXmX; o @ @ % % @ % % % % # o V MXzX}. X7X7X5X X>XMX%Xs e 2 b s 9 s n s d b n 9 n ",
"b , r 0 f f s q r q q f L L &XMX!..X9X9X7X9X XbXnX; o @ @ % % @ % % % % # o ^ ZXlX6X X8X7X5X X>XZXI.s q p n w r p 3 s s K b p m ",
"r 9 9 9 c b m L K d p q q s A.BX>X X9XqX7XwX5XbXBXV X @ @ @ # @ @ % % # @ O / VXkX}. X9X9X7X X>XZXb.G q 2 L K K s s b f L G w 9 ",
"q r e q p N m m L d d q s a b.BX>X}.9X9X5XwX5XlXVXV X @ o o @ o O O @ @ O   / CXkXQ.7XeX9X7X X2XZXc.r 8 q b b m l s b b K K q 8 ",
"s 8 q s 9 2 q p s a b s b 9 Q ZX2X XeX9X5X7X XkXVX^ X o O O o o O O O O O . ( CXkXQ.eXeXqXwX}.2XCXW p f m a d n p p 3 3 s f 2 4 ",
"b q n p c 2 p m f G T K n a ] MX4X~.eXeX5XeX}.yXCX( @ * * = - - - = - * # + [ CXkX'.7XeXwXwX}.tXMXY m p b M L K c c 2 9 d s q q ",
"I s b m m r e : W %XfX%XH f x.BXyX~.eXwX7X7X~.gXMXa.5.q.q.0.t.i.0.0.q.0.q.( S.CXkXeX9XwXaXaX~.yXzXm 2 m v U s n b d 9 2 q p s s ",
"b L N m s n 0 1 n.3X>XrXm.f l.nXhX}.wXsX9X5X XgXNXnXCXVXZXBXZXZXVXZXVXZXZXVXmXcXkXwX9XwXaXwX~.lXjXa J r q f r G d q q 2 3 n r G ",
"s P k.m L d y 1 I.3XJ.;Xm.l z cXhX}.aXsXeX5X X,XhXbXvXvXzXbXbXbXbXbXbXbXbXbXbXhXqXaXeXwXsXwX!.mXfXI.-XU.x q I q 0 e q n d d K I ",
"e s b q f I b 1 ` =X:XI.H i d fXvX!.1X8X,X,X~.~.H.!.!.^.>X,X,X!.!.`.>X,X,X,X|.L.,X7X,X1XqX,X!.mXfX*XY.;X] , b p f q r K K s s e ",
"f d g P l G m 9 5 t R j 5 G K fXbXnXMXMXMXMXMXMXMXMXMXMXMXMXBXBXMXMXMXBXBXBXBXBXMXMXMXMXBXBXmXvX&X*XG.;X' 6 8 a q r l s r p a 9 ",
"2 q m U z m 3 2 s 1 $ : e b F.#X2XtXtXtXtXtXtXtXtXtXtXtXtXtXtXrXtXtXtXtXtXtXtXtXtXtXtXtXtXtXtX2XS.] D.] l w 8 b q 2 r s d d a 9 ",
"9 p n U K K s r q K s s c s L.:.,.,.;.d.,.d.,.-.d.d.d.d.h.d.d.;.,.d.h.d.d.d.d.h.=.d.h.d.,.d.d.f.>.8.e s s 6 8 b e 9 e l z b 9 f ",
"d N L s v r s q , n q w b b V.>.h.1.h.<.<.<.f.;.h.h.h.h.h.h.h.,.,.h.h.h.1.1.h.1.-.d.<.<.1.h.h.h.>.c.0 f 8 9 d f q s d l s v n s ",
"a w K b b L z e q q n K K L K d z K b 3 8 q l B k k j w t I s 6 0 a p f m k.K e p 9 c b 8 e r d z L P r q q e s q 8 1 4 M k.a 0 ",
"g 8 a M G L P s 8 8 b b K b b p 9 l q p e s K 5 & 5 5 a d b U s f > q a i m G s a s L K q p s n a b P 9 2 8 9 v L p r K I M c 0 ",
"z s a I a p b r q p q s q u m n s G p b d s k.K y e 8 c P b I U n , q i g a i s b G G s M d d n p s s e , p r b m a b.*XB.G p f ",
"d K m p 3 p c n m L q r p 3 3 9 b L K G b d k.P s s a b m d b b L b p ' %XI.W i G L K s K g f p n 3 b G q r d d a p D.gXF.G i I ",
"s b K 0 p c c m m G s q b q < 3 c b G z s s G s z K d s c q s N k.i E %X3X3XF.f q s s z b b q s 3 3 c b s e G z s 2 W A.) e f K ",
"s r s n m s m k.b r d 9 e r 3 n d s G I K b 6 e g I a f d 8 q L k.0 T @X`.3X%XK p q 0 s q s 4 G n 3 c w d 9 8 s z q 9 0 0 y w s ",
"b G G b m d n L b 8 8 3 9 z d d s e d G b b 8 e K I L b s 9 2 b a y 5 v.=X=X{ a m p q 9 6 r q s v m m r q 8 2 e I G p p c r q q ",
"b m s G K s 0 q v 9 q 9 f K v f q 3 q 6 9 n 9 e r G s K s f q s q 0 : 7 ` ` 5 y n f r r r q l s s I I b 2 q f 9 G L m b m K b q "
};
