/* XPM */
static char *result[] = {
/* columns rows colors chars-per-pixel */
"64 64 243 2 ",
"   c #1C1A1A",
".  c #211A19",
"X  c #253514",
"o  c #2A2926",
"O  c #32382F",
"+  c #192021",
"@  c #433B32",
"#  c #2D4B0D",
"$  c #2B4806",
"%  c #334D0D",
"&  c #314906",
"*  c #2B520C",
"=  c #35530E",
"-  c #395B0E",
";  c #36590D",
":  c #2D4913",
">  c #334E12",
",  c #324A1B",
"<  c #36491D",
"1  c #355413",
"2  c #395614",
"3  c #365A14",
"4  c #395C14",
"5  c #365619",
"6  c #365B1A",
"7  c #3A5D1A",
"8  c #39551D",
"9  c #2F5113",
"0  c #356214",
"q  c #3C6315",
"w  c #3E6A16",
"e  c #3C631B",
"r  c #3E6A1B",
"t  c #37641A",
"y  c #3C6913",
"u  c #394A27",
"i  c #3C5B23",
"p  c #3B5524",
"a  c #3B4A3B",
"s  c #3F5334",
"d  c #3D6422",
"f  c #3E6B21",
"g  c #406417",
"h  c #416C17",
"j  c #40661B",
"k  c #416C1C",
"l  c #44731D",
"z  c #467A1D",
"x  c #48771D",
"c  c #44582A",
"v  c #475A36",
"b  c #4C4E32",
"n  c #426424",
"m  c #426D22",
"M  c #47662B",
"N  c #457422",
"B  c #487622",
"V  c #467921",
"C  c #4A7C23",
"Z  c #48762A",
"A  c #496736",
"S  c #53673D",
"D  c #4D7333",
"F  c #557538",
"G  c #507D2E",
"H  c #3E4C47",
"J  c #484A46",
"K  c #4B5443",
"L  c #495648",
"P  c #52554A",
"I  c #555A4D",
"U  c #585B4A",
"Y  c #495A55",
"T  c #595D52",
"R  c #5B5B5C",
"E  c #555752",
"W  c #4E6646",
"Q  c #566948",
"!  c #577547",
"~  c #4C6459",
"^  c #5C6255",
"/  c #5D635A",
"(  c #5B6A57",
")  c #597355",
"_  c #64734A",
"`  c #61655C",
"'  c #636A5D",
"]  c #676958",
"[  c #667658",
"{  c #636E48",
"}  c #5E5D61",
"|  c #586A64",
" . c #5C7772",
".. c #626462",
"X. c #656D63",
"o. c #696D63",
"O. c #696B69",
"+. c #6A7265",
"@. c #63726A",
"#. c #6B746A",
"$. c #6A7867",
"%. c #747C6C",
"&. c #797D6C",
"*. c #757964",
"=. c #6A7A76",
"-. c #737C74",
";. c #747A76",
":. c #706F6F",
">. c #625E4A",
",. c #4D8325",
"<. c #5E8552",
"1. c #698A48",
"2. c #768457",
"3. c #6E8956",
"4. c #6B8469",
"5. c #7B876B",
"6. c #768273",
"7. c #7C8374",
"8. c #76837C",
"9. c #7D857B",
"0. c #7C8A7A",
"q. c #748F74",
"w. c #828A6E",
"e. c #808575",
"r. c #838B7C",
"t. c #848A78",
"y. c #889579",
"u. c #979877",
"i. c #8B9269",
"p. c #808E5C",
"a. c #C6A163",
"s. c #757E89",
"d. c #6B8389",
"f. c #7B8B85",
"g. c #778987",
"h. c #7C9686",
"j. c #738C93",
"k. c #7D9394",
"l. c #78959D",
"z. c #6D8D97",
"x. c #7C9CA6",
"c. c #7FA2A2",
"v. c #858D84",
"b. c #858886",
"n. c #8B9483",
"m. c #8B948B",
"M. c #879586",
"N. c #909B8D",
"B. c #979A85",
"V. c #829594",
"C. c #8C9C92",
"Z. c #859A9D",
"A. c #8B9D9B",
"S. c #899895",
"D. c #929D94",
"F. c #929A9B",
"G. c #888B90",
"H. c #A19988",
"J. c #8BA398",
"K. c #93A29D",
"L. c #91A99C",
"P. c #90A389",
"I. c #A6AA8A",
"U. c #B9B392",
"Y. c #B3AA8E",
"T. c #879DA4",
"R. c #939CA4",
"E. c #8CA5AC",
"W. c #88A4A8",
"Q. c #92A4A5",
"!. c #9BAAA4",
"~. c #9CACAA",
"^. c #94A7A9",
"/. c #8DABB3",
"(. c #87ACB7",
"). c #93ACB3",
"_. c #96ABB1",
"`. c #9CB4BA",
"'. c #98B4B9",
"]. c #97B1AC",
"[. c #A3B5AF",
"{. c #A3B3B3",
"}. c #A4BABC",
"|. c #AABBBB",
" X c #A6B8B7",
".X c #B2BDBC",
"XX c #A9AEAD",
"oX c #CAB89A",
"OX c #CAAD8E",
"+X c #C8B8A8",
"@X c #ABC2BD",
"#X c #D1C4B2",
"$X c #9DBCC4",
"%X c #97B9C4",
"&X c #A3BDC3",
"*X c #ACBEC1",
"=X c #A4BFC8",
"-X c #B1BFC0",
";X c #9DC3CE",
":X c #ACC2C4",
">X c #A6C3CB",
",X c #ABC4CB",
"<X c #A6C3C7",
"1X c #B2C4C4",
"2X c #B2C6C9",
"3X c #B4CACD",
"4X c #BBCBCC",
"5X c #B6C8C6",
"6X c #A9CAD2",
"7X c #B3CCD2",
"8X c #BBCED3",
"9X c #BCD1D4",
"0X c #B5D2DA",
"qX c #BCD4DA",
"wX c #BCD7DC",
"eX c #B7D1D5",
"rX c #BCDBE2",
"tX c #B3D7E1",
"yX c #C2CFCF",
"uX c #C2D4D5",
"iX c #C2D6DA",
"pX c #C5D9DC",
"aX c #CADBDD",
"sX c #C5D9D8",
"dX c #C4DCE2",
"fX c #CCDEE2",
"gX c #D0DFE1",
"hX c #CDE1E5",
"jX c #CBE4EB",
"kX c #C7E2E8",
"lX c #D2E2E6",
"zX c #D4E6E9",
"xX c #D8E7EA",
"cX c #D5E9ED",
"vX c #DCEAED",
"bX c #D2ECF2",
"nX c #DDEEF1",
"mX c #DEF0F4",
"MX c #D9F3F9",
"NX c #E1EEF1",
"BX c #E3F1F4",
"VX c #E5FAFC",
"CX c #CBE1DF",
/* pixels */
"m 3 r r m f 7 w 7 5 r 4 % 4 k z ,.N 4 7 k e q l B i N r t 6 : t t 6 9 f f t f t 1 e B j 4 = q e Z B 7 e q 7 5 q 4 3 N B N l q 3 ",
"7 = m m N e t q k 2 = 4 0 e k l k q q 2 t r w 3 N e e i H ~ | Y H H ~ H p t D f r 2 1 % 3 7 q e k V k t w q = % 1 1 B C d 1 - 4 ",
"e 3 7 q e 7 4 1 x k g 4 5 m C e 5 % 1 3 % 4 e 3 f N A ~ s.z.(.x.x.x.(.x.d.~ a t r t 1 3 3 6 r e r k q t 1 k l q 4 1 3 w r q q 4 ",
"1 7 e l q t r l ,.x - q 7 N C w e q 7 4 7 7 3 5 7 s  .z.x.x.%X%X;X;X6X6X;X;Xz.~ , 1 1 d B r 3 7 N k 5 4 7 V e q 3 i 3.1.m 3 4 7 ",
"e r e l h z k x C S ) +.$.1.1.D q = 4 j q q e 6 s =.l.l.c.(.(.'.;X>X>X6X6XtX6X%X4.p 5 f l k w h - = 7 7 x q e ,.1.I.yX#X[ = 7 e ",
"j m e 7 z z N w Q ;.b.b.b.5.4.[ D i t l k e A L =.d.l.l.W./.'.'.$X<X>X6X6XtXtXtXtXc.A Z g q k 4 & 2 e z l h g w q.OXa.oXB.M 0 k ",
"k e e e = g V V [ :.;.;.:.:.#.O.( c 0 e 7 Q / @.8.z.k.x.W.(.'.$X<X<X>X6X6X0X0XwXrXrX%X! k q q = - ; g k k k l # F Y.OXU.w.7 z ,.",
"e q k m w z ,.G ' O.O.O.X.O...O.R c w 1 b T / @.d.z.l.l.(.'.$X;X;X'.,X6X7X0X0XrXwXrXtX0X! 1 = 4 e 2 e N C C j # $ _ B.i.A t N q ",
"% ; k C N ,.r v / ` ......` } } E p 4 u I ^ | @.=.g.j.x.T.'.$X&X<X<X<X6X7XqXqXdXdXdXrXrX(.u 4 e 7 l q k d j g 2 : i Z i 6 m t 5 ",
"> e V f e d 0 v E } / / | R R E v 6 u P ^ | #.=.=.g.g.k.E.).`.$X`.<X>X3X0XqXqXdXdXdXkXrXtX! 5 t w r ; w 1 4 q 1 3 6 t t e j 4 1 ",
"2 l N r e f t 5 b J Q ~ E K J v n c I T ^ X.=.=.g.l.l.T./.'.$X&X&X>X7X3X8XqXiXdXfXfXkXjXjX/.p e t e q r 1 e k 4 3 6 7 7 j k 4 4 ",
"q q q N N l q & : p i u u O < 4 i ^ ^ T / +.#.=.g.T.T.T./.'.&X=X>X3X6X7X0XqXiXdXfXkXfXhXjXkXc e 7 t 7 w 7 1 r q 9 3 t e e q ; 4 ",
"q w e C N f w 4 9 * X X : : : , v ' / / / o.#.8.g.k.l.T.^.$X=X>X,X,X7XeXqXqXiXdXkXjXhXjXcXbX) d j N 7 k e % 6 7 % ; g e 0 y q q ",
"w l r N N e V l e 3 3 1 1 6 e p ' / / ' ( X.@.-.g.k.k.S.W.$X>X,X,X,X7X0XqXdXdXfXfXfXfXzXcXbX].) m B k 7 e k 4 2 k j 4 G 3.3.C l ",
"N l N r 0 0 w 4 w w e 7 j j 6 v ' / ' ' +.+.#.-.f.f.V.T.W.`.=X,X,X,X8X8XqXdXdXfXfXfXkXjXjXzXbX`.! e k q 4 e q q k m * 3.#XI.G w ",
"N q ,.r _ 1.r 1 e t > 1 4 5 i L ( / ..X.X.+.#.-.g.f.V.S.R.'.=X,X=X,X3X8XiXdXpXdXfXjXlXzXcXzXcXdXQ.A e k 1 1 q e 1 j 3 F u.2.m 0 ",
"d 7 k 1.U.OXp.6 3 4 3 5 5 q n P ..X.X.X.$.+.$.%.8.8.f.Z.A.^.}.&X*X=X8X=XiXdXfXfXfXlXlXlXlXcXzXzXqXh.i 6 2 4 7 5 4 w k j i d f e ",
"f r t 3.U.oXI.p 3 q t e q k n P X.$.+.X.+.+.+.o.#.-.8.f.S.W.^.`.*X-X=X8XiXdXfXfXlXlXzXzXzXzXcXzXkX:X<.e 7 l w 7 7 e l w 1 w C t ",
"l e q , [ u._ : l g = l k 4 n K X.#.#.+.+.o.o.o.o.%.-.8.k.Z.^.`.=X*X8XiXdXfXfXfXlXlXzXzXzXzXxXlXcX3X4.k e k V x t h x w 2 7 6 6 ",
"q 3 1 # < i $ % g k h l l 1 8 U X.#.+.#.+.o.] o.X.o.#.=.f.Z.Q._.&X*X=XiXdXhXfXfXfXlXzXzXxXzXxXlXcXiXh.k V m q e e l x q > ; 1 1 ",
"r q 7 e h & = = g z l e 7 3 u ^ o.#.#.+.+.' ' ` ' X.o.+.8.V.E._.$X*X8XiXiXfXfXfXfXxXzXzXxXxXxXxXcXjX}.m ,.e 7 4 j k j w j q 4 g ",
"r % e 5 k g 2 2 k C z q 1 w c ..#.#.+.' ' ` ` T ^ / X.=.g.k.T._.&X*X-XqXpXfXlXlXlXxXxXxXxXxXxXxXcXcX9XA d 5 7 4 e m m k C l 7 l ",
"7 5 4 4 7 r 2 % % k N 4 3 7 c o.#.+.o.` T T U U I / | =.g.k.A.'.=X-XqXdXdXfXlXlXlXxXxXNXvXvXxXxXxXcXiXQ 7 7 3 7 M r k B C k 5 1 ",
"2 t e w e r 7 1 q 2 e = 3 3 u ' +.| R T T T T P P E @.8.g.k.Q.'.=X=X8XiXdXfXlXzXxXxXvXvXvXNXvXvXxXnXpX) 5 V A P ( S m k V l q 4 ",
"4 q r r g k 5 e 2 7 r e q l v #.` T T I P E E I L K ^ =.g.V.Q.}.-X8XyXiXdXfXzXxXvXNXNXvXNXNXvXxXcXzXkXP.M S / ..O.:.' D k q % = ",
"4 4 V m 2 e = > 2 e e e e 7 v o.T I E I P P L L L L / g.V.Z.].2X=X0XaXdXfXlXzXnXNXNXNXNXNXvXNXvXcXzXaXM.Q R ..O.:.f.b.*.Q k g 7 ",
"l 7 l C q 7 7 # d w = % r M P T P P P I P L a L | | =.Z.Q.A.^.*XuXiXfXlXlXlXzXvXNXNXBXBXNXBXNXvXvXxXfXV.R | o.:.-.r.m.b./ 8 0 r ",
"g w l N V 4 t 4 r 4 2 e B S I U P P P P P v L @.6.8.M.^.Q.Q.D.~.8XlXfXlXlXlXxXxXNXBXBXBXBXBXNXvXxXxXlX{.R ..#.;.b.b.G.b.( i q m ",
"k 1 7 k m 7 e r h q , d v >.` ` ^ T T T U P / #.6.8.V.^.D.K.K.~.8XzXlXxXfXlXxXxXNXNXBXBXNXNXNXvXvXvXxXuX+.S [ %.;.b.r.;.Q k ; = ",
"q = 5 k m k q > 7 V % Q o.+.$.$.%.+.o...` ' o.%.-.9.S.^.K.K.{.4XfXzXxXxXfXlXxXNXBXBXNXNXBXNXNXvXvXvXxXsXJ.D A I ] *.[ ! A j 2 = ",
"2 5 k C d 7 l e V x 7 ] %.6.6.6.7.7.%.%.*.-.r.f.f.S.~.!.!.~.1XfXxXxXxXlXfXfXlXNXBXNXNXNXNXNXNXNXNXvXxXqX{.) > X , 6 N r q 4 1 ; ",
"% 7 t B C w t k m j c %.7.6.-.7.7.9.7.%.%.-.r.v.M.A.[. X~.|.3XsXxXBXNXlXaXfXlXxXNXBXBXBXBXBXNXNXNXvXxXCX:XA 1 # # > q h l m 4 2 ",
"q 5 5 7 l l l g f m 7 ' %.*.&.e.t.t.e.7.*.-.r.v.m.D.~. X}.4XaXzXnXNXBXzXaXaXlXNXNXBXBXBXBXBXNXvXvXvXxXgX@X! e 3 4 q - h ,.k q t ",
"& 3 7 2 ; l x j N C N [ 7.&.e.y.n.t.e.7.&.r.v.v.m.D.!. X{.1XaXnXNXNXNXxXiXaXlXxXNXNXBXBXBXBXNXNXvXNXxXxX[.F q q f ; $ q q q q 7 ",
"q q 4 e e g x r e V e $.r.y.y.y.n.r.e.&.e.m.N.m.D. X:X|.|.|.yXcXNXnXnXzXiXyXgXxXNXNXNXNXNXNXNXNXNXNXxXlX4X! 6 q 0 F i.G # = 2 7 ",
"l q e k e q t q w e 5 *.n.n.n.n.B.r.7.&.r.m.D.N.D. X3X1X4X4X8XlXnXNXzXfXyXyXfXxXvXvXxXvXNXNXNXNXNXvXxXlXfX4.d 1 7 i.oXu.m 4 e w ",
"k m k C k 7 5 t 7 = 5 c 5.B.N.N.n.t.e.&.e.b.n.N.P.~.1X9XiXsXpXsXlXxXxXyXyXyXaXlXxXxXvXNXBXBXNXNXvXvXvXlXlXK.i # c H.#Xu.M 0 l r ",
"j N N C l g 1 q 7 7 7 2 b 5.n.n.v.e.e.e.e.e.r.m.F.!.|.9XsXhXfXaXiXaXuXyX4XaXxXgXlXxXvXNXNXNXvXvXvXvXxXlXlX8XA 5 1 { w.S 4 f m t ",
"j l l ,.k l 7 q w q 4 w 4 b ] e.v.9.9.&.7.e.r.n.N.P.K..X8XaXxXxXuX4X.X.XyXgXxXgXlXxXvXNXNXNXNXvXvXxXxXzXlXqX[ e 1 % t 0 l ,.k 7 ",
"m w r V k m k l 7 3 > 7 - = c ] f.v.e.9.e.&.e.e.r.n.D.K.|.9XpXxXxXyXXX-XaXgXlXgXgXxXvXNXNXNXNXNXNXvXvXlXhX9Xq.d e q f C C C f e ",
"k 6 e e N e m j 1 t w 7 2 4 8 ] M.0.7.7.7.7.&.*.] >.o.N.XX.X3XsXfXlXyX8XfXlXgXfXgXxXxXxXxXNXNXvXvXxXxXlXlX8X`.) 4 j B m N m e t ",
"q 6 r k ,.d 4 ; = q l k 1 7 c ] 0.0.7.7.7.7.*.*.>.o O &.[.@X1X8XyX8X-XiXfXxXlXgXgXlXxXvXvXxXNXNXvXxXxXhXzXuX`.( 4 e e i e w 4 2 ",
"r 0 r r N e q 4 7 = = 7 7 m M [ 0.0.7.7.7.&.*.*.U . + :.!.|.1X3X-X*X-X8XfXxXlXgXgXxXxXvXNXNXNXNXNXvXxXzXhXeX'.) e g j e k j 2 g ",
"k % 7 4 q 7 e 7 t 7 2 q V B r S r.t.7.7.7.e.&.*.U O o ;.D.~.:X9X-XXX-X4XiXfXlXgXgXxXxXvXxXNXNXxXNXvXzXhX9X:Xh.A q ; q e m k q l ",
"7 5 2 2 r l k V V k 7 2 4 4 7 b r.5.7.0.e.e.&.&.] @ o } -.S. X8X-X*X-XiXpXaXfXgXxXxXvXvXNXvXNXNXvXvXvXlXL.) F Z e f l e B m 5 1 ",
"2 e 3 4 q x k x N f w 7 j k 2 Q t.7.7.0.e.&.&.&.] b @ b ` r.F. X*X-X8XfXaXaXfXlXxXxXvXvXNXvXvXNXNXvXvXcXq.w k N d e w g V N 7 = ",
"g 3 7 q 2 = q q t w r g j 4 p 5.y.t.t.t.0.7.&.;.] ^ P T ] b.b.m.XX*X-XiXfXfXaXlXxXvXNXvXNXNXvXxXmXnXvXcXP.e w k q q - - e t = ; ",
"l 2 q 4 k = q l q n D N g g i 5.M.n.n.r.M.m.v.*.X.+.O.-.-.b.b.b.G.XX=X8XiXiXdXlXxXvXNXNXvXvXNXNXmXnXnXcXC.Z V k l g % ; k e 7 4 ",
"C e k l l 7 4 * D I.@XI.M q M %.q.y.y.P.J.K.C.f.k.T.g.f.G.s.m.F.K.R.T.:XeXpXdXzXcXvXNXBXBXBXnXnXcXnXnXzX,X! e e k e = ; 4 q e r ",
"w V x l e j 3 # 5.oXa.+Xw.e i [ 5.w.y.u.P.K.Q.W.E.E.Z.T.G.G.XX-X|.Z.=.=XqXiXpXzXvXnXBXmXBXBXmXmXmXnXmXjX0X) i N g 7 7 = - g 7 m ",
"e C ,.V V w 1 * y.oXa.OXw.d 7 Q q.i.w.u.M.J.].).E.E./.E.G.XX3X9X8X}.!.1X3X4XsXzXnXmXBXBXmXmXmXBXnXjXbXbXrX<.G 4 4 6 7 e w r B Z ",
"6 7 k 4 7 C k * F U.XXB.M 3 j M [ y.5.t.y.C.J.^.E.T.^.R.F.*XiXiXiX8XyX@X5X4XsXhXvXnXmXBXnXmXnXmXnXbXbXnXjXg.D e e 3 q l f e q 6 ",
"t e f V f m x 2 : 8 S 8 # m l e i ) [ ` q.0.g.k.E.x.R.F.~.-XiXdXfXpX9X4X4XuXCXcXcXnXNXBXmXBXvXvXnXmXmXjXrXk.M w 7 7 e e t e h 3 ",
"= q N N m k - = e = X # 7 k d 6 e e Q K $.$.|  .d.T.R.R.*XiXdXfXbXxXhXsXuXsXhXzXcXnXmXmXmXvXzXcXnXmXnXwX<X4.i f 2 1 7 e r r q - ",
"1 g k Z C l e 7 4 N e e k e 7 d 6 4 v [ 4.$.L O Y s.R.&X-X8XdXlXcXmXvXhXCXCXzXcXnXnXmXmXcXhXhXcXcXcXjXeXq.W p r 7 3 6 d f k 4 4 ",
"q x V e e 6 t 4 1 q 4 7 e r f e t w p K %./ . . J :.F.*X-XiXuXiXzXnXmXnXzXzXcXnXmXnXcXjXwXqXsXhXcXdX6X<Xs 6 f t 4 q r d e j j e ",
"w 3 l k k N f 6 2 4 j B B N k r r N e > [ Y .   O ~ R.3X9XsXCXzXzXnXmXbXnXcXnXnXMXbX0X6X7X3XpXjXjXwXV.4.7 2 7 e q = % - z ,.k 2 ",
"r 1 k V m V B e 1 1 k k N k l q 4 i 4 2 K J o . H s.W./.3X9XCXnXnXnXbXmXbXcXmXMXkXJ.) <.W 4.`.6Xh.A Z n = 1 2 k B t 4 x z z h ; ",
"f e w z k q l 7 4 q q q q - l g 7 N e k v T a . H s.z.W.7X3XuXhXzXzXcXmXjXbXMXMXq.d m e f Z Z F Z t d 3 % q t j h w 2.U.2.N q q ",
"f N l q ; q k q l B 2 7 q - - 2 k V N r d c K a J s./.@X,X@X5XqXCXzXcXmXMXkXP.! n Z m e ,.r t 0 q 4 k k 7 4 e r h q u.#Xu.d 0 C ",
"e m N 2 q h h x l N e 7 k q & = g l m f e e M v | d.k.y.h.L.[.3XhXcXMXMXVX3X5.e 4 e e r m k 4 q - ; h k d 6 f f q = F 5.S 6 e Z ",
"q 7 e g l q x z k 7 w - 7 7 - w k e m C B r 1 6 W  .A d M W h.@XsXbXbXcXwXB.B.N w 4 3 e 4 g 1 m - g k 2 w 3 2 e m 4 2 3 4 1 5 e ",
"k m k k l m k B j 1 1 = 5 f w r 7 7 f f k k 3 7 f ,.f f d 5 W (.:XwX).f.n.H.[ w l 4 2 5 > 7 t e j x l 7 3 = = 4 C m q q g e 3 7 ",
"k l e m l e 1 4 e 2 3 3 q B d e 4 ; 4 1 2 q 1 6 w f f z e 6 d 4.4.) , < _ ! : 1 j q q 7 7 4 e e e V C k = 7 q 5 m B l l l l r - "
};
