/* XPM */
static char *result[] = {
/* columns rows colors chars-per-pixel */
"64 64 237 2 ",
"   c #253E0D",
".  c #323F22",
"X  c #463A3C",
"o  c #2D4B0D",
"O  c #2C4509",
"+  c #334D0D",
"@  c #314A06",
"#  c #2C520D",
"$  c #2C550B",
"%  c #35540D",
"&  c #365B0E",
"*  c #3A5B0E",
"=  c #39560D",
"-  c #2E4B14",
";  c #2B4413",
":  c #324E12",
">  c #374C1B",
",  c #2E5213",
"<  c #355413",
"1  c #395614",
"2  c #365A14",
"3  c #3A5C14",
"4  c #355619",
"5  c #3B541B",
"6  c #365B19",
"7  c #3A5D1A",
"8  c #39630F",
"9  c #356114",
"0  c #3C6315",
"q  c #3E6A16",
"w  c #3C641B",
"e  c #3E6A1B",
"r  c #37631A",
"t  c #3F711C",
"y  c #394928",
"u  c #3B5422",
"i  c #3C5A22",
"p  c #3D5429",
"a  c #3F4D30",
"s  c #3D6421",
"d  c #3E6A21",
"f  c #425D1D",
"g  c #406517",
"h  c #416B16",
"j  c #40651C",
"k  c #416C1C",
"l  c #44731D",
"z  c #46791D",
"x  c #497C1F",
"c  c #47741C",
"v  c #424E22",
"b  c #435B2C",
"n  c #465C28",
"m  c #475938",
"M  c #525B38",
"N  c #436423",
"B  c #426D21",
"V  c #44602B",
"C  c #49682B",
"Z  c #457422",
"A  c #497623",
"S  c #467923",
"D  c #4A7C23",
"F  c #49752A",
"G  c #52772D",
"H  c #4C6333",
"J  c #4A6836",
"K  c #54653B",
"L  c #4E7433",
"P  c #557437",
"I  c #516B28",
"U  c #63703E",
"Y  c #4C5545",
"T  c #585958",
"R  c #54554C",
"E  c #56654D",
"W  c #576946",
"Q  c #5B7547",
"!  c #5E625D",
"~  c #596A54",
"^  c #5A7454",
"/  c #4E6849",
"(  c #637547",
")  c #626759",
"_  c #697756",
"`  c #737959",
"'  c #69714B",
"]  c #5C5B62",
"[  c #495960",
"{  c #576866",
"}  c #5C7B66",
"|  c #626462",
" . c #666965",
".. c #696C69",
"X. c #6B7668",
"o. c #757968",
"O. c #767875",
"+. c #687B72",
"@. c #4D8225",
"#. c #4B8129",
"$. c #518926",
"%. c #61803E",
"&. c #5F8A42",
"*. c #688949",
"=. c #758659",
"-. c #738C58",
";. c #798568",
":. c #6B867C",
">. c #778678",
",. c #708E6A",
"<. c #858C5A",
"1. c #86886B",
"2. c #878977",
"3. c #8B9877",
"4. c #979677",
"5. c #92936F",
"6. c #AC8060",
"7. c #A6A47D",
"8. c #8BA071",
"9. c #C29C64",
"0. c #C9A872",
"q. c #C19350",
"w. c #5E7481",
"e. c #647B82",
"r. c #748A85",
"t. c #788C87",
"y. c #7A928A",
"u. c #75918D",
"i. c #848584",
"p. c #868C83",
"a. c #8A9489",
"s. c #949585",
"d. c #989989",
"f. c #869997",
"g. c #929A94",
"h. c #A79F8A",
"j. c #B29D8F",
"k. c #9CA384",
"l. c #9AA49A",
"z. c #8DA39C",
"x. c #A7AA8B",
"c. c #B7A987",
"v. c #A3AA9E",
"b. c #ADA792",
"n. c #B8B497",
"m. c #BBA792",
"M. c #9CAAA4",
"N. c #94ACAC",
"B. c #9BADAA",
"V. c #96A8A2",
"C. c #9BB1AF",
"Z. c #97B0AD",
"A. c #96B1B2",
"S. c #9BB4B3",
"D. c #97B7BB",
"F. c #9BB9BA",
"G. c #8CACB1",
"H. c #A4ADA3",
"J. c #AAAEA3",
"K. c #A5B1A7",
"L. c #AAB5AB",
"P. c #A8B4AC",
"I. c #A4B6B3",
"U. c #A5B9B3",
"Y. c #ACBAB3",
"T. c #A5BCBA",
"R. c #AABEBB",
"E. c #ABB7B0",
"W. c #B1BDB5",
"Q. c #B3BDBB",
"!. c #BDB6AA",
"~. c #C8B698",
"^. c #CAAB90",
"/. c #C4B3A4",
"(. c #ADC1BD",
"). c #B3C3BD",
"_. c #B9C4BD",
"`. c #D1C4B2",
"'. c #9BBCC2",
"]. c #86B7C6",
"[. c #A7BEC1",
"{. c #9AC5C6",
"}. c #92C6CD",
"|. c #ADC4C2",
" X c #A3C6CC",
".X c #A7C8C7",
"XX c #B4C5C2",
"oX c #B9C7C1",
"OX c #B3C9C5",
"+X c #BBCAC5",
"@X c #B5CBCA",
"#X c #BDCDCA",
"$X c #BCD1CE",
"%X c #B3D1CF",
"&X c #ABCCD3",
"*X c #A4CBD2",
"=X c #ADD1D7",
"-X c #BDD3D2",
";X c #B2D5DC",
":X c #B9D7D9",
">X c #B1CED2",
",X c #A9DCE7",
"<X c #B4D9E1",
"1X c #BCDDE2",
"2X c #BCE3EA",
"3X c #B6E2EA",
"4X c #B8EAF3",
"5X c #C2CDC6",
"6X c #C1CECA",
"7X c #C9CECE",
"8X c #C3D1CD",
"9X c #C9D4CE",
"0X c #C5D4D2",
"qX c #C9D6D3",
"wX c #C5D9D5",
"eX c #CAD9D5",
"rX c #C4DBDC",
"tX c #CBDCDA",
"yX c #C0D6D8",
"uX c #D1DCD9",
"iX c #CEE0DF",
"pX c #D1E0DE",
"aX c #C3DEE1",
"sX c #CBDFE0",
"dX c #D0DFE0",
"fX c #C6E1E5",
"gX c #CCE3E4",
"hX c #CCE6EA",
"jX c #CBE9EE",
"kX c #C3E6ED",
"lX c #D2E4E4",
"zX c #D2E7E8",
"xX c #D4EAEB",
"cX c #D9EDED",
"vX c #C5EAF1",
"bX c #D8EEF0",
"nX c #CFF4FA",
/* pixels */
"B 2 e e B j 3 e 3 2 e 3 + 3 h x @.Z 3 7 k r 0 Z Z 7 Z B c k : t h 3 0 x c w d w < j Z j r % 0 w Z Z 7 w r 3 1 r 3 1 Z Z Z e 0 2 ",
"7 % B B Z w w r l 1 % 1 r w k l k 0 q 1 r j q 2 Z w w d A g + 3 + 1 3 7 j k S F j 1 % + 2 3 q j N S k 0 e g % + < < Z D d 1 & 0 ",
"w 2 7 0 w 7 3 < A h g 3 < B A w 1 + 1 2 + 3 w 4 q Z A l w 0 3 3 3 7 < : 3 7 7 d l w 1 1 2 4 Z r e k r r % k k g 3 % 2 q q 0 r 3 ",
"< 7 w l r 7 t l @.l 8 r 7 Z D e 0 r 6 7 7 7 3 < w Z Z Z w 7 h r e d 6 < h c q r 2 + < d Z j 2 3 Z k 5 3 r Z j r 2 n *.-.B 1 3 7 ",
"w e 7 A c l l c S Q ) X.X.*.*.L 0 % 0 w 3 q e 0 w q q k c k w w $.A k 7 0 8 = = q 2 4 j c k h h * % 7 3 z 0 w D %.x.`.`.` o 3 w ",
"j B e 3 z l Z q W O.i.i.i.,.+.=.L n r l k e A 1 8 0 * * 7 j e S k 7 k q * @ @ * l l j Z j 3 k * @ * g c k c h q ,.n.0.~.d.C 9 l ",
"k w w w & q l z ^ o.O.O.O.X.....~ n 0 r s =.L.x.P 0 % 0 c l e e e w h j % @ @ 3 Z q z c k 0 0 1 1 = h k e k Z o *.x.^.n.1.w t @.",
"w r h B q x @.L ~ .. ... . .|  .T b 8 < K n.0.^.3.% * l D 3 w 7 4 < + 3 * % : 1 1 3 z @.l < % 1 r 3 r Z D D j o O ( s.2.J r Z 0 ",
"+ 1 k D Z @.q Y | | | | | | | ] R u 3 # n n.^./.3., r Z z w 1 : 7 1 < k z 8 % 0 0 6 Z k 1 o 3 e 3 l r e e j q 1 - i F i i d r 2 ",
"+ h S d w w r b R ] ! { ! T ] R m e < o 4 ' b.d.J < 7 7 w l 7 6 3 2 q @.@.G 1 @ % < 3 g 3 3 4 w e k = h < 7 3 = 2 r r w w r 3 1 ",
"1 l Z e e d r 4 m Y W E [ Y Y b B k 3 1 < ; J 7 6 7 4 B l l q e w 7 j t U 5.<.U N % j w 1 3 3 w r w w q : e k 3 2 2 r w e e 3 3 ",
"q r r Z B l 0 @ ; y i y . . > 5 w j e e < , r O 1 r d Z S k w % w r q $ W 0.^.1.f # w 0 j 6 1 j 7 w 7 e 3 < k r < 1 r 7 r 0 1 3 ",
"0 0 r D S d e 3 - -       ; : 4 w t w w < 3 S w 7 w F #.r 3 k 3 : 7 w 2 N 1.5.W < < < 2 e w 1 7 w Z r j w : < 5 + * g e 9 8 0 q ",
"q l e Z Z r Z l w < 4 < 5 7 e s e w w e < 2 3 0 7 w Z $.6 3 e l w = 0 w 1 n b - r B 7 2 2 l w r e A k 7 w e 3 3 k j 6 P -.-.D t ",
"Z l l e & 2 q 3 q e r 3 e e 7 d w 5 2 w r 3 1 % e s w d k w % c w < 3 w r r 2 & 1 k l < r g 3 w 7 e h q 3 e q q k B $ *.`.x.G q ",
"B r @.l *.*.e < w r < < u p y p m m > 3 l g l 3 l e r s l 7 < 3 0 B Z d e j 0 r + 2 3 + k c 2 w j 6 w j : : 0 w 2 w 2 P 4.=.d 9 ",
"w 7 t *.n.~.<.7 2 7 1 b ~ :.r.r.r.u.~ J 6 r #.w r e s e S r 1 2 e A A N h 1 1 6 4 2 < * j Z r c B h 7 6 3 6 3 4 3 w k e i s Z w ",
"B k r =.c.~.x.5 & 7 u r.F.F.D.D.D.G.f.:.a u p y p s J i i s 5 5 n f 7 j j 5 i C s u 5 N f 5 5 k B A k r 3 Z e 7 3 w l q , q Z r ",
"l r 7 > _ 4.' - k h m z.F.R.OX@X.X[.T.F.f.t.y.f.y.>.:.r.r.! E E E E Y / E E E ~ ~ ~ E ~ ~ E E / Q J J L e j A l w h z e 1 6 4 w ",
"0 2 < o > 7 o + k j E f.S.T.|.@X@XOX|.|.S.S.F.F.U.F.S.D.D.A.A.A.N.N.z.N.N.B.S.A.S.S.S.S.Z.B.Z.C.A.Z.B.p.^ C i w w c c 0 : % < 1 ",
"k 0 0 r j O < 5 e C _ f.C.(.OX#X$X$X.X(.(.F.(.T.(.(.(.(.(.(.(.(.T.T.T.R.T.R.R.R.R.R.R.R.(.T.T.T.R.T.U.I.B.V.a.V s h w h j 0 3 h ",
"j : 7 1 n X.z.T.S.f.V.F.(.@X@X$X$X$X%X{.(.(.(.(.).).(.(.(.(.|.(.XX).(.|.XX|.XX|.).XXXXXX).(.(.(.(.Q.R.Y.I.I.S.p.M B B j @.k 7 l ",
"r < 3 6 / V.@X-X-X$X-X%X-X$X0X-X0X$X$X$X$X%X.XOX).).+X_.+XOX).+XoX+XoXOX+XOXOX+XoXoXOXoX_.XXXX).).XXQ.).(.R.R.K.p.m k A D B < < ",
"1 r r W y.U.OXwXwX$X$X-X0X0XwXwX0XiXwXwXwXwX$X$X$X%X$X+X+X+X+X$XoX+X+X+X+X+X+X6X+X+X+X+X+X+X+XoX+XoX).).).).(.R.K.>.V h S l 0 3 ",
"7 3 J f.D.OX#XwXwX$X+X_.+X0XwXtXiXwXwXiXiXiXwX:X-XwX$X6X$X5X+X`.5X8X$X+X6X$X6X6X6X5X5X+X5X#X#X#X#X+XoXoXoX_.XXQ.R.B.O.L e r + % ",
"7 1 ~ { i.-XeXtXiX0X_.).).0XtXtXiXiXiXiXiXiXiXiXiX:X0X8X8X5X5X5X8X8X8X8X8X8X5X5X5X6X6X6X6X8X0X$X8X6X#X#X+X_.XXXX).Y.a.X.W Z q 3 ",
"S a T X O.#X0XtXgXtXE.M.XXeXlXuXiXpXiXiXiXpXiXlXfXiXwX9X9X5X5X`.5X5X9X9X9X8X5X8X6X8X8X6X8X8X9X8X$X8X#X6X#X+XoXoXXXQ.M.O.) i 9 e ",
"J :.w.] i.Q.6X7XeXtXR.U.7XlXlXuXpXxXxXxXzXlXxXzXgXiXtXqXwX9X9X9X9X9X8XqX0X9XqX0X0XqX8X7X8X8X9X8X6X8X8X8X6X+XoX+XOXOXR.l.X.v r s ",
"L r.].u.{.%X7X7XqXqX7X7XtXdXlXlXpXcXxXxXzXzXxXpXgXhXgXtXeXqX9X9X9X9X9XqXwXeXtXeXqXqXqXqX8X0X0X0X0X0X0X#X+X#X+X+X+X+X|.R.B.2.5 : ",
"r } ,X4X2XjXhXgXlXuXqXtXuXuXuXxXxXcXcXcXxXpXpXpXzXzXgXeXeXqX9X9X9XqXeXtXeXeXqXqXqXtXqX0XqXqXqXwX0X0X0X8X0X$X#X+XOXOXXX|.T.B.' : ",
"i u.}.,XvXkXjXjXjXjXhXgXtXuXuXdXzXxXcXcXzXpXpXzXlXiXiXtXeX9X9X9XqXeXeXeXqXqX0XqXeXeXeXeXqXqXqX0X0X0X0X0X0X#X#X#X+XoXXXR.I.B.2.> ",
"m D.*X*X1XfXjXkX1X&X:XsXlXlXlXuXpXpXxXxXxXzXxXzXlXgXpXtXpXeXeXeXeX9XqXqXeXeXqXqXqXqXrXeXeX0XqX0X0X8X8X8X0X6X#X+X+XXXoXQ.I.B.p.u ",
"/ {.%X:X2XfXjXvX<X{ u.aXcXlXlXlXuXuXlXxXxXxXzXxXlXxXlXlXpXeX9XqXeX9X8XqXeXtXqXeXqXqXtXqXyXqXyXqXqX0X6X6X6X#X+X#X+XOXXX[.E.A.g.W ",
"/ D.;X2X2XkXkX1X1X[ e.rXcXxXcXcXcXlXtXzXxXxXxXzXlXzXxXlXpXpXeXqX9X9X9XqXqXeXtXqXqXqXtXqXqXqX7X0X0X7XyX6X6X6X#X+XXXOX[.R.K.g.2.b ",
"w +.,X4X4XvX2X:X>XB.[.fXbXcXbXcXcXcXzXzXzXxXzXxXlXlXlXiXiXiXtXqX9X9X9XqXqXqXqXtXqX0XqXyXyXqX0X0X0X7X0X6X$X#X#X+XXXoXQ.I.V.a.M 7 ",
"Z 6 ,.,X4X4X2X1X:XaXgXjXxXcXbXbXcXcXxXzXxXlXzXzXzXxXgXiXiXiXeXeXeXeXqXqX0XwX9X0XqX0X0X0XqX0X0X0X-X0X0X#X$X#X#XOXXX[.E.M.g.2.i d ",
"d k N Q }.,X4X2XkXhXjXhXhXxXxXcXcXcXxXxXxXzXlXlXxXzXgXgXiXtX0X0XqX0X0X0X0X0X0X0X0X6XyX-X0X0X0X0X0X#X#X#X#X+X@XOXoXY.l.p.p.` f j ",
"e Z Z d u.,X3X2XkXjXkXhXhXzXzXjXxXxXxXxXxXzXlXgXzXzXgXiXrXtX9X9X8X8X6X#X0X8X0X8X0X6X6X7X#X$X#X#X-X#X+X+XXXOXOX|.|.I.p.E M L B r ",
"e Z S Z ~ }.,X1X2XkXaXaXfXhXhXjXjXjXzXzXzXzXlXlXgXgXrXtXyX0X0X8X8X+X+X+X#X#X6X#X6X#X#X6X#X#X+X+X@X5XoX).XXQ.(.(.R.K.o.7 k @.B 7 ",
"B e q S i } D.,X3X2X4XaXaXfXgXjXhXhXgXgXgXhXgXgXfXfXyX0X0X8X#X6X5X5X+XoXoX+X#X#X+X#X+XXX+X+X_._.[.Q.Q.Q.Q.T.U.E.I.g.K @.@.A d w ",
"e 4 r e B s ^ '.=X<X<X<X1X1XaXaXgXfXfXgXfXgXaXrXrX:X-X#X#X6X+XoXoXoXoX).).oX).).).).).).Q.)._.Q.).W.E.R.U.(.M.l.a.Q B B Z B w 7 ",
"0 r e k #.i t.N.'.&X;X<X<X<X1XaXfX:X:XrXaX:XwX:X-X@X+XXXoX+XXX`._.W.W.W.Y.L.E.E.E.E.E.W.W.E.W.W.L.P.P.P.M.l.s.X.n e w i w h 3 3 ",
"t 3 e e Z b f.F..X&X&X;X<X1X<X=X=X{.{.&X>X>XOXOX|.).Q.Q.Q.Q.W.W.L.J.J.J.J.M.v.v.H.H.v.J.L.L.L.J.L.K.K.l.s.,.M 1 r j q e j j 2 g ",
"e + 7 3 0 6 y.{..X&X&X;X;X<X=X*X{.}.{.F.T.[.R.I.E.!.L.W.W.L.J.v.v.v.l.g.s.s.s.s.p.2.a.s.d.g.v.v.l.d.d.2.n j 4 7 0 1 0 w Z k 0 k ",
"7 1 1 1 k j W D.{. X.X&X=X=X*X'.{.'.F.V.g.M.l.H.J.J.J.v.h.d.s.s.5.o.` ' M m H H M M W ` 2.2.2.;.o.( b 5 < l Z Z s e B r A Z < < ",
"1 w 4 6 q l Z J >.N.[.*X&X*X'.'.'.N.g.o.2.2.s.s.s.h.s.1.o.` K H B N G L f 3 0 w N j N u > n N 3 A N 7 : 3 k k A s e h h Z Z 2 1 ",
"q 1 3 0 1 % 0 w i :.G.'.'.A.f.a.f.2.W G I n M M n v > 1 f n A A c j B k 0 = = * 0 r 5 w g g g * @ r g 0 c q h h 0 0 * * w r % & ",
"k 2 g 3 k = 0 k 7 m O.f.f.f.E v v y : k x g 3 < 1 @ + = g A 7 k Z l w 7 c q 0 q j w 1 q j 1 0 = % q c w k A Z k k q + 1 e w 3 3 ",
"D w k z l 6 5 o L x.d.o.E W N 7 r 6 O 1 #.A 2 < % 4 r 0 e j w d e 3 4 r c 0 3 d s + % e 1 0 q k c q + B j A w g h e = = 3 g w e ",
"h A l l q j 2 $ ;.~.^.~.` V e k 7 < 1 q q j % Z =.>.>._ A 3 7 D 3 < w 0 q r d D e * 1 1 3 D @.k * q I 7 3 7 w B h 6 6 = * 0 7 s ",
"w S @.A S q - # 3.~.6.m.>.d q q 4 3 3 1 e 3 5 -.a.g.g.>.Q J q l k k e j h w Z F 4 2 0 + 3 l e r I 4.n.7.j 7 D 3 3 4 3 0 e e F D ",
"6 w e 3 7 @.k $ Q n.`.8.C 2 w e j 3 3 w B @._ i.i.i.2.;._  .y 1 1 q A B h B A k 6 7 < e e 6 e 6 <.c.q.m.' + h q w 4 w Z Z e r 4 ",
"r e t F s d c 1 - y K 5 o Z l w 0 3 e w % b O.O.O.O.O...) ] C 3 2 1 A S s 4 e w l Z < 1 w 1 e 4 ( x.6.j.( : % q 3 7 w w 3 w q 2 ",
"= 3 z Z d l 3 % r <   - 3 j s 7 w e w % % b O....... .| ) T N l 2 & l e 7 4 7 2 w Z 3 1 e e w 6 : ` 4.` N 1 1 j 2 < 7 e e e 0 1 ",
"2 g j F A l w 3 3 l e w h w 7 s 7 r 7 6 r F )  . .| ) ] T L 3 S < 3 Z B e s w 7 q e < 2 q B B d 1 4 i g r < < j 6 < 4 s B h 3 0 ",
"q l Z w j r r 3 + g < 7 e e d w 3 h c : & e m ^ ! T / m Y C 3 j < q k t Z F Z 7 2 + + r k w j w 0 r r r 1 < e r 7 w d w w j w w ",
"e 2 l l k Z d 4 3 3 h F Z S l e Z B k * < 3 s p a a p , u S 7 : < e q 7 l @.Z 6 r 1 g k 1 3 6 j Z Z S 2 3 3 3 e 8 1 % * z D k 2 ",
"e < q A Z A S w < < j k B k k 0 < s 7 8 7 w Z -   ; - 0 l l Z d 0 + 3 r r l k w 0 q A Z 3 0 w e e k S 1 % < < j A 0 1 A x z h * ",
"d r e z q 0 k 7 7 0 0 w 3 0 c g 7 B w l w e D Z - u 1 l l l D Z q + 3 9 B l 9 r Z B B w z e e q 0 0 e 4 + 0 7 j c q -.c.<.Z 0 r ",
"B Z k 0 & q h 0 c l 3 3 0 8 = 1 k D l d k e $.S d r e h l e j l Z h 0 ( k.8.G 9 j A Z w Z t r 0 g 3 k B 6 7 e e q 0 4.`.4.s 9 A ",
"j k Z 3 0 h h z l B w 3 h 3 @ = q l j e 0 e d w e Z q w k r f z @.q L d.~.~.5.w 9 j w e j e 3 w * = h h e 6 B d q % U ;.K 4 r S ",
"0 7 w 0 l q l @.k 7 e * 6 7 * h e w Z F Z j < 7 d @.e 3 e < 1 x @.$ H x.0.~.d.A q 1 2 w 7 q 2 j g * q 5 w 2 < w e 2 2 2 2 , 5 e ",
"k B B j Z j h l j 1 1 % 3 s e w w 7 e B k k 1 4 Z D Z k e < % k h % - ` b.b._ q c 3 3 1 % 7 7 w j l l w 3 < % r F Z 0 0 h w 2 3 ",
"k l w B B w 3 3 j 2 2 1 r Z B r 7 % 3 < 1 0 < 4 w d e Z w 3 3 r 3 2 o > ( W - 1 j r 7 7 6 3 e w w S D k % 1 0 < B Z l l l Z q 1 "
};
