/* XPM */
static char *result[] = {
/* columns rows colors chars-per-pixel */
"64 64 246 2 ",
"   c #070506",
".  c #181919",
"X  c #130D0F",
"o  c #211B17",
"O  c #263D0E",
"+  c #393232",
"@  c #302F2B",
"#  c #1A2024",
"$  c #423F3C",
"%  c #2D4B0D",
"&  c #2C4808",
"*  c #334D0D",
"=  c #314708",
"-  c #2B520C",
";  c #35530D",
":  c #345B0E",
">  c #395B0E",
",  c #39550D",
"<  c #2E4B13",
"1  c #2B4410",
"2  c #324E12",
"3  c #364C1B",
"4  c #355413",
"5  c #395613",
"6  c #365A14",
"7  c #3A5C14",
"8  c #355619",
"9  c #365B1A",
"0  c #3A5D1A",
"q  c #3A551C",
"w  c #2F5113",
"e  c #356213",
"r  c #3C6315",
"t  c #3E6A16",
"y  c #3C631B",
"u  c #3E6A1B",
"i  c #37631A",
"p  c #3C6713",
"a  c #3C5B21",
"s  c #3B5724",
"d  c #374B2E",
"f  c #3D6521",
"g  c #3E6B21",
"h  c #3E612A",
"j  c #415E1D",
"k  c #406517",
"l  c #416B17",
"z  c #40661C",
"x  c #416C1C",
"c  c #44731D",
"v  c #46791D",
"b  c #497B1F",
"n  c #47741C",
"m  c #425C24",
"M  c #435D2B",
"N  c #44592B",
"B  c #494439",
"V  c #485A36",
"C  c #525C3B",
"Z  c #426423",
"A  c #426D22",
"S  c #44632D",
"D  c #4A652C",
"F  c #486C2B",
"G  c #457422",
"H  c #497622",
"J  c #467922",
"K  c #4A7C23",
"L  c #49752A",
"P  c #4A6533",
"I  c #4E643D",
"U  c #496935",
"Y  c #53633C",
"T  c #526A3C",
"R  c #4D7436",
"E  c #557538",
"W  c #51742B",
"Q  c #3C3F40",
"!  c #4A5545",
"~  c #555B43",
"^  c #575957",
"/  c #4E4B49",
"(  c #645C4B",
")  c #625D59",
"_  c #4E6A47",
"`  c #586847",
"'  c #597348",
"]  c #5C6453",
"[  c #5B675A",
"{  c #5B7554",
"}  c #647447",
"|  c #646A54",
" . c #646659",
".. c #666A5B",
"X. c #6B6B5C",
"o. c #666555",
"O. c #716E5B",
"+. c #627259",
"@. c #6D725D",
"#. c #687757",
"$. c #72725B",
"%. c #757657",
"&. c #686C4C",
"*. c #5A5D61",
"=. c #5E6E66",
"-. c #6C6E62",
";. c #656B6B",
":. c #646764",
">. c #6E7163",
",. c #6D736A",
"<. c #667867",
"1. c #727364",
"2. c #787764",
"3. c #73756A",
"4. c #757A6C",
"5. c #7A796A",
"6. c #777865",
"7. c #6A7977",
"8. c #757A73",
"9. c #7A7C73",
"0. c #7C7D7A",
"q. c #737976",
"w. c #706E6D",
"e. c #4D8324",
"r. c #4B8129",
"t. c #518927",
"y. c #698A48",
"u. c #668258",
"i. c #758458",
"p. c #769156",
"a. c #6C836A",
"s. c #7A8869",
"d. c #6D8677",
"f. c #7D827C",
"g. c #778678",
"h. c #7B9370",
"j. c #5F8A42",
"k. c #828F5C",
"l. c #828A6E",
"z. c #81837E",
"x. c #828A79",
"c. c #979777",
"v. c #8E9671",
"b. c #9F976F",
"n. c #CAA76F",
"m. c #C2985A",
"M. c #6E8585",
"N. c #7B8482",
"B. c #7C8B8B",
"V. c #788788",
"C. c #7B9286",
"Z. c #7B8D91",
"A. c #7C949B",
"S. c #7D9196",
"D. c #7F99A2",
"F. c #838582",
"G. c #848B84",
"H. c #828D8D",
"J. c #888B8C",
"K. c #87958C",
"L. c #828F91",
"P. c #849394",
"I. c #85969B",
"U. c #879A9C",
"Y. c #8B9B9C",
"T. c #8A9793",
"R. c #939B94",
"E. c #949E9D",
"W. c #969787",
"Q. c #A69D85",
"!. c #B29D8F",
"~. c #9BA284",
"^. c #8FA29E",
"/. c #90A39E",
"(. c #A7AA8B",
"). c #B5A989",
"_. c #ADA792",
"`. c #B8B496",
"'. c #BBA792",
"]. c #869CA4",
"[. c #8B9DA4",
"{. c #969DA1",
"}. c #8CA1A5",
"|. c #8CA3AA",
" X c #94A3A2",
".X c #93A6AB",
"XX c #95A9AD",
"oX c #9CAAAC",
"OX c #99A6A5",
"+X c #94ABB3",
"@X c #9BAEB3",
"#X c #9CB2B4",
"$X c #9DB4BA",
"%X c #98B3BD",
"&X c #92AAAF",
"*X c #A1A9AA",
"=X c #A7B2AD",
"-X c #A3B3B6",
";X c #A3B5BB",
":X c #A4BABE",
">X c #ABBBBD",
",X c #A9B6B5",
"<X c #B1B6B3",
"1X c #CBB898",
"2X c #CCAF91",
"3X c #C8B8A8",
"4X c #ADC1BF",
"5X c #D1C4B2",
"6X c #9DB8C1",
"7X c #A5BCC2",
"8X c #ABBDC2",
"9X c #B1BFC1",
"0X c #ADC0C5",
"qX c #ADC3CA",
"wX c #ACC6CC",
"eX c #B3C3C4",
"rX c #B2C6CB",
"tX c #B5C9CE",
"yX c #BACBCC",
"uX c #B8C7C9",
"iX c #ADC9D1",
"pX c #B4CCD3",
"aX c #BBCDD2",
"sX c #BDD1D5",
"dX c #BDD3DA",
"fX c #B6D0D7",
"gX c #BFD0CF",
"hX c #BCD7E0",
"jX c #C1D3D5",
"kX c #C3D6DA",
"lX c #C6D9DD",
"zX c #CADADE",
"xX c #C0CFD2",
"cX c #C4DBE1",
"vX c #CCDEE2",
"bX c #D0DFE4",
"nX c #CDE1E5",
"mX c #CDE4E9",
"MX c #CFE9ED",
"NX c #D1E2E6",
"BX c #D4E5EA",
"VX c #D4E9EE",
"CX c #D8E8ED",
"ZX c #DAEDF3",
"AX c #D3ECF2",
"SX c #DAF0F6",
/* pixels */
"A 6 u u A z 0 t 7 6 t 7 * 5 l v e.H 6 y x r r c H a G u c c 4 u l 7 y b c f g y 4 z H y r ; r y L H 0 y y 7 6 7 7 6 G G G x r 6 ",
"0 ; A A G y y i c 5 ; 6 0 u A c x r r 8 0 u t 6 c y f g H k * 5 2 7 7 r r x J L z 5 ; * 9 7 r y u J t y t y ; 4 4 8 G K g 5 ; r ",
"y 6 0 r y 0 e 4 H x r 6 4 A K y 5 2 8 6 * 8 y 6 t G H c y 7 r 6 7 9 4 * r 7 y u c y 5 5 6 9 g y g t y y 4 l n k 7 ; 6 i t r r 5 ",
"4 9 y c i 0 c c e.n r r 9 H K t 7 t 9 0 y 0 6 8 y G G J y 7 t r u A q 8 l c y r 5 2 2 f G x 6 7 G c 8 6 0 G y 7 6 m y.p.A 6 6 y ",
"y z k H l v u v H ' | 1.<.y.j.R t ; 7 z r y t y y t t l v x i t t.H A k r > , , t 6 8 A c x x l > ; 0 7 v r y K j.(.xX3Xi.% 9 y ",
"z x y 7 v c H t _ 0.F.F.F.h.s.<.R h g g A t L 5 : r > > 7 h h R I I T A 7 * = 5 c c z n k r l 5 = 5 r c x c l t k.2Xn.1XW.D e c ",
"G y y y : t n v { 3.9.q.q.w.:.:.] _ d.a._ i._.(.E r ; i F d.#X#X|.^.g.<...` V z G x v n l r r , > , t x u x c - ' _.2X`.l.y t t.",
"y e x A y b e.R ..:.;.;.:.;.;.7.S.&X$X@XS.G.c.).v.4 m #.K.pXcXfX0X:XXXT.C.a.&.C N 0 v e.G 4 ; 7 y 7 y G K e.z 1 & } ~.l.U i G y ",
"* 5 x K G r.t V [ :.:.*.:.;.Z.6XiXpXiX:XXXT.G.W.g.{ C.4XcXMXMXlXaXyX4XoXR.h.4...` m H x 5 * 5 y 9 c y l y y k 5 1 f L a 9 A r 4 ",
"* l J g y f i V ^ *.*.[ ;.V.+XfXdXfXwX:XOX^.}. X&XcXAXMXMXVXVXBXzXdXgX,XR.x.s.6.T j 7 k 7 7 9 y t x : t 8 y r 4 6 9 i i f y r 8 ",
"5 c G u y u y 8 B / _ ] 7.wXpXdXcXlXpX>XXX#XeXpXfXMXAXnXnXAXZXVXMXlXyX,XR.x.l.%.` 0 z y 5 7 q y y y y t 4 y x 7 6 8 i 0 x t 7 7 ",
"y r i G G c r & 1 s a d 7.fXnXmXnXcXaX8X:XtXlXmXnXmXnXlXlXNXVXVXNXlX4X=XR.G.z.g.>.C N a 0 0 7 z 0 y 0 l 5 4 u r 4 6 y y y i ; 7 ",
"i t i K J g t 7 < < O d d.iXmXMXVXvXdXyXsXkXcXzXcXnXdXgXkXcXnXNXnXgX4X=X(.oXOXK.C.g.<.~ V 9 5 y y G y x t 2 6 0 ; 5 y u e e r y ",
"t c x G g i H c y 6 w P C.iXmXSXZXmXkXkXnXnXlXdXlXsXyXeXyXvXmXvXzXgXyX4X:X4X;X}.B.;.:... .V m 0 f J t 5 y z 6 5 x y 7 E p.p.K t ",
"H c c u 6 e t 7 l t y M 4.iXMXSXZXBXvXnXmXnXzXjXdXgXeX4XeXjXBXNXzXgXgX4X4X#X}.B.) @ @ ! -...C a 0 f c y 0 y r r x x - y.5X(.W t ",
"G y v c y.y.u w y y * q { iXAXAXZXVXnXBXVXNXvXlXsXgX4X,X=XeXlXNXNXzXgXyX4X}.M.,./ X   @ [ >.] m z 0 y t 4 2 t y 8 t e E c.i.g i ",
"f 7 t y.`.1Xp.0 4 0 5 m a.cXBXZXZXNXbXBXBXBXvXlXkXaX9X*X*X<XyXvXNXNXjXuXaX8X[.J.w.$   o ! >.$.~ M x 0 9 8 5 7 9 6 t l g a y G y ",
"g u i i.).1X(.s 6 0 0 _  XbXmXmXNXmXbXBXBXbXzXzXkXaX9X=X=X<XaXlXlXxXuXuXaXuX*XJ.:.+ o o / $.$.O.` W c y 7 G z y 0 y c t w u G i ",
"c y 7 3 %.c.&.2 A S { K.7XlXnXcXvXbXBXNXNXnXvXzXkX9X*XP.J.{.8XkXjXyX9XuX9X9X{.F.) + o @ ] $.O.%.@.Y A l t u J c y x v t 5 0 9 y ",
"r 9 8 % 2 a & * A #.;XqXrXkXnXmXmXBXCXCXBXNXvXlXkX9XJ.*.Q ^ L.rXzXxXaXuX9X<X*XJ.w.$ + ! O.%.%.O.$.C Z x K g y y r c n r 2 , 4 4 ",
"u r y y u & 6 ; A u.^.tXdXlXnXVXCXNXBXCXBXNXvXlXcX8X;.#   . *.*XjXyXuXeX,X-X;XoXB.*.^ X.O.%.O.O.&.N q c K z 7 7 z z r t y r 7 k ",
"g 2 y 5 A 7 5 4 u E g.tXcXcXnXNXNXCXCXNXNXNXvXzXcX8Xq.@   # *.*XyX0X,X*X*X,X9X7X[.0.>.2.$.%.%.O.o.C 3 y 0 8 7 7 y A A A K c 7 G ",
"0 4 7 5 0 t 5 * 2 D a.>XkXnXBXBXNXNXCXCXBXnXvXkXkXkX+X;.Q + ) R.*X*XOX{.@X:X7X7XOXB.4.6.2.$.2.2.O.C m q 7 7 7 0 F u x H K G 8 4 ",
"5 y y t y u 9 4 y T H.;XaXnXVXNXbXbXNXBXNXnXzXkXkXkX9X*X0.) w.F.J.J.J.P.[.$X$X#X}.G.8.6.2.$.2.2.O.Y j 5 4 J P ^ [ T A t H c r 5 ",
"7 e u g t y 6 y 0 P a.oXsXmXBXzXzXzXNXNXNXzXzXjXjXyXuXeX,XR.F.0.z.F.z.F.P.[.+X+XY.B.5.1.O.2.2.5.| D u c z C [ ) ;.q.-.F u i ; ; ",
"7 7 c G 7 0 ; 2 q y U K.lXCXNXzXlXzXbXbXNXzXzXzXzXjXyXeX>X,XE.F.z.F.z.0.3.q.Z.I.P.f.5.1.O.2.1.6.| P 0 F _ ^ :.w.8.0.F.8.' A r 7 ",
"H 7 c J r y 0 & g u j s.gXZXNXzXzXzXzXNXbXbXzXzXlXdXgXtX>X-XE.G.F.x.9.^ B B ) 8.9.9.3.1.-.1.1.3.@.V q V ^ *.;.8.9.F.W.F.[ q i t ",
"y l c G J 7 y 7 t 6 0 #.eXCXnXzXzXbXbXbXbXbXzXjXjXsXsXyX>X-X XJ.G.0.) @   X $ ( o.X.1.1.1.1.-.1.>.| D / ^ :.-.8.N.G.J.F.] a y g ",
"u 4 0 z A y y u t 0 s s.tXVXNXzXbXbXbXbXzXbXzXzXjXgXyXuX>X,X*X XT.f.^ o     + ~ ( o.O.O.X.1.1.>.3.>.` F ` _ +.q.z.G.z.q.` A : ; ",
"r ; 4 A A u y < r H M h.kXVXNXzXzXzXzXbXbXzXzXjXsXaXeX9X9X9X>XoX{.L.w.@   o B ( ( o.X.X.-.>.1.>.3.6...T P G V ` | @.u.' P u 5 , ",
"5 6 A K f 0 c y H H D g.nXVXVXNXzXzXzXbXzXzXjXjXsXuXeX>XeXrX8X@X{.L.9./ $ $ ( &.o.O.1.1.1.1.1.1.2.5.@.I P A 1 O 3 q H t r 5 4 5 ",
"2 7 y G K u y l g u m g.lXmXBXVXbXbXbXbXzXzXjXxXgXeX9XeXtXrX8X-XOXL.5.O.( o.o.O.1.1.1.3.4.3.>.1.2.6.| M A t 8 % % < i t c G 5 6 ",
"e 8 8 0 l v c r g G S h.cXvXBXCXCXbXbXvXzXkXkXxXkX9X9X9XaXaX8X8XoXJ.9.1.O.O.1.1.w.2.2.5.3.1.1.$.1.1.` j z r r 7 7 r > t b x 7 y ",
"* 6 r 5 5 c H u G L R C.lXvXnXVXBXbXbXvXvXzXlXkXxXxXcXkXkXxXtX8XoXT.z.5.O.2.2.5.2.2.w.3.3.1.1.1.-.1.| N Z J r > c : - r t r 7 y ",
"r 7 5 y y t n t u G R S.sXcXvXNXbXbXvXzXvXvXvXkXkXkXcXvXcXkXaX8X*XT.f.5.5.5.2.3.3.1.1.1.1.1.1.X.1.6.` m 0 y 7 e e E k.E - ; 6 0 ",
"n r y A y r y r u u F h.gXlXlXnXBXbXvXvXbXbXvXlXxXkXbXBXcXaXhX9X-XR.z.9.5.5.2.3.>.1.>.1.1.1.X.>.X.] m 0 9 9 y ; a v.1Xc.Z 6 y t ",
"A A A H t 0 8 y 7 5 a u.4XlXlXvXbXbXzXbXbXbXvXlXkXkXbXbXbXkX8X8X,XE.J.9.5.2.3.w.1.X.-.>.1.-.>...V a x 5 y i 4 & M b.5Xc.F 6 c u ",
"z n G e.c y 5 i 7 9 f { #XcXdXzXbXbXvXnXbXbXvXkXkXkXbXCXvXdX8X8X-XoXT.x.0.w.3.1... .X.X.X... .] I 0 x z t y y 4 4 &.l.` 7 c G 0 ",
"y H c e.l H r r t y 0 ' oXnXlXlXvXvXvXvXbXvXvXkXkXkXcXbXvXaX8X@XXX XY.J.f.8.>. .]  .X.o. . .X.` D f z H i 7 x y 4 < 9 i u e.g 9 ",
"G t u c z A A x r 8 < P ^.mXlXlXlXvXvXvXvXcXkXkXkXkXkXkXkX9X7X.XY.Y.I.T.N.8.:.] ]  .o. . .-.X.C Z u x r y ; 5 y y r t e.e.K g y ",
"u 6 y u A y Z x 4 y y S C.cXdXlXlXlXzXvXkXsXkXkXkXaX9XfX8X8X@X{.T.H.H.H.N.8.[ ]  .o.......>.| V A u u r c y % y 7 u G A G A y y ",
"r i t A r.g 7 : 5 e c F <.qXnXcXkXkXlXvXlXkXsXaXdXpX8X8X6X6X.X{.I.H.V.N.N.q.>.-.....X.X.-.X.] M y f y y t H 5 5 6 y y a y t 7 6 ",
"u 7 t t G u r 5 7 4 5 0 { #XzXzXlXkXkXlXkXcXkXsXaX9X8X7X6X@X@X.X[.P.L.H.N.9.3.1.-.-.1.1.>.3.C Z G g y 6 4 x y 8 y z r u z z 5 r ",
"g * 0 9 y 7 y 0 y 0 5 Z u.#XdXcXkXlXlXkXkXkXkXsXxXfXpX7X-X@X.X.X[.Y.I.T.B.N.0.q.3.>.-.-.,.-.C a H t.f 5 r r 8 0 r > r y G x r c ",
"7 8 5 5 t c x J G u r 0 [ $XhXkXkXkXkXkXkXkXsXsXxXaXpX8X;X*X.X[.Y.U.I.I.L.V.N.f.8.>.>.1.3.] D 0 y A Z 5 5 c G G y g A y H A 4 8 ",
"5 y 9 0 i n c n G u u y T P.8XcXkXkXkXdXdXsXxXpXaXpX9X8X;X@X.X|.Y.T.P.L.L.H.V.f.q.4.,.1.3.Y x > l u 7 4 0 l x c f y t t H G 7 ; ",
"t 5 5 k , ; 7 i y u t y Z ` 6XkXcXkXdXkXkXaXaXpXpXtX9X8X$X@X@X.X[.I.P.S.H.B.V.N.q.8.1.,.-.V r > * i r r n t l y r r > > y y ; : ",
"x 5 r r x ; k c r Z R L x _ ].fXcXcXkXkXaXfXaX9XqXqX8X;X@X+X+X.X[.I.I.P.S.B.V.N.q.9.3.,.] s r > ; t c r l J H G l t ; 5 u y 7 7 ",
"K y l v G 0 6 % R (.<X~.U A d.wXhXhXdXdXdXaXtXqXqX0X:X;X@XXX.X.X].P.P.L.Z.B.V.N.q.>.>.@.~ m t l n t ; u z H y z x r : , 7 z y y ",
"u H c c r z 6 - s.1Xn.3Xl.g ' }.fXhXdXdXsXiXrXeXqX0X:X$X@X.X.X[.].].I.P.Z.V.N.g.,.X.X.o.N G e.x > t W 0 5 r f x l 0 5 , > r 0 A ",
"y J e.H H t w - v.1Xn.'.h.g g a.wXdXfXfXpXtXwXqXqX7X:X$X@X+X.X|.[.[.[.I.L.N.0.,.>.-...~ a G u y D v.`.b.z 7 e.7 6 9 5 y t u G K ",
"0 y g 7 y K x - ' _.`.~.S e g _ &XfXfXfXpXtXwXqX8X:X:X$X@X+X.X|.[.[.].I.S.N.g.3.-.X.] I Z e t 9 k.).m.2X&.* x r y 6 y G G y y 9 ",
"y u c G f A c 6 < 3 Y s % x G S C.iXiXiXiXiXwXqX0X$X;X$X+X+X&X[.[.].P.S.B.N.q.,.>...N q y y y 8 } ).b.!.&.* 4 t 7 0 y y 9 y t 6 ",
"; 7 J J g c 7 ; 0 4 O % 6 A a f { %XfXiXiXiXwXqX7X7X$X#X+X+X&X|.[.].I.S.V.N.8.;.] ' a 4 y y y 9 4 %.c.%.z 5 5 z 6 4 0 y u u t 5 ",
"6 l y L G c y 7 y x y y l y 0 f h <.6XiXiXwXwXqX7X7X$X$X&X|.|.].[.].].Z.V.q.,.-.' z 8 5 y G A u 4 8 a y 0 2 4 u 0 5 9 f x x 5 r ",
"i n c y z 0 y 7 ; k 0 9 t y g u 6 S d.%XwXwX7X0X6X$X$X+X|.|.[.|.[.].].S.V.7.<.` m * * y x u y y 7 i i i 5 5 t y 7 y u f y z y y ",
"t 6 c c A G g 9 5 7 z H G J c t u G F <.}.$X6X6X6X%X6X&X&X&X&XD.].].D.A.M.7.+.S r 5 l x 4 9 0 u g H K 6 7 7 y y 7 4 * > v e.t 6 ",
"g 4 t J A H J y 4 8 x x G z x y 8 f 0 7 V d.6X6X6X6X%X+X&X&XD.D.].].D.M.d.{ L y t y G G 7 r y u u x J 6 ; ; 8 z n i 5 H K v l 5 ",
"g y t v u r x 0 7 r 7 y 7 r c k 0 G t l g S _ M.D.6X%X+X+XD.D.D.D.A.M.7.{ J 6 u G u A y c t u t r r g 8 * r y y n t p.).p.A r r ",
"g G l r > t l r c H 5 r t > > 5 z K G A t u r.h U =.M.D.D.D.A.A.M.7.=.#.~.v.E e z H G y J g y r k 7 l A 0 7 y t t t c.5Xc.f i K ",
"y x A 5 r l l n G A y 7 t r = , t c A f y t g y i g h ! I ! [ =.{ U T ~.1X1Xv.i 7 y y g z x 7 y > , l x u 9 g f u ; } s.Y 4 y L ",
"r y y l c r n e.u y t , 5 0 7 t u y A K H z 2 0 g r.i 9 y 4 9 R L : U (.n.1X~.g t 5 6 y 7 y : A k > l 5 u 7 5 f u > ; 4 6 5 8 y ",
"x A A z c g x c z 8 5 ; 8 g t t y 0 u A x x 6 6 g e.g g y 6 5 l G w 2 %._._.#.u c r 5 6 4 0 7 y z c c 0 5 ; ; 9 J A r t t y 6 7 ",
"x c y A c y 5 r y 5 6 6 y G g 0 7 ; 7 4 8 r 4 i i g g J y 7 7 y 0 6 % 3 ` ' < 4 y r y 0 0 5 f y y J K c 4 7 i 4 A J c x c H t 7 "
};
