/* XPM */
static char *result[] = {
/* columns rows colors chars-per-pixel */
"64 64 236 2 ",
"   c #050304",
".  c #161617",
"X  c #13100D",
"o  c #263412",
"O  c #192227",
"+  c #33362A",
"@  c #3B3837",
"#  c #453536",
"$  c #2D4C0C",
"%  c #2C4608",
"&  c #314A06",
"*  c #334D0D",
"=  c #304605",
"-  c #2C520C",
";  c #2C550B",
":  c #35530D",
">  c #39550D",
",  c #355B0E",
"<  c #3A5B0E",
"1  c #2B4413",
"2  c #2E4B14",
"3  c #324E12",
"4  c #344B1C",
"5  c #2E5213",
"6  c #355413",
"7  c #385613",
"8  c #365A14",
"9  c #3A5C14",
"0  c #35551A",
"q  c #3B551D",
"w  c #365B1A",
"e  c #3A5D19",
"r  c #39630F",
"t  c #356113",
"y  c #3C6315",
"u  c #3E6A16",
"i  c #37631A",
"p  c #3C641B",
"a  c #3E6A1B",
"s  c #3F711C",
"d  c #3A4729",
"f  c #3C5A22",
"g  c #3B5626",
"h  c #3E4530",
"j  c #3D6521",
"k  c #3E6B21",
"l  c #3F622A",
"z  c #415D1C",
"x  c #406516",
"c  c #416B16",
"v  c #40651C",
"b  c #416C1C",
"n  c #44731D",
"m  c #46791C",
"M  c #497B1F",
"N  c #46741B",
"B  c #435B2A",
"V  c #445826",
"C  c #465737",
"Z  c #534A3C",
"A  c #436623",
"S  c #426D22",
"D  c #44632B",
"F  c #48692A",
"G  c #457422",
"H  c #497622",
"J  c #467923",
"K  c #4A7C23",
"L  c #487629",
"P  c #4A6533",
"I  c #4B6736",
"U  c #52683B",
"Y  c #4D7332",
"T  c #557537",
"R  c #50742B",
"E  c #63703E",
"W  c #474948",
"Q  c #485245",
"!  c #545B4A",
"~  c #5B5C5C",
"^  c #555754",
"/  c #665A52",
"(  c #4C6743",
")  c #536444",
"_  c #586848",
"`  c #597647",
"'  c #5E625C",
"]  c #5B6654",
"[  c #5C7454",
"{  c #64694C",
"}  c #637547",
"|  c #64655A",
" . c #656A5A",
".. c #6B6C5C",
"X. c #686555",
"o. c #716E5A",
"O. c #68775A",
"+. c #71725C",
"@. c #767A57",
"#. c #70754D",
"$. c #5E5D61",
"%. c #5B7069",
"&. c #626462",
"*. c #666A64",
"=. c #6C6E63",
"-. c #6A6D6A",
";. c #676969",
":. c #716F60",
">. c #6E7164",
",. c #6E736B",
"<. c #667B67",
"1. c #737364",
"2. c #74766B",
"3. c #747C6D",
"4. c #797B6C",
"5. c #787764",
"6. c #6C7477",
"7. c #747573",
"8. c #757A73",
"9. c #7A7D74",
"0. c #757E7A",
"q. c #7C7B78",
"w. c #6A6E72",
"e. c #4D8225",
"r. c #4F8528",
"t. c #518927",
"y. c #61803E",
"u. c #5F8A42",
"i. c #688949",
"p. c #67825A",
"a. c #768558",
"s. c #769156",
"d. c #7A8969",
"f. c #6F8379",
"g. c #7C827D",
"h. c #778878",
"j. c #798F6D",
"k. c #858C5A",
"l. c #85886A",
"z. c #83887A",
"x. c #8B9877",
"c. c #979777",
"v. c #92946C",
"b. c #AC8060",
"n. c #99A277",
"m. c #C29C64",
"M. c #C9A872",
"N. c #C19350",
"B. c #7B8583",
"V. c #7D8B8D",
"C. c #7A8A87",
"Z. c #7D8E92",
"A. c #788F91",
"S. c #838583",
"D. c #848A84",
"F. c #828D8B",
"G. c #89898A",
"H. c #86958D",
"J. c #979888",
"K. c #808F92",
"L. c #839394",
"P. c #84959A",
"I. c #85989F",
"U. c #8A9897",
"Y. c #939C99",
"T. c #A69E88",
"R. c #B29D8F",
"E. c #9CA284",
"W. c #93A29F",
"Q. c #A7AA8B",
"!. c #B7A987",
"~. c #ADA792",
"^. c #B8B497",
"/. c #BBA792",
"(. c #859CA3",
"). c #8A9DA3",
"_. c #869FA8",
"`. c #949FA0",
"'. c #8CA1A5",
"]. c #8CA3AA",
"[. c #93A3A4",
"{. c #94A6AB",
"}. c #95A9AD",
"|. c #9BABAC",
" X c #9BA6A6",
".X c #8DA7B1",
"XX c #9BAEB3",
"oX c #95ACB3",
"OX c #9CB1B5",
"+X c #9CB4BB",
"@X c #9EB8BD",
"#X c #98B0AD",
"$X c #A4ACAB",
"%X c #A1ACA7",
"&X c #A3B3B5",
"*X c #A2B6BB",
"=X c #ABBBBD",
"-X c #A8B7B8",
";X c #AFB6B2",
":X c #CAB798",
">X c #CAAC90",
",X c #C8B7A8",
"<X c #B0C1BD",
"1X c #D1C4B2",
"2X c #9FB8C0",
"3X c #A4BBC2",
"4X c #ABBEC3",
"5X c #ACC1C6",
"6X c #ADC4CB",
"7X c #A8C3CA",
"8X c #B3C3C4",
"9X c #B3C6CA",
"0X c #B5C9CD",
"qX c #B9CBCD",
"wX c #BFD2CF",
"eX c #AFC9D0",
"rX c #B4CBD2",
"tX c #BBCED3",
"yX c #BED1D5",
"uX c #BCD3DB",
"iX c #BAD4DC",
"pX c #C1D3D5",
"aX c #C3D6DA",
"sX c #C5D9DD",
"dX c #CADBDE",
"fX c #C4DBE1",
"gX c #CBDEE2",
"hX c #D0DFE4",
"jX c #CEE0E4",
"kX c #CEE5EA",
"lX c #C6E1E6",
"zX c #D1E2E6",
"xX c #D4E5EA",
"cX c #D3E9ED",
"vX c #D9E9EE",
"bX c #D7ECF1",
/* pixels */
"S 8 a a S v e u 9 0 u 9 * 7 b m e.G 7 e b i i n H e G S n b 6 b c 9 p M n j k p 6 j H p 9 : y e J J w p y e 7 t 9 0 G J k n i < ",
"e : S S G p p i b 9 : 8 e a k N b p u 7 e b u 8 G p a j G x * 9 * 7 9 y x b J L x 9 : * 8 e u j v J b p u p : : 6 6 G K k 8 < 9 ",
"p 8 e y v e t 6 M c y 9 6 S K p 7 * 0 7 * 7 u 8 a H H b p y 8 w 9 w 6 3 y 9 e b b v 7 9 w 0 a a k c p e 6 b b u 9 , 8 u u u i 7 ",
"6 e p n i i a n r.N 9 y e G K u y y i w e e w 0 i G S K p y u y k S 7 0 c n p i 8 * 6 j J b 7 9 G b w 7 8 H v p 8 V i.a.A 8 9 e ",
"p a v N n N n N J _ [ >.<.i.i.Y y 6 i x i y a p p u y c M c y a t.K A e y < > < y 8 0 b N b c c < : e 9 N u p J y.Q.pX1Xa.* w p ",
"v S p 9 m n G u ( q.S.S.S.j.d.<.T f i n b y L 6 r r 9 < 9 j p H b e b u < & = < N H p G x y b 9 = 9 y m b n u u x.>Xm.:XJ.D t b ",
"b p p p , u H m O.2.q.8.7.-.;.*.{ B t p j d.^.~.T r : x H b c b a 9 x u : = & 9 G u M N c 9 y > < : x S a x n $ T Q.>X^.l.e m e.",
"p i c S p M e.Y ] *.;.;.*.;.&.;.~ B r : P ^.M.^.c.5 < n K w j e w 6 6 9 < > 6 6 6 e m e.G 7 * 9 p 9 y G L r.x 3 % } c.x.I i G i ",
"* 8 b K J K s C &.&.&.' &.&.' $.^ g r $ D ^.>X,Xx.2 a J n p 7 3 e 8 6 c M r : i y 7 G b 9 $ 7 p 8 G i c j x u 9 1 j R f w a y w ",
"* x J k p p i C ^ $.' ' ' $.~ ^ C p : $ 0 { T.E.I 0 0 e u N p w 7 9 p e.e.K 9 = 7 6 9 x 9 9 w p u b > u 6 e 9 7 w w i i j p 9 6 ",
"7 n G a a k i 7 h Q ` ] ^ Q W B S S 7 7 8 1 P q w i 0 S S G u u p 9 b a E v.k.E A : x a 7 e 7 e p a p c 6 a n 7 8 w e p a u 9 9 ",
"p y e J S n y $ 2 g g d d + 4 w p b b u 6 6 y % 7 e k s H s i 7 y p p ; _ M.>Xl.q : p e x e e v e e i x 0 6 a y 5 7 i i p y 7 9 ",
"u y y K L a u 7 3 5 1 o 1 1 2 0 p b p p 6 9 J e y j L e.y 9 a 8 6 i p 8 D l.c.! 6 6 6 9 p p 7 p a G e b a 3 0 7 * < p a i t t i ",
"u n k G G i J n p 8 5 6 0 i a i a a p v : 0 9 u e p k r.7 9 a H p 7 y y , V B 3 i G i 7 9 n i e j H u e a v 8 7 b v 8 T s.s.K n ",
"G n n a , 8 a 8 u u p 7 a p p k p 7 7 a u 7 6 : p j k k b p > b p 0 9 p i i 8 , 9 c a 0 9 u e p p p b y 7 a u y b S ; i.1XQ.R u ",
"G i e.s i.i.a 6 p i 3 6 w w i p v 9 0 i a c n y n b i p G e 6 9 9 S J j b b i 9 * 7 i * b n 0 u v w p b 6 3 y p 8 p 8 T c.a.S t ",
"j 9 a i.^.:Xk.w 8 w 7 0 7 i a a y i 8 i w y e.p i a p k J j D q A T F S y 9 w w 8 8 3 9 u J p b A u i w 7 w 7 0 7 c b v f j n p ",
"S b i a.!.:XQ.f 8 9 p p p c s y i 9 8 w 8 9 F 0 a G k u n P g.<.f.|.{.v u 0 e s p 0 7 y e q 7 c G N n i e b b i 0 a n u 5 a G j ",
"b p 9 4 @.c.{ 2 b u 8 s b y c y p S P _ p.H.).H.H.U.h.} j. X+X*X9X5X&X[ V 7 I T L g j 7 e S 7 x n u n b u b K N p x M u q w w i ",
"y 8 w $ 4 e $ & u n a a b ) <.O.h.6XtXiXuXuXaXaXsXjXjXhXkXfXyXsXaXyX9XrX#Xh.}.'.#X(.I p b H n y N 9 a b K S i p p N m y * > : 6 ",
"b y p i u % 8 > j m Y [ P.4XiXuXsXsXsXpXsXsXdXdXzXvXhXhXxXxXxXxXgXfXlXkXlXkXsXfXiX3Xf.( i n m m N 7 w S K v i 9 v v u u p y 9 x ",
"a 3 e 9 S 9 9 6 l <.oXiXiXuXaXfXaXsXpXsXdXjXxXvXzXhXhXdXdXdXhXxXkXxXgXgXvXbXbXcXlXiXeXL.f 8 n N u 7 6 a p 0 8 9 p S S S e.n 7 n ",
"e 6 7 7 w a B <.3XrXiXiXfXaXaXaXsXaXdXjXzXzXzXxXhXdXhXhXdXdXdXhXxXxXgXzXbXbXbXcXlXsXeX+X[ % n N y 6 7 7 7 9 9 e F k b H K S 0 0 ",
"0 p u a i ( +XeXrXrXiXfXaXaXaXaXdXdXdXjXjXjXjXzXhXdXdXhXdXdXhXzXxXxXxXkXjXcXjXdXsXuXeX7Xf.8 r.K i b x y 6 J P ^ ] U S u H n u < ",
"y 9 a s ( 2X7XeXrXiXiXuXaXaXaXaXsXjXgXgXgXgXgXhXhXdXhXhXhXhXhXxXxXxXxXxXxXzXsXtX6X6X4X7XA.; c e p S v b v I ' &.;.7.*.Y n i * : ",
"9 9 m l _.eXeXeXrXiXtXyXpXpXaXaXsXsXgXkXxXhXdXdXgXhXhXhXzXhXxXxXxXxXzXxXxXxXkXaX=X|.}.[.I 8 y p p v p L ) ~ &.;.7.B.z.3.) G x 9 ",
"H 7 b p.3X7XeXeXrX0XrXtXtXuXpXfXaXaXgXgXdXhXdXsXaXdXdXdXhXdXdXhXzXzXzXhXzXxXgXfXrX}.U.f.g a e j j p 9 C ~ ~ -.2.9.S.H.G.| q t u ",
"u S l .X3X3X6X9X6X6X9XrXtXtXpXaXyXpXsXsXdXgXdXpXpXaXdXdXdXdXdXdXdXdXgXdXdXdXaXaXgX0XL.) 8 a w p j p p Q ~ &.-.0.g.D.G.S.] f i S ",
"k 3 %.2X2X2X3X7X5X6X9X9X0XtXpXtXyXsXfXsXsXaXpXpXpXpXpXpXpXpXpXaXaXaXaXpXaXpXpXsXlX4XO.w u a 7 A p p y L _ _ [ 8.z.D.z.0._ S , * ",
"y 4 Z.2X2X2X3X3X3X5X5X4X0XrXtXtX0XtXyXaXpXpXpXqX8XpXpXpXsXpXpXpXtXqX8XqXpXpXyXgXkXkX#Xa u 9 i i a p p S D L P !  .O.O._ P a 8 > ",
"9 C .X2X2X2X2X2X*X=X3X4X9X0XeX4X5XtXsXgXhXgXaX8X;X8XpXpXpXpX4X=X0.w.%X;X8X8X9XyXgXcXuX_ v 6 7 e S a i e n S 2 o 4 0 G a i 7 6 7 ",
"3 %..XoX.XoX+XoX+X+X+X*X3X4X3X3X4XtXfXxXxXgXfXaX8X=X4XqX4X4X=Xw.O O 8.$X$X;X=XqXsXlXlXC.u p 7 e * 9 u 9 c u 6 $ $ 2 u u N n 7 9 ",
"w %..X.X.X'..XoXXXXXXXoXXXOXXXOX*X0XtXsXfXaXpXtXqX4X4X-X=X;XG.# . . ,.$X|.<XyXsXgXcXkXrX` s n 9 : = r x u y 9 8 9 9 , c M b i p ",
"$ 6.Z..X'.]..XXX.X{.[.XXOX}.XXXX|.*X4X9XqXtXqX9X4X4X&X%X X`.q.$.W W  X8XqXdXzXdXcXbXkXcX@XL N y y u < < x K x y n , & y u 9 9 p ",
"l f.Z..X_.'._.].].'.[.{.}.'.[.}.'.{.|.=X4X9X4X=X-X$X%XG.G.S.q.G.oX3XyXsXdXjXjXjXbXcXlXwX}.g b n n n i 7 w p 8 9 r T j.R $ 6 7 p ",
"Y %.Z._._.)._._.'.'.I.).).I.).).L.U.`.&X&X|.%X X`.).U.S.z.S.G.`.3XiXyXyXxXjXpXdXjXlXwX8X#XI a M M n n p w 8 a : f v.:Xn.A , p a ",
"k ( A.A..X(.(.(.).I.P.P.U.P.).L.F.L.`.`.Y.G.G.D.S.F.g.7.z.S.g.`.5XqXqX8XdXdXwXwXqXpXwX@XL.Y w s v z n 7 w y 6 $ B c.1XJ.F t b b ",
"j Y f.A.Z.Z.Z.Z.).(.K.P.L.L.U.K.B.K.U.G.q.q.4.5.=.^ @ @ ' S.S.Y.$X8XqX8XqX<X<X;X&X<X;XW.f.n a S b w S x a a i 6 7 { l.U 8 n G e ",
"k s ` C.V.C.V.V.K.K.G.K.Z.V.L.B.g.B.B.q.4.4.4.o.X..     W q.U.oX$X-X<XqX0X<X<X XJ.W.J.H.O.y G J S j b H i 9 b i 7 * w i n r.S w ",
"k i k ` 6.0.6.B.B.B.C.Z.F.V.B.9.8.8.8.2.2.4.5.o.X.Z . X W C.{.*X=X;X;X8X4X(.<X#XD.z.h.h._ p a a A u x p e : 7 a p y s M K K k i ",
"s w p k [ ,.,.8.0.0.B.B.C.C.g.2.*.]  .,.1.2.4.5.X./ Z Z >.'.+X3X4X$XG.Y.G.6.].`.z.4.4.) D G a w a b b 9 S i * p 9 x G k n S p e ",
"t i a b K _ *.>.>.2.8.0.0.0.8.>...] ]  .>.1.2.1.o.X./ / 3.U.).XX.XZ.7.6.G./ B.K.8.) O.U A p G p a p j i x K 7 7 7 a p f a u 9 7 ",
"s 8 a a G v D  . .*.1.2.7.2.>.=...| X.| ..1.1.2.1...X.X.8.F.C.D.9.~ # @ @   W C.) > 9 x p w n S S S p 8 : b j 6 p x p a S c 9 y ",
"k * p 7 9 i y C  .....-.2.>.>.>...| | ..:.:.5.2.1.:...:.1.2.4.d.1./ O . X . Q ,.V * 6 * a c 7 7 K r.p 0 u x 0 e y > p a S b 9 n ",
"w 0 7 7 a n a H I ( >.>.>.1.>.1...| X...1.1.1.2.2.=...:.:.:.5.5.+...! @ + ^ | _ q : y 0 b K n p p b A 7 7 n G G j j S y H S 0 7 ",
"9 a w 7 u N n n G k B B ] >.=.=.*...X. .=.1.1.2.2.>.1.1.:.1.1.@.+.#.+.+.....X.V p u p 0 y N N < b a w 6 e c c G p a u u G G 9 7 ",
"x 7 9 y 7 : y y y a a p j q C {  .1... ...1.1.1.>.1.1.1.2.1.5.5.+.o.o.o. ._ C > y e 0 p y c y < & y y i n u c c p y < < p e : , ",
"b 9 x 9 b 6 y s y A Y F x x 9 * V V ! ]  .>.....1.:.1.:.1.5.5.+.+.o.o.+._ v x x p p 9 u p 7 x > , x N y c K G b b u * 9 a p 9 9 ",
"K p b N N e w $ Y Q.;XQ.F t n 9 p w 1 z P 1.=.1.1.1.1.>. .U { o.{ { o._ b 9 7 k j 3 > p 0 p u c N u * S v J p x c a 7 > 9 y a p ",
"u H N n p x 8 ; d.:XM.,Xl.p a b e 7 9 y e _ 1.>.1.5.>.>.D < p U q 0 V e u i G L n < : 6 7 K e.n < u R e 9 i e S u e 7 > < x w S ",
"p J e.J K p $ ; x.:Xm.>Xj.k t u 7 w 9 9 v 7 C O.3.-.g.j.` U x b b x a p b v G H 6 8 9 : 9 N a e F v.^.n.z 9 K 9 w w 9 x u a J L ",
"8 p S 7 e e.b ; ` ~.;Xn.P 8 a a v 9 w p n e.i.S.S.S.S.d.O.&.V 7 8 x K b c b H S w e 6 S a i u w k./.N.>X#.: x y i w e G G p y w ",
"y a b J j S N 0 3 4 U q $ S n p i 7 k p 6 B 3.0.0.7.,.,.&.$.F i 7 7 J J j 0 a b b G 6 0 p 9 a 0 } !.b.R.} 6 7 u 9 e j p e p u 7 ",
": 8 n G S b 9 : i 6 o 2 w b j e p u u * 6 B 2.-.-.-.;.&.' ^ f n 8 9 n b e w w 7 p H 9 : a j e w 4 #.c.@.j 0 7 b 7 6 w p a a y 9 ",
"8 u a L L n u 8 y S a p b e q p e y 9 w i F | ;.*.| ' $.' Y e H 7 9 b G j j p w p u w 7 a S A a 6 0 f p i 3 6 p 9 0 w j S c 9 9 ",
"u H G j v w p e : x 7 w u a k k 9 b n 6 , a C [ ~ ~ ) C C F 9 S 0 p b s G K S p 9 * * i u a a p i p i i 7 7 a p 7 u a j p v p p ",
"u 8 n b A G k w 7 9 b G J J S b S G c < 6 w j g h h g 2 f K i 2 7 u y y G r.G e i 9 x b 6 e w b G J K 7 9 9 7 p i > * < m e.u 8 ",
"a 8 a M b H J p 6 7 b b S b b y 7 j 9 y 9 p k 4 1 1 2 a b b H k y & 8 y t s k y y u n H 9 p a b u a L 8 : 8 7 b M p 7 H K M u 7 ",
"k y u M s i S e 9 i 9 x 9 y N x e S u b a j K J 5 0 7 n H a K L y * 9 8 s s t p S S S v n u a x 9 y a 0 * y e v b u s.!.k.S y i ",
"k G b y < y c u N H 7 9 u < < 7 b K S S c b r.J j j u b n u x b H a t i.n.x.T t b H G p J s i 9 x 9 b b w e a a c y c.1Xc.j t K ",
"a b G 7 y c c N N S a 9 p y & : u b S j p p k p a s u u b 9 p M M u Y J.:X:Xx.p y a p v S c 9 p < > c b a e k j u : } a.U 0 i J ",
"e e a x n x M M b p p 7 7 e r x a a S K H b 3 w k e.a e u 7 7 K M , I Q.M.:XJ.H u 7 0 i e y 7 b < x x w a 9 0 p k 8 7 8 8 6 0 p ",
"b S A b S b v H v 6 8 : 7 j a p p w b S b c 8 w G K J b p 7 6 b s 6 2 @.~.Q.@.a n 9 9 7 3 e i p a N N p 7 : : i L G p y u p 7 9 ",
"b n i S n i 8 9 a 7 7 , i G S p 9 > 9 6 0 y 6 8 f A a G p i 8 y 8 8 $ 0 { _ 2 6 c i e e e 7 j p e J K b 3 9 i 6 S N N b n H a 9 "
};
