/* XPM */
static char *result[] = {
/* columns rows colors chars-per-pixel */
"64 64 237 2 ",
"   c #302B36",
".  c #232B1C",
"X  c #44333A",
"o  c #2D4C0A",
"O  c #324D0C",
"+  c #304805",
"@  c #35530E",
"#  c #38590E",
"$  c #2E4A13",
"%  c #334E11",
"&  c #334C1A",
"*  c #355413",
"=  c #395614",
"-  c #365A14",
";  c #395C14",
":  c #355619",
">  c #365B1A",
",  c #3A5D1A",
"<  c #3B551B",
"1  c #3C6315",
"2  c #3E6A16",
"3  c #3C631B",
"4  c #3E6A1B",
"5  c #366216",
"6  c #3F711C",
"7  c #3B5A22",
"8  c #364F21",
"9  c #3D6521",
"0  c #3E6A21",
"q  c #425B1C",
"w  c #416C16",
"e  c #41651C",
"r  c #416C1C",
"t  c #426518",
"y  c #44731D",
"u  c #467A1D",
"i  c #497B1F",
"p  c #46741B",
"a  c #455C27",
"s  c #455437",
"d  c #426D21",
"f  c #476727",
"g  c #516A2C",
"h  c #447422",
"j  c #497622",
"k  c #467922",
"l  c #497C23",
"z  c #477529",
"x  c #4B6435",
"c  c #57683C",
"v  c #547638",
"b  c #4D7730",
"n  c #64673F",
"m  c #4D3B46",
"M  c #395D4C",
"N  c #545050",
"B  c #62575C",
"V  c #566A45",
"C  c #5B7647",
"Z  c #5D6359",
"A  c #5F7252",
"S  c #626B46",
"D  c #647548",
"F  c #61695A",
"G  c #697757",
"H  c #747B59",
"J  c #70754D",
"K  c #5C5A62",
"L  c #506C67",
"P  c #676966",
"I  c #6D7667",
"U  c #777775",
"Y  c #717270",
"T  c #AF1531",
"R  c #AF243B",
"E  c #9F071E",
"W  c #B53754",
"Q  c #9C5259",
"!  c #B6536A",
"~  c #897871",
"^  c #AB667A",
"/  c #AD4A5E",
"(  c #4D8325",
")  c #568534",
"_  c #5F8544",
"`  c #67874A",
"'  c #6B8758",
"]  c #758659",
"[  c #769156",
"{  c #6C8663",
"}  c #798869",
"|  c #77867A",
" . c #7D9378",
".. c #7A9367",
"X. c #828F5C",
"o. c #838977",
"O. c #849776",
"+. c #969877",
"@. c #898E6D",
"#. c #A9926F",
"$. c #CAA76F",
"%. c #C19350",
"&. c #747988",
"*. c #94788F",
"=. c #A56B86",
"-. c #A7778A",
";. c #AA7991",
":. c #B97B8B",
">. c #6B8A91",
",. c #5AA8B9",
"<. c #64A9BB",
"1. c #5D98A6",
"2. c #65BBCD",
"3. c #6CB7CB",
"4. c #6CC3D6",
"5. c #77C4D6",
"6. c #6FD4E6",
"7. c #5FD4E7",
"8. c #868685",
"9. c #8A9888",
"0. c #96968B",
"q. c #998897",
"w. c #8B9A94",
"e. c #969897",
"r. c #948384",
"t. c #A59C88",
"y. c #B78798",
"u. c #A5989B",
"i. c #A99198",
"p. c #9BA499",
"a. c #94A38B",
"s. c #A7A79A",
"d. c #B3AF8F",
"f. c #9A97A2",
"g. c #AC99A8",
"h. c #9CA6A6",
"j. c #92ABAF",
"k. c #A6A8A6",
"l. c #B6A9AA",
"z. c #ACB3A9",
"x. c #B5B5AD",
"c. c #ABAEB2",
"v. c #B7ABB6",
"b. c #ACB4B4",
"n. c #ADB5BA",
"m. c #A8B6B9",
"M. c #B2B4B3",
"N. c #B4B9B5",
"B. c #B4BCBC",
"V. c #BABEBB",
"C. c #B8B9B7",
"Z. c #CDB797",
"A. c #D3B397",
"S. c #C49BA9",
"D. c #CC99B0",
"F. c #C1A9B5",
"G. c #D7A6BD",
"H. c #C6B3B4",
"J. c #C48B9B",
"K. c #BDC2BB",
"L. c #B9C4BA",
"P. c #C1C4BE",
"I. c #C7C8BA",
"U. c #D6C3AE",
"Y. c #8FBCCD",
"T. c #A9BAC2",
"R. c #B5BDC2",
"E. c #B9BBC7",
"W. c #C8ACC3",
"Q. c #C6B8C7",
"!. c #95C9DA",
"~. c #B7C0C4",
"^. c #BBC3C5",
"/. c #B5C3CB",
"(. c #BCC5CB",
"). c #BEC9CB",
"_. c #B6C9CB",
"`. c #BDCBD3",
"'. c #BAC7D3",
"]. c #BBD4DB",
"[. c #AAC6D0",
"{. c #96D7E3",
"}. c #BCCDE3",
"|. c #C2C4C3",
" X c #C4CBC4",
".X c #C2C5CA",
"XX c #C3CBCC",
"oX c #CACCCD",
"OX c #C9CBC5",
"+X c #CAD1C5",
"@X c #C7D0CD",
"#X c #CCD3CC",
"$X c #CCD7CA",
"%X c #D0D6CC",
"&X c #D4DBCD",
"*X c #D8DFCF",
"=X c #C4CDD1",
"-X c #C9CDD2",
";X c #C4CDDB",
":X c #C9CEDA",
">X c #C7C7D4",
",X c #C5D1D3",
"<X c #CBD3D4",
"1X c #C5D3DB",
"2X c #CCD5DB",
"3X c #CED9DC",
"4X c #CCD8D6",
"5X c #D4DBD4",
"6X c #D1D6DC",
"7X c #D3DCDC",
"8X c #D5D8D9",
"9X c #DEC5D2",
"0X c #D8E0D6",
"qX c #CCD5E3",
"wX c #CDDAE3",
"eX c #CEDBEB",
"rX c #C8D6E7",
"tX c #D2D7E2",
"yX c #D3DBE4",
"uX c #D4DDEA",
"iX c #D8DFE8",
"pX c #CDD9F0",
"aX c #D3DEF1",
"sX c #C0CBE1",
"dX c #D6E1EC",
"fX c #D9E2ED",
"gX c #D8E1E2",
"hX c #D6E2F3",
"jX c #DBE4F4",
"kX c #DCE6F9",
"lX c #DEE9FA",
"zX c #DEE9F5",
"xX c #E0E5E7",
"cX c #E1ECFD",
"vX c #E1EAF6",
"bX c #E5F2FF",
"nX c #E9F2FE",
/* pixels */
"d - r 4 d d > 2 > * r ; O - w i ( j > , r 1 5 h z , h d p y % y e ; 5 k y , 0 3 : 4 y 4 5 @ 1 3 z z , 3 1 > - 1 , * h h h r 1 # ",
"> @ d d h 3 3 1 r > O - , 3 r p r 5 1 = d I D a h e 3 9 z z a x x C C C v v b ' | e.w.G 7 ; 2 3 3 k 2 2 2 3 @ @ * * j l 9 = # 1 ",
"3 - , 1 e , ; * i w t - & h l 3 = % * 7 c.rXrXE.D { ' ` j.(.1XsXyXeX;X/.'.E.T.'./.E.E.T.w.a 4 3 4 w 3 5 * t y 3 ; - - w 2 2 1 > ",
"* > 3 y 5 5 4 y ( p 1 1 5 h l 2 3 v 9.n.hXuXqXuX'.rXsXrXdXdXhXdXhXuXqX;X;X2X3XqX2X1X>X).'.h.9 - h r < > 1 z 3 5 - 7 ' ` d - > , ",
"3 r t p y y y y k v F I I ` _ v k.qXrXuXaXtX2XtXqXqXtXuXaXjXhXuXiXqX;X=X;XyX3X4X8X4X<X@XXX(.w.v ; @ > , p 1 3 l _ d.I.U.H O > 3 ",
"e r 3 , u y h 2 V ~ 8.>.8.} | { rX;X;XS./ Q.:X:X:X1X;XyXzXQ.9XyXyX3X:X'.'.8X7X<X<X<X%X<X#X.X^.R.p.G f _ { ..9.9.O.d.$.Z.0.f 5 r ",
"r 3 3 3 # 2 h u A Y U U Y Y Y m.pXW.! W E J.:X-X:X:X.XqXJ.T ! tX,X<X<X)./.,X7X7X5X<X#XoX#X%XXX^.).~.m.R.'.`.'.'._.N.l.l.o.3 p ( ",
"3 5 r d 2 i ( b Z P P P Y w.f.pXpXW.;.^ W D.-X-X:X-X-Xv.R E R A./ l.<X=X.X).0X0X5X5X#X XoX%X$XOX^.).(./.).`.=X`.).~.n.h.v 5 h 1 ",
"O - r l h l 4 x Z P K Y ].hXhXhXaXW.;.*./ y..X6XtX6X:XF.W E / #.T :.5X XR.~.<X8X7X5X5X#X X+X&X%XXX X).'.'.`.`.`._./.R.n. .0 3 : ",
"O t k 0 9 9 5 s N K P T.aXkXhXkXkXW.^ f.;.g.>XtXiXtX6Xl.T ! Q Q / ! ,XXX=X).).).<X5X5X5X+X X&X5X#X|.).).=X`.`.`.)./.R.n.c.' ; * ",
", w h 4 3 0 5 : s N | pXjXjXhXaXaX:X;.Q.:XtXtXiX6X6X3XQ.! ^ i.y.R :.3X,X,XXX).^.).<X5X5X$XP.%X*X%XOXXX@X=X=X`.`.)./.R.b.c.9.; ; ",
"2 1 5 h h y 1 + $ w.].hXkXjXaXaXuXtXqXiXuXuXtXtX6XtXyX2XH.^.|.! ! OX3X,X,X,X=X).L.XX*X5X&X+X+X*X&X$XOX,X,X,X=X'.(.E.R.b.w.O.@ > ",
"1 2 3 l z 6 4 ; V pXaXkXkXaXvXaXuXtXuXaXfXyX6X6X6X6X6X8X8X6X<XS.H.5X<X8X<X,X,X).~.~.#X0X5X%X+X&X*X%X+X#X,X=XXX).(./.m.9.5 2 1 2 ",
"3 y 4 h 6 3 h y  .aXkXkXkXjXjXiXiXjXvXuXtXiXtX8X:XoX-X8X2X8X6X8X#XoX8XyX3X2X,X).^.~.@X0X0X&XI.$X&X&X%XoX<X,X=X).(.R.n.' ..` l 4 ",
"h 6 h 4 5 # 4 { eXkXcXvXvXiXiXvXcXjX:XE.Q.8X8XiX-XoXoXoX3X3X6X8X-X<X8X8X7X3X<X,XXXR.^.&X*X*X+X+X*X&X#X XXX=XXX)./.R.m...U.d.b 2 ",
"h 1 ( y ` ` 4 _.lXlXcXjXaXuXiXaXfX-XE.f.u.|.6X8X%XI.H.v.H.6X<X6X<X%X8X7X7X3X4X@X^.L.V.+X0X&X%X+X&X&X%X X XXX).XX(.B.k.D @.] d 5 ",
"9 > 4 ` d.Z.+.L.kXkXhXtXuXtXtXyX:X=X*.  N q.~.XX%XH.r.K P E.8X<X%X<X4XgX3X3X3XXX).B.L.^.*X0X$X+X%X%X%XI.L.^.(.(.~.B.9.4 7 9 0 3 ",
"0 t 5 ] d.A.m.aXjXkXhXiXuX6X2XyX2X-Xq..   q.iXgXgXC.N     u.7X<X<X<X5XgX7X4X<X,X).L.L.).$X0X*X+X%X*X%XL.B.L.~.L.R.b._ 2 @ 4 h 3 ",
"y 3 1 & G +.' m.nXcXjXgXtX=X=XyXtX<X.Xr.Y M.8X7XxXl.N   Y <X5X%X%X8X4X0X0XyX<X=XXX~.L. X$X0X&X$X$X*X#XN.N.N.B.N.9.` k 3 = > > 5 ",
"1 - : o * 7 x dXnXvXfXyX6XXX.XtXtXtX-XE.v..XQ.oXiXoXM.M.<XiX8X5X4X5X4X4XgX0X3X,X).~.L.^.$X*X&X+X$X0XI.9.O. . .C e p p 1 % = * * ",
"r 1 ; 3 r + C kXzXfXdX2X-X^.<X6XtX2X2XtXuX:XE.Q.<X6X8XgX7X5X<X8X5X5X5X4X7XgX3X3XXXB.N.N.I.0X0X$X+X&X+.h ( 3 ; ; r t 3 2 t 1 - t ",
"4 % 3 - d ; > a.p.L.3X<X-X(.-XtXyXyXtXaXcXtXQ.>X-X2XiX0X7XOX$X5X<X<X5X4X8X0X0X3X<X).b.N.L.&X&XI.+X&XD 4 > : 5 ; 3 d d r ( y > y ",
"> * - - < 4 ; < @ ' -X6X<X.X6XuXiXjXtXqXpXE.g.c.XX<X3X0XgX0X5X5X#X<X#XOX@X<X4X3X,XXXN.N.).&X$XI.#Xz.q - > , ; 3 f 0 r j l d * * ",
"= 3 4 4 3 4 , * 1 } XX<X.Xs.1XyXfXvXQ.v.f.Y N B ~ XX<X7XyX0X5X7X<X#X%X^.|.#X4X4X@X^.N.L.+X&X$X+X X' w # * k x N Z c h t h y 2 ; ",
", ; r 6 t 3 - , - G z.~.B.y h.gXiXiXC.s.r.m m X B C.+X#X<X5X5X5X5X@X#X^.P.#X@X@XXX^.b.N.+X&X$X+Xs.d 4 y d x Z Z P Y I z 6 5 O @ ",
"; , p 0 > t @ * = e z O.O.3 ' dXtX8Xx.t.0.m   X e.x.x.OX5X4X4X5X0X#X4XK.K. X@X@X@X^.z.N.$X&X%Xz.b 3 3 z V K P P Y >.8.I V d 2 1 ",
"p ; y l 1 > , o 3 e * O 2 h C -X6XoXC.x.z.~   B ~ 0.d.|.#X+X<X5X3X@X XN.L.@X<X@X@X~.m.L.$X&XL.C 9 3 - s N K P U | o.q.8.Z , ; 4 ",
"2 4 y h i > 3 ; r ; * 3 ( l v v a.V.OXI.x.u.P B o.k.s.P. X XOX$X%X@XN.k.V. X X).L.L.N.+X$XL.` 3 9 3 2 N K Z I U o.8.8.8.Z 7 3 9 ",
"r * > r d 3 3 4 w 1 & r r - 3 9 > s.oXOXP.C.V.L.|.V.x.x.K.K.K.I.XXOXi.~ 0.u.k.k.p.k.P.5Xz.v - 9 3 3 3 z V V G Y | 8.8.U A 4 # @ ",
"3 O = d d d 5 % , j O * ; - 3 > g ). XK.P.P.H.P.P.K.C.V. XI.C.c.M.H.r.~ t.e.u.k.B.L.I.d.j 1 > 1 4 3 2 4 x d s V F G ' V x 1 - @ ",
"- = r l 9 , r 3 k p 2 = x ' 9.w.h.v.c.v.P.V.P.|.OXP. XP.$X XV.C.x.F.S.oXgXgXgXgXgX`.@.z e * < > d 5 3 > r h $ $ & 8 p 4 1 , * @ ",
"O , 3 h k 2 3 r d 3 f h.;XpXpXpX}.*.*.i.c.C.V.V.P.P.|.L.V.b.M.C.F.G.9XzXfX3X,X^.k.D 3 3 r t = , @ 1 3 1 2 3 $ o o * 1 2 p r , > ",
"5 * < > r p p ; 6 k >.aXhXkXaXpXsX3.q.=.=.g.i.q.i.l.g.y.q.g.v.F.G.Q.3X4X,X,X@X).M.v h 9 r h y ; @ + 2 t t 1 1 ; - 1 5 2 i t 5 3 ",
"O - 1 * > p i r h  .fXlXkXhXhXpXsXY.3.*.=.=.=.=.=.*.=.;.;.y.D.W.E.{.].,X,X,X,X,X/.O.r h l h u t 1 1 # # t u 1 1 6 # + 2 2 1 ; 3 ",
"1 ; - t 3 1 p 4 f rXlXlXlXhXdXeXpX}.2.<.*.=.;.=.=.;.J.G.G.G.E.Y.7.{.rX].4X,X,X,X).o.1 e d 3 t r p y 1 - > 3 ; , 5 v X.v o * > , ",
"j 1 3 r 3 2 3 1 z eXcXlXlXhXdXuXeXrX}.3.3.1.w.q.*.g.W.W.W.Y.{.7.6.].3XwX3X3X,X,X@Xp.t 1 3 d r u i y r 1 > , 5 * , @.Z.+.d # 3 t ",
"r d r l r , * 3 V kXlXzXhXhXdXeXrXwX].!.4.2.2.4.5.4.4.5.4.6.7.6.{.3XwX3X3X3X1X,X`.B.f # r h 5 4 3 t r * 5 5 = o a +.H.+.f 5 r 4 ",
"3 j h l y 3 * 5 | cXlXhXzXhXdXwXwX].].`.Y.,.,.,.2.4.2.2.4.4.3.{.].].wX3X3X3X4X,X@X~.F @ t y 4 h d > h e t 3 5 * * J @.V > y h 5 ",
"3 p p l r h > 3 L.bXzXhXfXdXuXwX3X1X`.[.T.j.>.L M 1.,.,.,.3.!.'.].wXwXwX3X3X4X,X`.^.0.> > 2 p k d 3 r j 3 ; r 3 * % > 5 y ( d > ",
"h 4 4 k r 0 d z rXbXzXhXfXdXyXyX3X1X`._._.L.1.L * > 8 M >.j.[.].].3X3X7XwX3X3X4X@X).b.a * 2 r 9 9 e e 1 5 * = 2 5 1 y l l l 0 3 ",
"r - 3 9 h , d o.bXbXjXfXdXiXyXwX1X4X]._._.[.j.| t d e s >.h.[.`.4X3X3X4X3X3X4X<X,X).b.c > h r > 4 4 4 1 r t O 5 = r h d h h 5 5 ",
"1 5 2 r ( 9 g ;XbXcXkXfXdXdXyXyXwX1X,X`._._.m.| , 4 x >.j.m.T.`.3X3X3X3X2X3X,X,X,X).n.S 3 r y 3 3 9 3 3 2 k > = > e 3 7 3 t , = ",
"4 - 4 2 h d S tXbXkXkXjXjXfXyXyXuX1X1X`.`._.T.9., k U j.T./.`.1X1X3X3X1X3X4X<X,XXX).n.c 2 > r r h d 3 > * r 9 * 1 t 3 4 r t - t ",
"d % , > , , V aXcXcXzXvXzXfXyXyXdX3X1X1X).^.N.>.0 b m.[.'.`.,X1X2X1X4X4X<X3X,X).).).b.a 3 t ; , k ( 3 * 1 t : 3 1 # 1 3 h e ; p ",
"; = * ; w y v pXcXcXcXvXzXfXfXfXyXwXwX3X1X).n.S 3 d m.E.`.1X1X2X1X2X2X2X<X<X,X,X).^.0.& d j p , 3 r d * @ y h h 3 0 r 3 l d : * ",
"; , > > 1 p v qXbXcXcXvXjXfXfXfXfXdXyX3X2X_.b.g , a m.'.wXeXwX3X2X2X2X2X,X2X<X,X).B.c < , p p # y e , % 1 r t h 9 2 4 w h h > # ",
"t * > t = @ D vXcXcXcXvXfXfXfXfXfXfXfXyX2X.X0.f 1 G 1XwXeXwXwXwX3X2X6X2X<X,X,X)._.c.a 9 2 w 1 # O 1 1 1 p 2 4 t 1 1 # # 3 > @ # ",
"r > t ; r q v.cXcXcXvXvXfXfXgXfXfXfXyXqX<X/.c > * 9.qXeXdXdXyXyX3X3X3X3X4X,X,XXXL.e.q 2 3 = 1 # @ 2 p 1 r i h r r 2 @ ; t 3 , ; ",
"i 3 r u h f E.cXvXvXvXaXvXiXiXiXfXyXyX2X<XN.a * @ h.qXuXdXdXwXeXyX3X3X2X,X,XXX(.B.~ # 3 * 2 2 r p 2 % 0 e z 3 t t 2 # @ q t 1 4 ",
"t l p p e e E.kXcXaXvXjXiXiXaXiXfXyX6X<XXXp.= h G ;XeXwXyXuXgX3X2X3X2X<X,XXX).R.c.n * * > l ( r # 2 g 3 - 5 3 r 2 , > @ # 1 > 4 ",
"3 k ( k l e f.kXkXjXiXiXiXiXiXiXiX6X2X<X^.0.q [ w.qXeXyXyXyXyXwX3X2X3X<X,XXX^.B.o.> 2 O , p 4 3 f @.d.t.q 1 i , > ; > 3 2 0 z l ",
"> 3 t > , ( k.kXaXjXaXiXiXiXiXiXiX6X<X<X).p.D 8.e.wXwXdXyXyXyXyX6X2X,X,X,XXX^.b.S > * 4 3 ; 2 > X.d.%.Z.J O w 3 3 > 3 y h 2 5 > ",
"3 2 6 k 9 d ] pXaXaXiXuXaXiXtXiXtX6X<X-X.X9.U U e.rXuXuXyXyXyX3X3X<X,X,X).^.B.0.f h * * 3 ; 4 : v d.^ d.n # @ 2 , > 3 3 > 3 1 - ",
"@ ; y h 0 y a '.cXiXuXuXiXtXyX8XyX<X<X=X).G Y Y e.uXhXiXdXyX2X2X2X2X,X).R.B.b.| t h , * 9 9 3 > < J +.H r # * d - * , 3 4 r t - ",
"- 2 t z z y d E.vXtX1XiXiXyX2X6X2X<X=XOXs.g Z P 8.uXhXiXyXyX2X2X,X,XXXXX^.b.p.c 3 2 = * 2 d d d = : 7 e 5 * * e > * > 9 h t - ; ",
"3 p k 9 e > 5 k.cXqXqXiXyX8X:X2X=XoX,X^.S 4 s G f.eXtXqXwX6X2X2X,X,XXX(.B.b.U , > O O 2 2 3 t 3 ; e > 5 = = 4 5 = 2 4 9 3 t 3 e ",
"2 - y y d h 0 o.aXqX:XtX2X-X-X-XXXoXXXc.< ; 9 7 e.qXtXyX2X2X-X=X=XOX.X^.B.0.z , , - t r * , > r h j k > 1 ; = 3 1 * O # u ( t ; ",
"4 * 4 u d l k A aXqX:X:X-X-XXX-X.XXX Xs., 3 h 8 R.uXyX2X<X-XXXXXXX).^.R.B.G d 3 2 2 h h ; 2 5 r 3 r k - @ * = d j 1 = p l u 2 - ",
"0 3 1 u r 1 r c uXqX:X-X-X.X.XoXXXz.u.H r 0 l v c.;X-X:X-X-XXXoX).^.R.n.k.g - 3 y d d 3 y 2 4 e ; t 3 > O 1 5 e p 2 [ d...d 1 1 ",
"0 h y 1 # 1 2 t 8..XqX-XoX.X|.V.k.J f r t 4 ( l 8.>X2X2X<X<X@X@X).~.B.b.@.O.b 5 t z h 3 h 6 5 1 t # r r , > 3 4 2 1 +.U.+.9 5 l ",
"3 d d - 1 w w p j 9..X|.V.V.x.H f r r d 3 4 d , 0.3X2X2X<X,X@X@X).).e.o.A.Z.O.2 # r 3 0 d t - 3 # # w r 4 , d 9 2 @ n } c * 3 k ",
"2 , 3 t y 3 p ( t 5 D } o.} H t 4 3 d l j r % > g b.=X2X<X,X@XXXB.e.S t.$.A.0.d 1 > - 3 ; t - d t # w > 3 # = 3 0 5 # - @ * : 3 ",
"e d r r h 4 t j r * = @ - 9 4 4 3 > r d r t - > 0 H b..XXX#X^.z.D & * H t.s.H 2 y ; - = % , 5 3 e p p , > @ @ 5 z y 1 1 w 3 > , ",
"r y 3 d y 3 - ; 3 = > - 5 h 9 3 ; # ; % > 1 * > 3 d g H ~ @.c f > = o & D V % * r 1 ; , , , 3 3 3 k l r * > 1 * d h y y r y r # "
};
