/* XPM */
static char *result[] = {
/* columns rows colors chars-per-pixel */
"64 64 235 2 ",
"   c #253E0D",
".  c #363828",
"X  c #352B2D",
"o  c #2D4B0D",
"O  c #2C4609",
"+  c #334D0D",
"@  c #314906",
"#  c #2C520D",
"$  c #2C550B",
"%  c #35530D",
"&  c #365B0E",
"*  c #395B0E",
"=  c #37530B",
"-  c #2E4B14",
";  c #2B4413",
":  c #324E12",
">  c #354C1C",
",  c #2E5213",
"<  c #355413",
"1  c #395613",
"2  c #365A14",
"3  c #3A5C15",
"4  c #355619",
"5  c #365B1A",
"6  c #3A5D1A",
"7  c #3B551C",
"8  c #39630F",
"9  c #356114",
"0  c #3C6315",
"q  c #3E6A16",
"w  c #37621A",
"e  c #3C641B",
"r  c #3E6A1B",
"t  c #3F711C",
"y  c #3A4729",
"u  c #3C5A21",
"i  c #3A5425",
"p  c #3E4530",
"a  c #3D6421",
"s  c #3E6B21",
"d  c #3F6529",
"f  c #425E1C",
"g  c #406517",
"h  c #416A16",
"j  c #41661C",
"k  c #416C1C",
"l  c #44731D",
"z  c #46791D",
"x  c #4A7D1F",
"c  c #47741C",
"v  c #435B2B",
"b  c #435C24",
"n  c #4A5D34",
"m  c #465937",
"M  c #436523",
"N  c #426D22",
"B  c #44632B",
"V  c #4B652C",
"C  c #4A6B2C",
"Z  c #456B2A",
"A  c #457422",
"S  c #497523",
"D  c #467923",
"F  c #4A7C23",
"G  c #4A742B",
"H  c #477729",
"J  c #50792D",
"K  c #4A6633",
"L  c #4C6D32",
"P  c #4B6439",
"I  c #53683A",
"U  c #4D7333",
"Y  c #557637",
"T  c #516B2E",
"R  c #63703E",
"E  c #3F504E",
"W  c #5B5C5C",
"Q  c #545755",
"!  c #4A534F",
"~  c #4E6846",
"^  c #546C43",
"/  c #53644A",
"(  c #586946",
")  c #5B734C",
"_  c #5C7644",
"`  c #5E625C",
"'  c #5A6A53",
"]  c #5D7459",
"[  c #637548",
"{  c #60665B",
"}  c #677858",
"|  c #757D59",
" . c #69714B",
".. c #5B5C62",
"X. c #425267",
"o. c #5B7469",
"O. c #596B70",
"+. c #626462",
"@. c #666A64",
"#. c #6B6D6A",
"$. c #686B67",
"%. c #687969",
"&. c #727C6B",
"*. c #687C74",
"=. c #757975",
"-. c #767775",
";. c #4D8225",
":. c #518926",
">. c #61803E",
",. c #5F8545",
"<. c #688949",
"1. c #758659",
"2. c #708A59",
"3. c #6F826F",
"4. c #7A8769",
"5. c #6D8274",
"6. c #7B837D",
"7. c #768878",
"8. c #7E9B68",
"9. c #858C5A",
"0. c #868A6A",
"q. c #888C78",
"w. c #8B9877",
"e. c #979677",
"r. c #91936B",
"t. c #AC8060",
"y. c #99A277",
"u. c #C29C64",
"i. c #C9A872",
"p. c #C19350",
"a. c #6D7E80",
"s. c #688A88",
"d. c #728984",
"f. c #7B8C84",
"g. c #788C89",
"h. c #789498",
"j. c #778D93",
"k. c #7C9AA2",
"l. c #76ABB7",
"z. c #7AAFA4",
"x. c #5E8999",
"c. c #848584",
"v. c #858C86",
"b. c #8C9186",
"n. c #89948B",
"m. c #96998A",
"M. c #8B9993",
"N. c #8A9D9C",
"B. c #869996",
"V. c #929793",
"C. c #A79F8A",
"Z. c #B29D8F",
"A. c #9CA284",
"S. c #8EA09D",
"D. c #92A29C",
"F. c #9BA49C",
"G. c #A7AA8B",
"H. c #B7A987",
"J. c #ABA795",
"K. c #B8B497",
"L. c #BBA792",
"P. c #809EA5",
"I. c #8BA6A9",
"U. c #94A5A3",
"Y. c #9CAAA4",
"T. c #9CAEAB",
"R. c #96A8A8",
"E. c #9FB1AE",
"W. c #97B1AD",
"Q. c #89ACB6",
"!. c #99AFB1",
"~. c #9AB7BB",
"^. c #84B3A1",
"/. c #A4ACA6",
"(. c #A3B2AD",
"). c #ABB5AB",
"_. c #A5B5B2",
"`. c #A9B6B3",
"'. c #A5BAB5",
"]. c #ACBBB5",
"[. c #A4BBBA",
"{. c #ADBDBA",
"}. c #B1BDB5",
"|. c #B1BEB9",
" X c #B1B5B8",
".X c #BDB6AA",
"XX c #C9B698",
"oX c #CAAC90",
"OX c #C4B8A7",
"+X c #C1AFA2",
"@X c #AEC0BD",
"#X c #AFC1B7",
"$X c #B3C1BC",
"%X c #B9C4BE",
"&X c #B4C0B7",
"*X c #D1C4B2",
"=X c #98BBC5",
"-X c #ACBFC3",
";X c #8DC1CD",
":X c #9AC2CA",
">X c #9AC8D4",
",X c #9AD1DF",
"<X c #AEC3C1",
"1X c #A6C5CA",
"2X c #B5C5C2",
"3X c #BAC6C2",
"4X c #BDC9C5",
"5X c #B6CACB",
"6X c #BDCCCA",
"7X c #B4C7C6",
"8X c #ABCBD2",
"9X c #A4CCD4",
"0X c #B3CED3",
"qX c #BBCED2",
"wX c #ACD3DB",
"eX c #A9D1D9",
"rX c #BDD2D4",
"tX c #B3D4DA",
"yX c #BBD6DA",
"uX c #BDD9DD",
"iX c #B5D1D5",
"pX c #9DD6E3",
"aX c #ABD9E2",
"sX c #B8D9E0",
"dX c #C0CBC5",
"fX c #C1CECA",
"gX c #C2D1CE",
"hX c #C4D4D4",
"jX c #C8D7D6",
"kX c #C3D7D9",
"lX c #C5DADC",
"zX c #C9DCDD",
"xX c #C5DDE1",
"cX c #CADEE0",
"vX c #CDE0E1",
/* pixels */
"N 2 r r N N 3 r 3 < q 6 + 3 h z ;.A 3 w k e 0 l A u A k c l : l g 3 w z z a s w < a z g 3 < 0 e A A 6 e 0 3 < 3 3 2 A A A k 9 3 ",
"6 % N N A e e w k 3 = 3 6 e r z j 0 0 3 6 j q 2 A e a s S g + 3 + 2 3 3 g j H J j 1 < + 2 3 q a r H k 0 q r % < < 4 A F s 1 * 9 ",
"e 2 6 0 e 6 6 < S h 0 2 < A D j 1 : < 3 + 2 r 5 q A S l w 3 3 2 3 6 < < 0 3 w k k g 2 < 5 5 r e r k e w < k k g 2 % 2 q q 0 3 6 ",
"< 5 e l w w q l ;.c 0 0 5 A F e 0 w 6 5 e 6 < < e A l A e 0 q 0 r s 7 < k l 0 0 3 : < s A j 3 3 A k 4 3 3 A j w 2 b 2.<.M 2 3 6 ",
"e j e S h z l c F Y { %.%.<.,.Y 0 % 3 q 3 r k 0 e q 0 h z k e r :.F N 6 9 8 = = 0 2 4 j l k g h * % 6 3 z g e x <.G.*X*X1.@ 5 e ",
"j N e 3 z z A q ^ =.c.c.c.4.*.2.U b e l j q S 1 8 9 3 * 0 j s D k 6 j h * @ @ * c l g S g 0 k 3 @ * 3 z k l k q 8.K.u.XXm.V 9 l ",
"k w e r % 0 z D } #.-.-.-.#.#.$.' v 9 e a 1./.G.Y 8 % 0 A l e j e r k 0 = @ @ f A k z z k 0 0 1 3 % k k e k l o _ G.oXK.0.e t ;.",
"r 6 k k q F ;.J { $.$.$.$.@.+.@.W v 8 1 I K.i.XXe.< * l F 3 e 6 5 : : 3 * % < % 1 3 z F l < = 3 3 3 e A F ;.j o O [ m.q.L w A 0 ",
"+ & k F A ;.r m +.+.+.+.{ +.+...Q i & # v K.oX+Xw., e A z e 1 : 6 2 < k c 8 = 9 9 1 N c 1 o 3 j < A w q a g 0 1 ; u G b 5 s w 4 ",
": h A s w w w m Q ..+.{ ..W W Q m e 1 o <  .G.m.P < 5 e e z 6 5 1 3 0 ;.;.J 7 @ 3 1 3 0 3 3 4 6 q k * k < 0 3 1 4 w w w e g 3 1 ",
"3 k D r j N 6 5 m ! I / ! ! m m N k 3 3 < ; K 7 5 w 4 N r z q r r 6 k q R r.9.R M % g e 1 3 5 e e e e q < e k 3 6 2 e w j q 9 3 ",
"0 0 5 A A l 0 @ ; i i y . . > 7 k j e e < < r O 2 6 a A D r 0 1 w e r $ ( i.oX0.7 % e e j 6 3 j 6 e 6 q 3 < r r , 2 w 6 r 0 1 3 ",
"0 q e H H r q 3 - -     ; o - 4 e l r e < 3 D r 3 w H ;.0 3 r 1 : 3 e < M 0.e.( < , < 2 r w < 6 e A w k r + 4 < @ 1 j q 9 & 0 w ",
"0 z r A D w A l 0 2 4 < 6 6 e w e r 6 r < < 3 0 6 a N :.2 3 r A e 1 0 e < b i < w A 6 1 3 l w e a F k 3 r e 3 1 l j 2 Y 8.<.F k ",
"A l z r & 2 r 3 q q 6 5 j e r s e < < r 0 3 1 % r a s N N r % k e < 0 e w w 2 2 3 k k 1 6 g 6 e e e k 0 3 e 0 0 k N , <.*XG.J q ",
"A e F t <.<.r , e e < < 6 < e e e 0 1 6 l g k 9 l s 6 e A 3 1 3 3 N A s N j 0 9 + 1 9 + k l 2 q j 5 e j < : r w 1 r & Y e.1.N 9 ",
"e 6 q <.K.XX9.6 2 5 3 < < r r r e 3 5 0 5 0 F e 3 j e s H e 1 < e S A N r 3 1 4 < 2 < & g A w l M q 5 5 1 3 3 7 3 q k j u w A e ",
"N r w 2.H.XXG.i 2 3 6 r w k k r 0 3 3 4 1 3 N 4 N k s q A e 1 3 r g 3 q g < 6 N s < 6 0 6 5 1 k l z l e e N e w 5 e l q < r A w ",
"k e 3 > } e. .- k h 2 l k 3 h g 0 l e 5 l A e 1 N 0 0 0 e 0 q k z k q l 0 1 a F A 5 d B B L m B G q l q q k S l e k z q 7 6 5 e ",
"0 5 2 o : u o @ h h l G U n K L B L L L U L C B M % 0 0 k N H G G L L M b B a a G ~ o.*.*.d.h.s.] 7 r l D k e w 0 l c 0 + % < < ",
"k 0 w 6 k @ 3 1 C Y } 3.f.f.g.7.5.7.f.5.5.3.%.3.} ' / ^ ) ] ' ] 3.5.o.o.*.*.} ] 5.g.I.I.!.I.I.N.d.m 6 A F e 3 0 j j g q r 0 3 g ",
"N : 6 3 k 3 1 / 5.f.B.D.U.U.R.U.U.R.Y.R.R.U.U.U.I.N.S.P.S.S.I.N.B.N.I.U.N.B.N.B.I.R.W.~.[.[.T.N.g.~ < e 6 4 3 3 r N N k F l 5 l ",
"3 < 3 1 5 j ) n.N.D.Y.(.(._._.(._._.`.]._.'.'._._.E.T.W.W.E.E.(.T.T.E.(.T.R.U.U.(.].].{.@X{._.M.g.' 2 1 3 6 3 5 Z r k S D N 1 < ",
"< e r q j ) n.U.E._._.).].].].].].{.{.{.].].].].].].].].].].].].].].].].(._._._.'.'.{.2X2X#XT.B.f.} N 3 < D K Q ' I N k A z 0 3 ",
"3 3 j t _ n.W._.'.].).#X].}.].|.|.}.$X|.|.|.|.|.|.|.-X|.].].].}.].].].].].].].].^.z.#X%X4X#X/.D.B.3.^ A j P ` { $.-.@.L t 5 % % ",
"w 3 z L 6.E.].].].].}.}.$X$X$X$X$X$X$X$X2X|.2X|.|.|.$X$X|.|.|.|.&X$X$X].].].].(.^.z.~.%X7X@X@X#X]._.I.7.' W +.$.-.a.q.=.^ A 0 3 ",
"z 0 k } D._.].].].#X&X&X$X2X7X7X%X$X$X%X%X|.%X2X2X$X$X3X2X|.}.%X$X$X$X%X$X$X$XW.[.7X4X7X7X7X7X7X7X2X<X@X[.B.*.f.c.c.n.c.{ 7 9 r ",
"g h H 3.(.].].}.$X$X2X$X2X4X4X3X3X$X%X3X%X3X|.3X3X4X2X2X2X*X|.&X%X%X%X7X5X7X7X7X7X6X6X5X6X3X6X3X7X2X2X<X<X-X@X7X2XI.f.-.' u w N ",
"j v 6.E.].].|.|.$X%X%X7X%X%X4X4X3X%X3X3X3X%X|.3X3X4X6X3X%X%X&X%X%X4X%X4X6X6X6XrX6X6X6XgX6X6X6X4X4X3X2X$X&X#X2X5X$X@X!.7.' j & % ",
"U 6.R.[.{.@X|.].$X%X7X3X3X3X%X4X3X%X3X4X4X4X6X4X3X4X4X3X%X3X%X%X3X4X4X6X6XrXrXhXhXgXhX6X6X5X6X6X5X4X7X$X].&X%X$X$X$XY.7./ k 3 % ",
"} B.T.`.{.{.$X2X$X%X3X3X6X5X6X4X4X3XdXfXfX6XgXfXfX6X4X4X3X7X4X4X6X6XdXfXrXkXkXkXhXhXhXhXrXgX6XgX5X4X$X).K.#X#X%X7X#XS.7.' 7 < % ",
"&.M./.`.].{.@X2X7X4X4X5X6X6X6X6X4XdXdX6XfXfX6X6XfX6XfX6XdX*X3XdXfXfX6XgXhXlXhXhXjXhXhXkXhXhXgXgXhX2XM.6.).#X#X7X3X#XY.B.h.I 5 3 ",
"6.B.T.].{.{.{.2X2X2X4X4X4X4X6XdXfX6X6XgXfXdXdX6XfXdX6X6XdXdX%XdXfXfXgXlXlXjXlXjXlXjXlXlXjXhXfXgXjX4X_.a.a. X4X5X6X|.`./.N.^ 6 a ",
"%.n.T._.].{.<X$X%X2X$X%X3X4X6X5X6X6X6XfXdX4XdXfXfX6X6X5XdXdXdXdXfXdXhXzXzXjXjXzXzXlXlXzXcXjXfXfXjXdX2X!.v. XrX0X5X2X XB.Q O.m e ",
"j %.N.'.].-X@X$X$X%X3X4X4X4X4X4X6X6XfXfXdXdXfXfXfX4X3X*X4XdXdXdXgXfXgXjXkXkXjXjXzXzXzXvXcXzXgXdXhXhX4X{. X-XqXhX7X-X|.D.Q X E u ",
"A } v.R.[.].@X$X$X$X2X4X3X4X4X4X6XfX6XdX6XfX6XfXdX4X3XdX3XdXdXfXgXgXgXjXhXjXjXjXjXzXxXvXzXlXzXjXgXkXqX4X3X-X-X X/./.R.N...X X.B ",
"N C } n.(.[.#X<X2X2X2X3X2X3X4X4X4X6X4X4XdXdX6XfX6X4X6X3XdXdXdXfXgXhXjXjXzXzXzXzXzXzXcXzXzXzXlXhXdXfX6X5X-X6X5X-X-X].R.j.O.X.! d ",
"e S A 2.D.'.@X].{.{.@X2X7X4X4X7X7X4X-X4XdXdX4X3X4X6XdXdXdXdXdXfXhXjXxXcXzXzXzXvXcXcXzXzXlXhXhXhXhXfXhXhXyXsXyXyXtX8X8X>Xl.x.B 5 ",
"e A A _ B.E.[.@X[.{.{.|.2X2X2X2X2X3X4X4X3X3X3XdX4XdX2X3X4X3X4XfXhXhXlXlXlXzXzXzXcXcXkXhXhXjXjXlXxXkXkXlXyX9XaXtXsXaXwXpXl.s.B 5 ",
"A r t Y f.S.W.E.`.`.`.].{.@X{.#X|.3X-X X|.%X2X2X|.%X|.|.%X3X3XdXrXhXjXlXzXvXvXzXzXzXkXkXzXzXzXzXxXlXxX=Xk.=XaXtXtXeX9X;Xl.o.a a ",
"q 5 r a } B.B.S.T._.).'.'.].].].|.|.}.|.|.|.$X|.|.].}.|.$X%X3XdX6XrXrXzXlXlXlXzXcXlXzXzXvXvXvXcXxXlXlX~.h.1XeXaXeX8X>X=Xj./ u w ",
"0 5 r k Y ^ ) n.D.U.Y.F.Y.(.'.].`.`.`.}.}.].}.}.}.].}.}.|.|.&X%X7X6XrXlXlXkXkXzXxXxXcXcXvXvXzXzXxXxXtX8X=X1X8XaXaXaXaX;X*.d 2 6 ",
"t 6 q q A N g I %.v.M.V.D.F.Y.Y.F.Y./.F.F.Y.Y./././.).).).).}.}.{.2X5XrXkXkXlXxXlXxXcXcXvXxXxXlXuXuXtXtX8XeXaX,X,X;Xz.o.n M 3 0 ",
"r : 6 3 3 3 e 5 C I 4.v.b.m.M.m.V.b.n.v.v.v.b.b.V.m.V.V.J./.).).}.].<X7XqXkXuXkXuXxXcXcXvXxXlXkXrXiXtXwXeXeX,XQ.o.n v a N k 3 l ",
"6 < 1 3 q j l A D t C ( } | &.}  .[ [ I I ( I ( [ | =.q.b.b.m.F.J.Y./._.7X0XiXtXrXkXkXuXvXsXsXyX0X8XwXwXeX>Xs./ u e j w F N 4 < ",
"3 w 2 7 r z l c A r w w M T f f 6 g h g j k f c e f T T I [ | 4.q.b.b.V.U.!.<X0X0XiXiXtXuXsXsX0X8X8X9X>X=XP.P C a r k k l A 3 % ",
"0 1 3 g 1 % 9 0 e r q r g 3 = 3 6 % 0 k z h g k 0 @ @ * @ g G Y Y [ | } } &.7.M.!.~.1XiXeX8X8X1X:X=XQ.h.*.n j h 0 0 3 * e e 1 & ",
"N 3 g 3 k % 0 l 0 M L C 0 g 0 % 1 % 1 A x h 6 5 < @ % = g S 3 k N A B B T T T U ] j.Q.~.=X1X=X=XQ.k.j.#.n S A l k h @ 3 q e 3 3 ",
"F 6 k z A 5 5 # U G.&XG.V 0 h 9 w 6 ; 3 F S 2 < & 5 w 0 a k a s r 0 4 6 c 3 3 d B n %.h.Q.Q.Q.z.B.j.*./ b F 0 j g q % = g j e e ",
"q F c l q g 2 o 4.XXi.OX4.e t k 6 < 3 8 0 k % l 2.=.7.} N * 6 F 3 < w e 0 w N F l 8 b { g.j.d.] o.} _ b 7 e 6 l q 6 5 = * 3 6 N ",
"e A ;.S F 0 - # w.XXu.L.4.a 8 q 7 3 3 3 e 3 7 4.n.V.V.q._ I g l k h q j k 0 c S < 2 0 b ^ ) I a V r.K.G.f 3 F 3 5 3 5 g r r A F ",
"6 e r 3 6 ;.k $ [ J..Xy.K 2 r s j 3 1 e A ;.[ v.c.c.6.4.} +.v < 3 0 F N q l H k 5 5 1 N e 6 r 4 9.H.p.L. .+ h r w 5 6 S N r w 5 ",
"e r k A d N z < - > I 7 - t A w 6 5 r w < B =.-.=.=.-.$.{ +.C 3 3 1 D D w 7 e k k A 1 1 r 3 e 4 [ C.t.Z.[ : % q 3 w a e 6 0 h 1 ",
"= 2 z H s l * % w , ; - 6 q a e e q r % % v -.#.#.$.$.+.{ Q u z < 2 l k 6 5 w 5 e S 6 1 r a e 5 : | e.| M 1 < N 3 + 5 r r r 0 3 ",
"2 0 j H D l r 6 f l e e k e 7 e 6 0 3 3 w N { $.@.{ { ..W I 0 A < 6 A s a a e 3 e q < 2 q N N e 1 7 u e w < % g 5 < 6 a N r 3 3 ",
"q z A w j 6 5 3 + g 2 7 q e s r 0 k k : & N m ) ` Q / m m C 3 j 1 0 k l A F s w 6 + + w k e j e 3 e w w 1 1 r w 3 r r a 6 g e r ",
"e 2 z l j A s 5 3 3 j A H A l q s A k % 1 3 a i p p i , i F 6 : 1 r 0 0 l ;.A w 0 3 0 k 1 5 5 r A z H 2 3 3 3 e 3 1 # & z ;.q 2 ",
"t < q D N F A e < < j k A k k 0 < a 3 0 6 e A -   ; - r l k D e 9 @ 2 r w t k w 0 r A A 0 0 r j r k H 2 % < 1 N S 0 5 Z F z h 2 ",
"s w 0 z t 0 l 6 3 3 3 g 3 * c j 6 A r k q a ;.A 4 4 1 l z k F H r + 3 8 t t 2 q l k N j z r r h 3 0 r 4 + 3 w g l q 1.i.9.A 0 0 ",
"s A l 0 * 0 k 0 z A 3 3 0 8 * 1 k F k s k r ;.H w a q j l q j k A h 0 [ A.w.Y 9 j H A 6 A t w 3 g * k k 6 6 e r q 0 y.*Xe.a 9 D ",
"j k N 3 0 h h c z N r 3 k 0 @ = k l j s e q s 6 s A q e q 6 e z ;.q G m.XXXXw.0 2 r e s N q 3 r * = h k w 6 N s q = R 4.I 4 e H ",
"0 6 e g l g z x g 6 r 1 5 6 0 0 j w A F S N : 5 A F r 0 r 1 3 F z & K C.i.XXm.S q 3 2 e 5 0 1 k * g h 5 r 2 1 a r 2 2 2 2 , 4 e ",
"k N N j A j j A j < 2 % 2 a q r e 6 r N j k 1 2 A F A q e 4 % q k % - 1.J.J.| 0 l 3 3 1 : 3 6 e j z z 6 2 % % 6 H N 0 0 h e 3 2 ",
"k l e N l w 3 3 j 2 1 2 0 A N 6 3 % 3 < 1 0 < 5 a N e A e 0 3 e 6 2 o >  .^ - % g e 6 6 6 3 e e 6 H F k < 3 0 < N D l l k l k 3 "
};
