/* XPM */
static char *result[] = {
/* columns rows colors chars-per-pixel */
"64 64 242 2 ",
"   c #070506",
".  c #171516",
"X  c #121214",
"o  c #211D1A",
"O  c #253E0D",
"+  c #292521",
"@  c #342928",
"#  c #383837",
"$  c #30342C",
"%  c #17232A",
"&  c #403735",
"*  c #2E4B0D",
"=  c #2B4806",
"-  c #334D0D",
";  c #304605",
":  c #2B520C",
">  c #35530E",
",  c #395B0E",
"<  c #36590D",
"1  c #2C4A12",
"2  c #324D13",
"3  c #354C1B",
"4  c #355413",
"5  c #385614",
"6  c #365A14",
"7  c #395C14",
"8  c #365619",
"9  c #39541C",
"0  c #365B1A",
"q  c #3A5D1A",
"w  c #2F5113",
"e  c #356213",
"r  c #3C6315",
"t  c #3E6A16",
"y  c #3C631B",
"u  c #3E6A1B",
"i  c #37631A",
"p  c #3F711C",
"a  c #394A27",
"s  c #3A5423",
"d  c #3C5B22",
"f  c #3E572A",
"g  c #3E5336",
"h  c #3D6422",
"j  c #3E6B21",
"k  c #3F632A",
"l  c #416C17",
"z  c #40661C",
"x  c #416C1C",
"c  c #406516",
"v  c #44731D",
"b  c #467A1D",
"n  c #48771D",
"m  c #435A29",
"M  c #475934",
"N  c #504B39",
"B  c #416423",
"V  c #426C22",
"C  c #456A2B",
"Z  c #46662B",
"A  c #457422",
"S  c #487622",
"D  c #467A22",
"F  c #4A7C23",
"G  c #47762A",
"H  c #4A6632",
"J  c #486736",
"K  c #52653D",
"L  c #536A3D",
"P  c #516E33",
"I  c #4C7432",
"U  c #557637",
"Y  c #507D2E",
"T  c #3B3F45",
"R  c #4C4B47",
"E  c #56594B",
"W  c #595857",
"Q  c #4E4F4B",
"!  c #635B4A",
"~  c #4D6844",
"^  c #546C43",
"/  c #5B634C",
"(  c #566648",
")  c #597449",
"_  c #5D6454",
"`  c #5D625C",
"'  c #566954",
"]  c #5C7454",
"[  c #64694B",
"{  c #647347",
"}  c #646455",
"|  c #6B6555",
" . c #65665A",
".. c #656A5B",
"X. c #6B6C5D",
"o. c #686B55",
"O. c #706E5C",
"+. c #716F56",
"@. c #6D725D",
"#. c #657759",
"$. c #72725C",
"%. c #727255",
"&. c #5E5D61",
"*. c #5E6863",
"=. c #626462",
"-. c #6C6E62",
";. c #686B67",
":. c #756C65",
">. c #6E7164",
",. c #6D736C",
"<. c #677B67",
"1. c #737364",
"2. c #7A7763",
"3. c #73756A",
"4. c #75796C",
"5. c #797A6B",
"6. c #767767",
"7. c #687775",
"8. c #757B73",
"9. c #747F7A",
"0. c #7A7E7B",
"q. c #777873",
"w. c #636C72",
"e. c #4D8325",
"r. c #5B8550",
"t. c #698A48",
"y. c #67825A",
"u. c #768457",
"i. c #769156",
"p. c #668365",
"a. c #7B8769",
"s. c #6D8978",
"d. c #7C8173",
"f. c #7C827C",
"g. c #77867A",
"h. c #7D9665",
"j. c #82837E",
"k. c #838B79",
"l. c #979877",
"z. c #898E70",
"x. c #808E5C",
"c. c #C6A163",
"v. c #717F84",
"b. c #6E8384",
"n. c #7B8582",
"m. c #7D8986",
"M. c #7D8B8C",
"N. c #768587",
"B. c #7B8D93",
"V. c #7C9298",
"C. c #7A958B",
"Z. c #838582",
"A. c #838A84",
"S. c #828D8C",
"D. c #898B87",
"F. c #8A938C",
"G. c #85958A",
"H. c #979789",
"J. c #828E90",
"K. c #839294",
"L. c #8A9594",
"P. c #85959A",
"I. c #86999D",
"U. c #8C9C9C",
"Y. c #879A93",
"T. c #929B98",
"R. c #918F8D",
"E. c #97A29D",
"W. c #8AA098",
"Q. c #A6AA8A",
"!. c #B9B392",
"~. c #B1A88E",
"^. c #859CA3",
"/. c #8A9DA3",
"(. c #8097A0",
"). c #8BA1A6",
"_. c #8CA3AA",
"`. c #8FA8AF",
"'. c #94A3A4",
"]. c #92A6AB",
"[. c #95A9AD",
"{. c #9BABAC",
"}. c #99A7A6",
"|. c #94ACB3",
" X c #9AADB3",
".X c #93AFB9",
"XX c #9DB2B6",
"oX c #9DB3BB",
"OX c #9FB8BD",
"+X c #8EAAB2",
"@X c #A2ABA9",
"#X c #A4B2AD",
"$X c #A4AEB2",
"%X c #A3B3B5",
"&X c #A3B5BB",
"*X c #A4B9BD",
"=X c #ACBBBD",
"-X c #A9B6B7",
";X c #B5BCB7",
":X c #A29A80",
">X c #C8B799",
",X c #CAAD8E",
"<X c #CEB6A9",
"1X c #B3C3BE",
"2X c #D1C4B2",
"3X c #9EB8C1",
"4X c #A4BCC2",
"5X c #ABBEC3",
"6X c #B1BFC2",
"7X c #ADC1C6",
"8X c #ADC4CB",
"9X c #A7C2CA",
"0X c #B3C3C5",
"qX c #B3C6CB",
"wX c #B5C9CD",
"eX c #BACBCD",
"rX c #B8C7C7",
"tX c #BFD1CF",
"yX c #ADC8D0",
"uX c #B4CCD2",
"iX c #BBCED3",
"pX c #BDD1D5",
"aX c #BDD4DA",
"sX c #B8D3DA",
"dX c #BFD8E0",
"fX c #C1D3D5",
"gX c #C3D5DB",
"hX c #C6D9DD",
"jX c #CADBDE",
"kX c #C6D9D7",
"lX c #C6DCE2",
"zX c #CCDEE2",
"xX c #CEE1E5",
"cX c #CDE4E9",
"vX c #C7E0E6",
"bX c #D1E2E6",
"nX c #D3E5EA",
"mX c #D4E9ED",
"MX c #D8E9ED",
"NX c #D9EDF3",
"BX c #D4ECF2",
"VX c #D7EEF3",
/* pixels */
"V 6 u u V V q u 7 4 t 7 - 6 l b e.S 6 y x y r v S d A u p p 8 j h 8 s k j j j j 8 y A c q > r y A A q i r q 4 r 7 6 A D j x r 6 ",
"q > V V A y y r x 6 > 6 i y x v x r r 6 q u u 6 v y i h k h g g g ' b.w.] k k G u 5 > 2 6 q t y x S x y t y > > 4 w v e.j 6 , r ",
"y 6 q r y q 7 > S l r 7 4 V F z 5 2 4 6 - 6 y 8 p j Z ' 7.b.V.V.V.V.B.B.b.w.r.~ A r 6 6 6 8 u y x u y y > x v c q < 6 i t r r 7 ",
"4 0 y v i 0 p v e.n r r 0 S F y r r 0 q q q 6 8 f ' b.V..X.X.X+X+X^.V.V.V.B.b.p.K 9 4 h D x 6 q A x 8 7 q S y y 6 m t.u.B 6 7 q ",
"y x y n l v v v S ^ ] >.<.t.t.I r 4 r u r i h ) V.+X3X3X3XoX|.+X.XV._.V.V..XV.V.<.( f v v x c x , > q q b c y b t.Q.2X2Xu.: q q ",
"z x y r b b A t ^ 0.Z.Z.Z.a.a.p.U d y p u J s..X9X9X3X3XoXoX|.`.+X+X_.+XV.V.V.V.N.7.] C c r l 7 ; , r v x v x r h.!.c.,XH.Z e v ",
"V i y y > c S D ] q.q.q.q.,.w.;._ m e j ~ .X9X9X3X4XOX3X3XoX+X`._._._.V.V._.V.V.N.7.,.{ z r r > 6 < c x y x v : ) Q.!.>Xz.y v e.",
"y r x V u b e.Y  .;.;.;.;.;.=.=.W m u ' |.9X9X9X9X9X4X3XoXoX|.`._._._._._.+XV.V.N.9.7.>.^ 4 > 7 r q y A F e.c - = #.H.z.H i A r ",
"- 6 u F A e.u M W =.=.=.=.;.` &.E s ~ ).yX9XyXyXyX9X5X5X3XoX.X|.+X_./.^.^.(.P.B.v.v.q.-._ m 6 y 6 v r u j c c 6 1 d I d 0 j r 8 ",
"- t D j h y i M W &.` ` &.W W W M k b.yXyXyXyXyXyXyX5X3X&X3X X X+X_._././.P.P.J.J.v.8.3.>.E f 9 u u , t 4 7 r > 8 0 i i y x 7 4 ",
"7 x A u y p y 8 g Q ^ ' Q R R M C ] .XyXyXyXuXyX5XyX5X5X&XoXoX X.X`.`././.(.(.J.N.n.9.8.>.-.o.M q y y t 3 u x q 0 8 i q u u 7 7 ",
"y r y A V v r = 1 a d a a $ 3 0 d M.yXsXuXsXuXuXyX5X5X5X&X3XoX X|.+X`./././.(.P.M.N.9.3.-.X.....s y q l 6 4 x r : 6 y i y y > 7 ",
"r u r F p j u 7 w 1 O O 1 1 1 8 Q [.uXsXuXuXiXiXiXqX5X5X3X5XoX X X_._./.)././.P.S.m.0.8.-.X...X.M C y x y 4 4 8 > , y u e e r r ",
"r b u A p h D A y 6 8 4 0 i h k v.yXsXaXaXaXuXqXyX5X5XyX6X&XoX$X[.].'././.(.(.P.B.m.n.9.,.-...-._ C l q y u 7 6 x y 6 Y h.t.F v ",
"S p A u 6 < t 7 u t q 6 u i y ] 3XuXaXaXdXaXuXuXqXyXqX5X3X3XoX X[.].)./.P.P.J.J.M.M.N.b.8.>.-.-...M x r 7 y y r x u : u.2XQ.Y r ",
"A r e.p t.t.u w y y 4 4 0 8 I C.yXaXdXdXaXaXiXiXiXiX5XyX5X5XoX X[. X]././.P.K.J.B.S.M.f.9.4.>.>.>.( m x 4 4 r y 6 y , U l.u.V e ",
"d r u t.!.,Xx.q 6 7 7 4 4 y ^ Y.sXsXdXhXaXpXpXpXiX6XuX6XqX5XoX$X X X[./.^.P.P.K.J.M.m.b.8.3.3.>.1.( d 0 4 q 6 8 q u x y d h p y ",
"j u r y.!.>XQ.s < q q y y G p.*XdXlXaXhXaXgXaXpXiXiXuXuXqXyX5XoX%X X]./.P.K.K.S.M.S.M.f.9.8.q.>.4...M y r v u q 7 y v u > u A h ",
"v y q 3 %.l.{ 2 x l < v u J U.uXaXaXhXhXgXgXfXaXiXiXaX6XiXyX3XoX X].'.^.L.P.K.K.J.M.m.N.9.3.3.3.4.>.K u y x D v r l b t 5 q 0 i ",
"r 6 6 * 3 d = - x l l x A ( XXlXaXhXaXhXgXgXfXaXaXaXaXiXiX5X5X$X X].).U.I.I.I.K.S.m.n.f.q.3.>.1.>.>./ Z F x y y y v n r 2 > > 4 ",
"x r 7 y u = 4 > r b v y h ^ XXlXgXgXgXgXgXgXgXgXgXaXiXiXuX6X3X$X X X'././.L.L.K.M.f.8.8.3.-.-.-.-.3.X.M F y q 7 z x r t c y 7 l ",
"u 2 y 6 x r 6 5 x F b y 4 ) XXlXhXgXhXgXgXlXlXgXgXiXiXiX6X6X3XoX X X]./.P.J.B.m.f.8.3.>.-.-.-.6.>.3.X.M h 8 7 q y V V x e.x q x ",
"q 4 6 7 7 x 6 - - x A q d ] 7XzXhXgXgXhXhXlXlXfXaXaXaXuX5X5X5X3X X].'.U.J.M.m.N.g.8.>.-.X. .X.-.-.-.X.E 9 y 6 q C j x S F V 4 4 ",
"5 i y u y y q 4 r 7 y 4 J Y.sXzXhXgXlXgXzXhXgXaXiXgXaXaX6XsXuX6X&X X'.L.J.S.S.N.9.,.-._ |  . . .....-...a S H E ' L V x D b r 7 ",
"7 r x u c u 4 q 7 q j B r.*XhXhXgXhXjXzXzXlXgXgXgXgXgXfXiXaXgX6X6X*X].U.L.L.L.S.f.,.;.' _ } |  ... .X.>.M M ` ` ;.q.;.G u y - > ",
"q 7 S V 6 y > 4 5 y y z ) wXlXgXgXjXzXzXzXzXxXzXhXlXhXfXgXzXzXaXqX4X{.'.'.U.L.S.0.4.>.' _ _  . . . .X.X.W W =.;.q.0.Z.8.^ A t 7 ",
"v 7 v D r q q * u y 4 9 <.pXhXgXjXzXzXzXzXxXbXzXjXgXgXgXgXnXnXgXwX5X&X$X}.T.S.j.q.q.3.X._  ...X. . . . .} ` ;.8.0.Z.R.Z._ d e y ",
"u u v A D 7 y 7 u , 5 Z p.pXhXgXjXzXzXzXzXbXnXbXjXjXgXfXlXnXnXzXiX6X5X%X}.T.A.8.4.3.3.-.-...X.X.O.X.X.X...W ,.8.f.D.D.Z._ d r B ",
"x > q x V q y u x q 3 I g.gXhXgXzXbXbXjXzXbXbXzXjXhXfXfXzXnXnXzXpXqX0X%X}.D.d.5.5.6.:.1.1.X.$.-.1.-.-.-.X./ E ,.j.A.f.q.] V < - ",
"r > 4 V V x r w r b - ^ }.gXkXjXbXbXbXzXjXzXbXzXjXjXfXfXzXbXzXgXiXwXqX%XT.A.d.5.5.5.3.6.1.-.1.1.1.1.1.-.-.1.>.E _ @.y.) Z y 7 > ",
"6 5 V F h q p y S S c ] 7XgXkXzXbXnXbXzXzXzXzXzXjXgXgXfXgXzXgXgXiXwX5X{.T.j.d.5.5.5.5.6.6.1.1.1.1.1.1.X.>.@.3.( a 9 S t r q 4 > ",
"2 7 y A F u r x V y 7 ) qXfXhXxXnXnXbXbXzXzXjXjXhXgXfXeXeXgXgXgXwXqX=X{.L.j.5.6.1.:.5.6.3.3.3.3.1.1.1.1.@.X.>.} M 4 r t v x q 7 ",
"e 8 8 q v v v c A C h r.XXhXzXnXMXMXbXbXbXjXjXfXfXfXfXfX6XfXgXaXwX5X5X}.L.j.6.O.+.O.2.:.:.5.3.3.3.6.6.-.1.-.1./ m r r l e.l r y ",
"- 6 r 5 > v b y A F G y.[.hXxXnXMXbXbXbXbXzXjXfXfXfXfX6X6X6X6XaX0X5X$X'.J.0.:.| | +.O.O.:.:.6.3.3.3.1.:.$.1.3.[ P < ; c r r r q ",
"r 7 7 c z r n u r A V p.%XzXnXnXzXjXjXjXzXzXzXjXfXfXfX6X6X6X6X6X7X5X{.'.K.v.` N N ! | ! O.O.:.6.1.3.1.1.1.6.3.1.L U x.Y * 4 6 q ",
"n y y x y r y i u r i y.=XxXMXnXzXjXjXzXzXzXjXjXgXfXfXfX6X6X5X6X5X%X}.T.K.8.R X o & ! ! | X.O.X.X.>.>.1.$.1.1.@.( z.>Xl.V < r u ",
"V V x F x q 4 r q > 4 L }.nXnXzXjXjXzXzXzXzXzXjXjXgXfXfX6X6X6X6X-X%X}.T.A.;.$     + N ! ! | | X.-.-.1.>.1.1.3./ M :X<Xl.C e x x ",
"y n A F v y 4 y r 0 y Z G.NXnXjXjXbXbXbXbXzXbXjXgXgXfXiXgXiX6X5X@X}.L.D.j.` +     o N ! [ | X.O.:.1.1.1.>.>.4.M 4 [ z.^ 6 v V q ",
"y v v F x v r r t y 7 H G.NXMXzXjXjXjXbXzXbXbXzXjXfXfXgXgX6X6X-X}.T.D.j.j.-.& . . $ ! | X.-.3.1.$.-.1.1.-.>./ d 4 > 8 i v e.A 8 ",
"A u x D x V V x r 4 > ~ {.NXMXzXjXjXjXjXzXbXbXbXjXjXgXfXgX6X6X5X{.L.Z.j.Z.0.-.W R ` 9.d.f.0.3.1.1.1.1.3.1...m u y e v b e.F j i ",
"x 6 y y G i V c 4 y I s.0XxXnXxXjXjXjXjXbXbXbXjXzXhXgXiXeX0X5X$X{.D.Z.Z.Z.Z.Z.Z.v.B./.P.K.g.5.O.$.1.6.6.1.K 3 7 7 z A x A x i y ",
"r 0 u x e.y 7 6 > Z #.E.0XgXnXbXjXjXjXbXbXbXjXjXgXjXfXiX0XwX6X@XD.j.j.Z.j.j.Z.M.J.].oX_.P.m.5.3.6.1.2.2.2.{ m 5 7 y u d y u 7 7 ",
"p 6 u u A z r 7 q K g.}.5XgXcXnXbXjXjXbXbXMXbXjXgXgXfXiXwX6XT.:.:.:.j.D.Z.Z.J./.].$X3X].I.m.d.6.2.2.2.2.$.+.K 5 y c x y V c 5 c ",
"x - q 7 r q y q q d <.{.wXlXxXnXbXbXbXMXMXbXMXjXzXgXfXfX5XM.Q & Q j.T.}.}.T.T.].3X3X4X3XU.k.5.3.$.2.$.2.1.| [ 9 r > y y V x r x ",
"q 4 5 7 t v v S A V ..*XaXjXzXbXMXbXbXMXbXbXbXjXzXgXgXqXV.T % . T R.&X6X5X-X@X@X&X5X5X3XL.q.>.:.$.$.$.$.O.} M C y u x y S V 4 6 ",
"6 y 8 q r v v v A J Y.8XiXgXzXbXbXbXMXMXMXbXbXbXzXhXkX$Xv.% X X # v.5X6XwX6X6X$X$X5X3X].N.;.-.X.%.%.%.$.X.[ m n h y u u S A q 4 ",
"l 4 7 r , > 7 r m { ].6XqXiXjXbXMXbXbXMXMXMXbXbXzXgXfX=Xv.# . . R ].iXaXfXeXrX5X$X$XE.R.,.R R | X.+.%.O.%.%.m l r r , , y y < > ",
"x 5 r 7 x 4 r v m =./.&X$XiXjXbXzXzXbXMXMXbXbXzXzXgXiX5XT.9. .-.P.5XfXgXeXrXrX6X=X@XR.q.&.# + R @.$.$.+.$.$.H V x t - , t y q 7 ",
"F y x b v q q : P k.R.D.'.pXxXxXzXzXnXnXnXnXxXzXzXgXfX6X-X@XE.@X1XaXkXtXrX1X0XrXrX$XR.v.W @ . @ } @.@.$.$.o.B c x c > > c c y y ",
"x S n v y l 6 * h.>X,X~.F.gXzXcXmXbXxXzXnXnXxXzXzXgXfXeX=X#X@X#X0XhXkXkXtXrXrXpXiX3XR.v.W @ X o Q %.X.X.| m d v x q q > , r q x ",
"y S e.v S u > : l.!.c.~.d.qXvXMXNXMXbXbXnXMXnXxXzXgXgXiX1X#X}.#XwXkXzXMXbXpXrXeX6X'.Z.D.W +   % E X.o.X.M 7 F q 6 6 q y t u G F ",
"6 h x 7 q F x : ) ~.;Xl.K [.cXmXNXNXmXbXnXnXnXzXzXgXfXiX1X;X#X=XkXcXbXnXkXtX0X1X].v.:.:.@   X g ..X.$.2.{ - l r y 6 q v p t y 8 ",
"y y v A j V n 6 2 3 K s ( *XlXBXVXNXmXzXxXcXxXvXgXgXpXeX0X=X=XtXcXnXjXkXfXrX1X=X3X/.M.q.# o $ Q -.X.| z.{ 3 > u 7 q j i q y t 4 ",
"< e v G V x , - q 4 O s <.4XdXmXVXVXcXgXhXxXxXhXgXfXgXpXrX0XwXkXbXbXkXkXfXeX=X*X6X5X/.D.7.&.W ..X._ +.%.z 4 4 x 7 - q y j u r 6 ",
"4 c x G F x u q y V y C s.4XdXcXmXmXvXpXpXgXvXhXgXgXzXlXpXeXpXjXjXbXbXkXfX1X#X}.%X$X'.J.C.n.,._ M a 9 y y 2 4 u q 4 8 j j x 7 r ",
"y n v i z 0 i q > r 6 h p.3XlXvXcXxXjXpX7X7XpXhXlXlXcXzXjXgXgXvXbXnXnXzXtX;X@XT.F.J.D.j.8.( ~ m q y i i 5 4 u y 7 y u h y c z y ",
"r 6 A x x S j q 7 q z I <.9XsXlXvXhXhXtX9X{.*XuXvXaXvXmXcXkXlXcXVXmXmXjXtX1X#XW.A.k.6.o.M d 0 h A A F 7 q 7 q i 7 5 - , b e.l 6 ",
"p 6 u b j S D i > 4 z V ] ).oXuXdXaXsXwX*X}.}.%X9X4XaXBXBXcXbXmXBXmXmXlXkXrX#XH.k.z.a.) q c y c u u A 7 > 5 4 x S r 5 n F b l > ",
"j y t b x r x q q r r z k ] C.9XuXsXuX8X*X}.W.).G.s.W.uXvXcXmXmXmXcXvXkXpXrX#XW.k.d.5.#.A y u l r r y 8 - r y c n t i.~.x.V r r ",
"u A v r , r l r v v 7 q y j y.)..X9XuX8X4X}.W.s.] Z H y.W.OXuXcXbXkXtXuX1XOXW.l.g.4.@.o.U A r 7 r 7 x x 7 q y u t r l.2Xl.j i F ",
"y x A 6 r l l v v V z 7 u 7 s ( <.C.OX9X4XY.<.~ z v t q B ( s.pXBXuX8X5XOX).G.m.f.#.P H V x q r , < l x y 0 j j t > { u.K 8 y A ",
"y q y c v c n e.x y y , 8 i 7 B C J r.b.<.^ 3 8 V F u q y 9 s g.*X&X&X XW.Y.G.p.] K m y q y < V , c l 5 u 7 4 h j 7 4 6 < 4 8 y ",
"x V V x x V x A z 5 6 > 4 y u u y 0 j C j u 4 q V e.S u y 5 4 Z J g M ;.D.H.%.j V B q 5 - q q y y S n q 7 > > i G v r r u q 7 7 ",
"x v y V v y 4 r c 4 6 6 y G V i q 6 7 4 8 r 4 q i j y S y q 7 i 4 1 1 m o.^ 1 4 z q q q q 7 y y y D F x 2 7 r 4 j S v v v S u 7 "
};
