/* XPM */
static char *result[] = {
/* columns rows colors chars-per-pixel */
"64 64 235 2 ",
"   c #263E0E",
".  c #323F22",
"X  c #2D4B0D",
"o  c #2C4808",
"O  c #334D0D",
"+  c #304806",
"@  c #2C520D",
"#  c #285107",
"$  c #35530E",
"%  c #355B0E",
"&  c #395B0E",
"*  c #39550D",
"=  c #2E4C13",
"-  c #2B4613",
";  c #334E12",
":  c #334B1C",
">  c #374A1D",
",  c #355413",
"<  c #395613",
"1  c #365A14",
"2  c #395C14",
"3  c #355519",
"4  c #365B1A",
"5  c #3A5D1A",
"6  c #3A561F",
"7  c #2F5113",
"8  c #356213",
"9  c #3C6315",
"0  c #3E6A16",
"q  c #37631A",
"w  c #3C631B",
"e  c #3E6A1B",
"r  c #3C6913",
"t  c #364D22",
"y  c #384829",
"u  c #3A5424",
"i  c #3C5B22",
"p  c #395428",
"a  c #3C4C32",
"s  c #3E493A",
"d  c #2E5438",
"f  c #3D6421",
"g  c #3E6A21",
"h  c #415C1D",
"j  c #406517",
"k  c #416C17",
"l  c #40661B",
"z  c #416C1C",
"x  c #44731D",
"c  c #48751D",
"v  c #46791D",
"b  c #497B1F",
"n  c #427117",
"m  c #445A28",
"M  c #424D3B",
"N  c #425333",
"B  c #47593A",
"V  c #4A5530",
"C  c #426D22",
"Z  c #466629",
"A  c #457422",
"S  c #497622",
"D  c #467922",
"F  c #4A7C23",
"G  c #477629",
"H  c #4A6432",
"J  c #4A6537",
"K  c #536639",
"L  c #4D7432",
"P  c #557537",
"I  c #51742B",
"U  c #3D4D45",
"Y  c #454B44",
"T  c #494D46",
"R  c #474E4A",
"E  c #4A4E49",
"W  c #4C534C",
"Q  c #485848",
"!  c #50564E",
"~  c #585F49",
"^  c #4C5651",
"/  c #4E5953",
"(  c #495A57",
")  c #525452",
"_  c #525B54",
"`  c #555E59",
"'  c #5B5B5B",
"]  c #585A57",
"[  c #556848",
"{  c #5B7344",
"}  c #55615C",
"|  c #5B635D",
" . c #596754",
".. c #516A50",
"X. c #647447",
"o. c #61685B",
"O. c #687658",
"+. c #767D57",
"@. c #6A724B",
"#. c #5E5D61",
"$. c #566463",
"%. c #5B6662",
"&. c #5D6964",
"*. c #5D6B6B",
"=. c #54676A",
"-. c #566C73",
";. c #5D7277",
":. c #5A7567",
">. c #626462",
",. c #626B65",
"<. c #636D6A",
"1. c #696C68",
"2. c #65716E",
"3. c #6A726D",
"4. c #697665",
"5. c #747669",
"6. c #647373",
"7. c #6B7573",
"8. c #6D7A76",
"9. c #6C7A7B",
"0. c #64787B",
"q. c #717D7D",
"w. c #767975",
"e. c #4D8324",
"r. c #4B8129",
"t. c #518929",
"y. c #5F8A42",
"u. c #698A48",
"i. c #768558",
"p. c #728B55",
"a. c #7B8A68",
"s. c #74807D",
"d. c #7D817E",
"f. c #728B6F",
"g. c #828F5C",
"h. c #828A6E",
"j. c #838978",
"k. c #979777",
"l. c #8C986E",
"z. c #AC8060",
"x. c #99A277",
"c. c #C29C64",
"v. c #CAA76F",
"b. c #C19350",
"n. c #5B7781",
"m. c #6C7E81",
"M. c #657E84",
"N. c #6B8288",
"B. c #738283",
"V. c #74868A",
"C. c #74888B",
"Z. c #7C8B8D",
"A. c #7C8786",
"S. c #6A8893",
"D. c #728B92",
"F. c #7B8E92",
"G. c #7E9194",
"H. c #75919B",
"J. c #7C949C",
"K. c #779097",
"L. c #7996A1",
"P. c #7D9AA3",
"I. c #7C9BA6",
"U. c #7FA0AC",
"Y. c #848785",
"T. c #89918E",
"R. c #808F91",
"E. c #829295",
"W. c #82959A",
"Q. c #85999D",
"!. c #899A9D",
"~. c #999B88",
"^. c #A69D85",
"/. c #B29D8F",
"(. c #9DA285",
"). c #91A09F",
"_. c #A6AA8A",
"`. c #ADA792",
"'. c #B9B395",
"]. c #B8A88C",
"[. c #849CA3",
"{. c #8A9DA2",
"}. c #849EA9",
"|. c #8CA1A6",
" X c #84A1AB",
".X c #8CA3AA",
"XX c #8AA4AB",
"oX c #92A6AB",
"OX c #94A9AF",
"+X c #99AAAD",
"@X c #93A4A7",
"#X c #8DAAB4",
"$X c #88A7B3",
"%X c #94ACB3",
"&X c #9AADB3",
"*X c #92AEB9",
"=X c #9CB1B7",
"-X c #95B3BD",
";X c #9CB4BB",
":X c #9CB5BC",
">X c #A2B5BB",
",X c #A4B9BE",
"<X c #A5B7BA",
"1X c #BDB6AA",
"2X c #CBB898",
"3X c #CCAF91",
"4X c #C8B8A8",
"5X c #D1C4B2",
"6X c #9DB9C3",
"7X c #98B6C2",
"8X c #A4BCC3",
"9X c #AABEC4",
"0X c #A2BEC9",
"qX c #A6C0C6",
"wX c #ABC1C6",
"eX c #A5C2CC",
"rX c #ACC3CB",
"tX c #AFC8CE",
"yX c #B2C6CC",
"uX c #B4C9CE",
"iX c #B0C3C7",
"pX c #AEC9D4",
"aX c #ABC6D2",
"sX c #B4CBD3",
"dX c #BACED4",
"fX c #B6CFD8",
"gX c #BCD1D7",
"hX c #BDD2D9",
"jX c #B5D1D9",
"kX c #BFD9E2",
"lX c #C2D5DC",
"zX c #C4D8DF",
"xX c #C5DAE1",
"cX c #C6DDE6",
"vX c #C6E1EC",
/* pixels */
"C 1 e e C C 2 0 1 3 0 5 O < n v e.S 1 w l w 9 x S i A e x z , e k 2 9 b v f g q , l S w 9 $ 9 w G G 5 w 9 4 , 5 2 1 A S C z 9 < ",
"5 $ C C A w w w x < $ 1 5 w e v l w 0 , w e e 1 x w f g S j O 2 O 2 5 5 0 e G G l < $ ; 1 5 0 w w D z 9 0 w * $ , , A F g , & 9 ",
"w 1 5 9 w 5 5 , S k j 1 , C F w < ; , 1 O 1 w 4 0 A S x 5 9 9 1 6 7 , , Q y 5 z x w < 1 1 4 e w g k 9 w , k k 0 2 % 1 q e 9 9 4 ",
", 4 w x q w 0 x e.x 9 9 5 S F w 9 9 q 5 5 5 1 , 5 A A D w 4 5 ..9.0...0.;.U t 9 < ; , f S e 1 5 A z 3 1 5 A C w 1 m p.u.C & 5 5 ",
"w l w S k v x n D [ @.1.4.u.y.L 9 $ 9 e 5 j k j w 0 0 5 :.[.XX-X:X#XI.s._ =.;.M : 1 3 e x k k z & $ 5 5 n 0 w D y.(.5X5X+.X 4 w ",
"l C w 9 v x A 0 [ w.Y.Y.Y.a.f.4.P 6 w e z j G * % ; t 7.-XqXqX8X:X%X XG.B.N.N.-.t v w S j 9 k < + < 9 S z x 0 0 a.'.v.3X~.Z 8 z ",
"z w w w $ 0 v D X.7.w.w.w.7.1.1. .m 9 w w a.~.w. .m.[.0X6XqX8X8X:X*X#X{.J.J.D.0.s x v v z 9 9 * & $ k z w z x X y.`.].4Xh.w 0 e.",
"e 5 k C 0 F e.L o.1.1.1.1.,.>.,.' m r $ J '.5.*X6XqXeXqXqXqX:X;X:X:X|.!.XX|.Q.N.} a x F A , * 5 w 2 w A F e.j ; o X.~.l.H q A e ",
"O * z F A e.e J | >.>.o.#.>.o.#.W u 9 @ m j.[.aXtXtXtXtXrX,X<X<X:X&XE.!.W.G.Z.s.:.} f x < X 2 w 1 x 9 0 f j 0 < - i G i 6 g w 3 ",
"; k D g f w q a ) #.' o.>.' ' ) M w O X N W.sXfXtXsXsXsXyXrX,X<X+X).Z.E.Q.{.J.C.0.=._ 3 5 2 , w 0 z , k 3 9 2 < 3 q q q e 0 2 , ",
"2 z x g w g 9 3 N W [  .) E T V ../ } | F.8XfXfXgXgXgXjXuXdXiX+X).T.d.).|.|.XXG.9.*.$.^ > 2 4 w w w w e ; e k 5 1 4 f 5 w 0 9 1 ",
"w 9 q A A x 9 + - p i y y . : 4 p I.*X$X0XrXuXfXhXhXhXgXuXuX,X+XT.d.f.!.|..XXXJ.N.2.} ` T , 5 w w w 5 0 2 , e w @ 1 w 5 e 0 , < ",
"9 0 w F G e 0 5 ; =       - = &.N.I.jXeXtXjXhXlXhXhXgXgXyXiX<X+XT.5.d.!.oX=X-X[.C.9.%./ a w , w w A w e w O 4 1 O & w e 8 r 9 9 ",
"0 x e A A q S x w 1 , , 6 5 B }.eXpXjXjXjXgXhXgXhXhXgXdXyX9X=X@X+XoX!.E.!..XOX|.F.8.&._ s g 5 q f S 0 5 w k < 2 k l 1 P a.u.e.e ",
"D e x e % 1 e 5 e 0 5 4 w w B J.pXvXkXjXdXuXgXgXgXhXgXdXyX<X<X<X9XrXqXoXQ.|.oX|.C.9.:.| / s 7 w f w z 9 5 w w 9 z C @ u.5X_.F e ",
"A w e.e u.u.e @ w w , ; N N >.J.tXvXkXtXdXhXgXgXgXhXgXdXiX<XyX,X,XtX>X!.E.R.Z.!.C.&.<.%.} W : e w 5 w l , ; w w 2 w 1 P k.i.C q ",
"f 9 e u.'.'.g.5 1 5 2 > 1.Z.W.7XhXcXfXdXhXhXlXlXlXlXiXuX1X,X9X9X+X+X+XZ.E.W.C.8.s.<.%.%._ ) 4 z l 0 w 4 , 2 2 3 4 0 z l i f e w ",
"g e q i.].2X_.6 1 5 5 K 3.!.0XfXkXxXjXhXlXdXlXdXlXuXuXiX9X,X9X9X+X!.OX|.Q.Q.{.B.,.| | %._ _ y w A v 0 w w x w w 4 w x 0 , e D f ",
"A w 5 : @.k.@.; z j < K m.%XuXkXxXkXjXfXdXdXlXdXlXuXlXuXiX<X,XyXrXwX=XOXE.R.Z.G.s.2.&.| } _ ^ M i 0 A e w z S v 9 k b w 3 4 4 q ",
"9 1 1 X > i + O k k k H q.=XuXkXcXfXaXsXlXlXlXlXlXlXuXuXyX<X<XyXtXqX9X=X!.!.Z.9.8.9.2.| } _ ^ ^ T 2 e x F l w w w c n 0 ; * $ , ",
"z w 9 5 e o 1 * k v j o.R.OX0XhXlXhXdXlXlXzXzXzXlXdXdXuXiX<X>X9XyX=XOX,X{.!.W.s.<.3.7.&.` _ / ^ Q > 3 C F l 5 2 l z w 0 j 9 2 j ",
"e ; 5 1 C 9 < , l e.H 3.q.{.rXhXkXlXlXzXzXzXzXzXlXdXuXyXiX<X<X>XwX9XoXoX!.E.Z.A.3.,.3.&.` / ^ ^ ^ ^ y w w 3 9 2 w C C l e.x 4 x ",
"5 , 5 2 4 e < O O j Z ] 7.{.9XhXxXhXzXzXxXxXzXzXdXdXdXyXiX9X,X<X+X>X>X@X!.W.Z.s.8.<.,.} ` ^ ^ ^ ^ ^ s , 5 5 2 5 Z g z S F C < , ",
"1 w w 0 w 0 5 , j 2 5 O N Y.9XgXxXhXzXzXzXzXzXlXlXdXuXyXyXyX9X9X<XOX&XoX!.E.G.d.8.3.,.} / W ^ ^ ^ R U 1 ; D H ! } P C e S v 9 2 ",
"2 2 e e k w , w < 5 g w m !.9XdXgXhXlXxXxXzXlXlXlXlX9XlXiXuXuXwXwX>XoX!.!.R.Z.B.8.<.,./ Q U W R W Y a x l K | | 1.7.1.I e 9 O $ ",
"5 5 x A 2 w * ; < w w h [ w.=XuXgXhXlXxXcXzXlXlXuXyXyX1XiXyXlXdXwXqX&X@X!.E.A.s.3.<.%.U d d W W R M 4 D ~ ' o.1.w.d.Y.5.[ x 0 9 ",
"v 2 x F w 5 5 X g w , O w H |.pXdXhXzXzXxXxXzXlXlXdXyXiX9X9XfXkXrX9X&X@X@X!.B.8.,.&.&.Q d d _ Q R Y ; T ] #.1.w.w.j.T.Y. .6 1 e ",
"w 0 x A v 2 w 1 e & < w b K oXhXhXlXlXzXxXzXzXzXlXlXdXiXwXyXiXhXwX8X8XoX!.!.m.1.,.%.` ^ U Q / / R s w T ' | 3.w.Y.Y.T.Y. .i w f ",
"z , 4 l C w w e k 5 , z z [ >XhXhXlXlXlXzXzXlXlXzXzXdXyXuXdXyXrX9X>X=XoXW.A.8.2.<.| ` W W W ^ W R a w Z [ { O.3.j.Y.A.w. .l % * ",
"9 $ 3 C A l w = 9 D O $ <  .8XkXdXdXlXlXlXzXlXlXlXzXlXyXdXyX9X9X8X&XOX).W.A.8.7.&.` _ W T R W R W t e x H C B [ o.O.O.{ H k 2 $ ",
"< , C F f 5 x 9 S c 9 < , s.gXhXlXlXlXlXlXzXlXlXdXlXdXdXdX9X<X>X>X&X|.{.W.m.8.2.%.| ) ! W Y Y Y p 5 q 5 A C -   = u S e 9 5 , $ ",
"O 2 w S D e w z C w 2 9 , A.gXxXlXlXdXlXlXlXlXlXdXdXuXdXuX9X>X>XOX&X|.E.F.q.7.,.>.| _ E T Y Y Y O 9 9 9 k 0 ; X X , 9 0 x z 5 2 ",
"9 , 4 5 z v x j C A w e V OXfXxXlX9XlXlXlXlXlXlXlX9X9XlXdX9X>X>X&X&X}.W.Y.m.w.2.&.} ! T M E R R O + 9 9 0 9 5 < 5 9 & n b z 9 w ",
"O 1 5 , < z b w A G G C N &XfXlXzXlXlXdXdXlXdXlXlXlX9XlX9X9X8X=XOXoX{.E.Z.m.9.6.,._ ! T T E E Y , 0 & < 0 v 9 9 x % # 9 0 2 9 5 ",
"9 2 < j w 0 v e w S z g ~ >XgXlXzXzXlXlXlXlXlXdX9XlX9X9X9XsX8X=XOXoX|.E.R.m.w.2.| ] ! ! E E R R 6 x 9 1 5 w 1 1 % P g.P X , 1 5 ",
"v w w z w 9 w 9 0 w w w  .8XsXgXlXzXlXlXlXdXdXdXlX9XlX9X9X9X>X8X&XoX@X{.Y.m.6.<.>.] ! W ! W W T i x z w 4 5 w % i l.2Xk.C & w e ",
"z C z F z 5 , w 5 $ 1 2 ~ >XsXlXlXlXlXlXlXdXdXsX9XlX9XdXyX9X8X=XOX*X%X{.F.9.7.<.,.} ! ! ! W R R t j C , 5 w , X m k.5Xk.Z 1 x e ",
"w S A F A j , 9 5 5 5 5 B 8XfXdXlXlXlXlXlXlXlXdXlX9XdX9X9X8X>X=X{.oXoX{.F.q.7.,.&. ._ ! ! ! W E i 6 C j 0 w 5 , , @.h.[ 4 x A 5 ",
"w v S D z x 5 9 0 9 2 0 ..0XjXgXdXlXlXzXlXlXlXdXsXsXsX9X9X8X;X=XoX{.Q.W.V.7.<.%.| | } _ ! ! E Y f f C c 9 2 z w , O 5 q x r.e 5 ",
"C e e v z C z x 5 1 ; 4 [ eXfXgXlXlXlXlXdXlXdXdXsXdXdX9X9X8X;X&X@X@X[.E.B.q.7.,.,.| _ ) ! W R t w 0 k w q , , 0 w 9 e b e.F g q ",
"l 5 w w A f C j , w w 5 N qXjXgXdXdXlXdXdXfXlX9XsXyXyX9X9X;X=XOX}.{.[.W.F.m.m.6.<.&.] E T T Y t C e e 5 A w O w 2 w S e A C w w ",
"9 q e z r.w 2 1 % 9 x l : !.sXjXfXdXdXdXdXdXlXdXsXyX9X8X8X;X&XoXoX{.[.W.F.V.9.2.2.#._ E T T T t w w w w 0 c 4 < 1 l w i w e < 1 ",
"e 1 e e A w 9 < 5 ; $ 1 9 8.pXjXfXfXlXdXdXdX9XfXrXwX8X<X8X8X&X.X{.{.E.[.C.m.6.*.&.%.` ) / Q Y 6 A g w 1 O z w , w j 0 g C j & 9 ",
"z O w 1 9 5 0 5 w 1 2 9 A 8.rXsXdXfXfXsXsXsXsXsXyX9X8X>X8X8X=X{.[.[.E.F.C.7.6.*.%.| } ) ) W y 5 S t.f 2 9 j 3 5 9 * w w C z 9 x ",
"4 , < 2 e l x S A e 9 5 2 8.0XuXfXgXfXfXsXdXfX9XrXeX8X>X>X:X*X|.W.[.W.m.m.m.>.<.*.%.} _ ! W u h w z C , $ A A A f w l w G A 3 , ",
"2 w 3 2 0 v x x A e e 1 5 B.8XaXsXfXhXfXsX9XfX9XwXqX8X>X%X%XOX|.{.{.[.F.m.m.6.<.<.*.%.` W W u & x w 2 , 5 k z c f e e k v C < < ",
"j < 2 w & $ 2 9 w e z j j B .XaXfXfXfXfXfXsX9X9X9X8X:X:X&X%X|.[.W.E.J.D.m.7.6.&.%.$.` W W Y 2 & O 9 9 9 x k 0 k 0 9 & & w q $ & ",
"z 2 9 9 l , 9 x 9 Z L Z j h G.rXaXfXfXfXsXpXpXpX0X8X8X:X%XOXXX|.[.J.F.m.w.6.>.%.` _ ) W W t 9 * $ 0 x 9 z D A z z 0 $ < 0 w 5 2 ",
"D j l v A 5 3 @ P (.1Xx.H 8 B.eXaXjXjXjXpXaXrXqX0X,X6X:X*XOXXX X[.J.J.N.6.6.*.} ! ! W W Q t 0 0 n 0 $ C l G j j j e , * 2 0 w w ",
"l D x v w j 1 @ a.2X3X1Xa.w <.:XaXpXpXaXpXtX8X9X8X:X;X=X*X%X|.Q.W.J.J.N.*.&.%.} ! T T Y Y C e.0 2 0 I 5 2 5 5 A 0 5 2 $ & j 4 C ",
"w S e.S D k , @ l.2Xz.'.a.f p  XeXaXpXpXpXtXqX8X8X:X*X%X%XXX|. XP.J.F.m.*.&.} _ ! W Y Y > x e w Z k.'.x.h 9 F 5 1 4 2 j 0 e S G ",
"4 w C 2 5 F z # { '.5Xx.H 8 e  .6XeXaXaXrXeXqX0X:X=X%XXXXXXXJ.J.H.F.D.0.-.*.%._ ! W Y M 5 q e 4 g./.b.3X@.O k 0 w 4 5 A A w 9 4 ",
"w w e D g g n 2 ; > K u = A x t $XeXeXeXeXqX8X0X6X;XOX#XXX X X XH.D.N.m.;.} $.} / T Y : w 5 0 3 X.x.z./.@.; , 0 5 5 f w 5 w 0 1 ",
"$ 8 x G g x 2 $ q ,   X 1 e f 4 0.7XeXeXeXeX0X0X6X:X*X#XXX X XI.L.D.m.0.;.} _ / T Y a $ w w w 6 h +.k.+.w 1 , e 1 $ 5 w e e 0 < ",
", 0 l G G x w 1 5 x w w z w 6 w p $X6X6XeX0X6X6X-X-X*X%XXX XJ.J.K.S.M.6.=.} / W Y y , , 0 A C g , 3 u w w , , w 2 , 5 f C l < 5 ",
"0 c S w l 5 w 5 ; j 2 4 0 w g g 1 ;.*X7X6X6X6X7X-X*X*XOXXXP.J.P.H.D.M.;.=.` / W y O O w z w w w h w q 9 , < e w 5 w g w w k w w ",
"e 5 e x l A g 6 2 5 l A G D A k z f %.$X7X-X7X7X-X*X*X$XU.I.L.L.H.D.N.;.=.( ^ a 1 2 j k , 5 5 e A A D 2 5 2 5 w 9 $ $ % n e.0 1 ",
"e 1 0 v A D D w , $ z k z z z j 1 i , / L.#X*X*X*X*X$X$XU.I.L.L.S.S.N.-.$.( a 4 0 w S S 1 w w e w C D 1 $ 1 < l S 9 2 c e.b z , ",
"g w 9 b z 9 C 5 5 5 2 j 5 9 k j 5 A 0 j a ;.L.$XU.*XU.$XU.U.L.H.S.M.n.-.( i 8 w C z C l x e e 0 9 9 w 1 O 9 w w x 0 p.].i.C 9 9 ",
"e A x 9 & 9 k k v x 2 5 0 & & 2 C F C g e 5 d &.S.I.U.U.U.I.L.S.S.n.=.W a.l.P q k G A 5 D g 9 9 j & z z 5 5 w e 0 9 k.5Xk.C 8 D ",
"w z C 5 9 k k n x z w 5 j 2 + * k x C f w e l 3 d ( ;.S.N.S.S.;.-.( a (.2X2Xl.w 8 w w g C 0 2 w & * k z w 5 g g 0 $ { a.K 4 w S ",
"w w w 9 x w n e.z w z < 4 5 & k e w C F A l , 4 g e.3 d t y U Q i @ J (.v.2X~.A 0 < 2 w 2 w & C j & k 4 0 1 , f e 2 $ 1 1 , 3 f ",
"k C l z A e l x l , , $ 3 f 0 e w 4 l C z k , 4 A F A e w 2 , k x 7 7 +.`.`.O.k x 5 2 < ; 5 5 w l c x 5 5 $ $ 5 G A 9 9 0 9 < 5 ",
"z v w C x w < w j 1 1 & q S C 5 9 * 2 , 3 9 , 4 f g 0 A w 5 2 w 4 1 X > @.[ = , j w 5 5 5 2 w w w D F z O 5 9 , C c A x z S k 2 "
};
