/* XPM */
static char *result[] = {
/* columns rows colors chars-per-pixel */
"64 64 243 2 ",
"   c #020104",
".  c #191716",
"X  c #13100D",
"o  c #261919",
"O  c #273711",
"+  c #181D21",
"@  c #162128",
"#  c #393939",
"$  c #2E3028",
"%  c #423E34",
"&  c #2D4B0D",
"*  c #2C4609",
"=  c #334D0D",
"-  c #314A06",
";  c #2C520D",
":  c #2C550B",
">  c #35530D",
",  c #365A0E",
"<  c #395B0E",
"1  c #38540D",
"2  c #2E4C14",
"3  c #2B4413",
"4  c #324E12",
"5  c #354C1C",
"6  c #2E5213",
"7  c #355413",
"8  c #395614",
"9  c #365A14",
"0  c #3A5C15",
"q  c #355519",
"w  c #3A541B",
"e  c #365B19",
"r  c #3A5D1A",
"t  c #39630F",
"y  c #356114",
"u  c #3C6315",
"i  c #3E6A16",
"p  c #3C641B",
"a  c #3E6A1B",
"s  c #37631A",
"d  c #3F701C",
"f  c #3A4828",
"g  c #3C5A22",
"h  c #3B5526",
"j  c #3C4E31",
"k  c #3D6421",
"l  c #3E6A21",
"z  c #415D1B",
"x  c #406517",
"c  c #416B16",
"v  c #40661B",
"b  c #416C1C",
"n  c #44731D",
"m  c #48751D",
"M  c #46791D",
"N  c #497C1F",
"B  c #427117",
"V  c #425C23",
"C  c #435C2A",
"Z  c #465A2A",
"A  c #465938",
"S  c #504E3A",
"D  c #436524",
"F  c #426D22",
"G  c #45622B",
"H  c #496C2D",
"J  c #48682B",
"K  c #457422",
"L  c #497622",
"P  c #467923",
"I  c #4A7C23",
"U  c #477529",
"Y  c #4B6B33",
"T  c #4A6738",
"R  c #52653B",
"E  c #4D7433",
"W  c #547637",
"Q  c #50742B",
"!  c #63703E",
"~  c #4A4A4B",
"^  c #535948",
"/  c #585958",
"(  c #4F4F49",
")  c #635B4B",
"_  c #665351",
"`  c #4D6644",
"'  c #546D43",
"]  c #586748",
"[  c #5A7446",
"{  c #5E625D",
"}  c #5A6652",
"|  c #5C7457",
" . c #637547",
".. c #646554",
"X. c #65655A",
"o. c #656A5B",
"O. c #6A6B5C",
"+. c #666A54",
"@. c #716E5A",
"#. c #687558",
"$. c #73725C",
"%. c #757A57",
"&. c #69714B",
"*. c #5E5D61",
"=. c #5D7369",
"-. c #626462",
";. c #666965",
":. c #6B6D62",
">. c #6A6D6A",
",. c #746C66",
"<. c #6E7164",
"1. c #697668",
"2. c #727364",
"3. c #73756A",
"4. c #747A6C",
"5. c #7A7A6B",
"6. c #797667",
"7. c #697777",
"8. c #747A73",
"9. c #757D7A",
"0. c #797A75",
"q. c #4D8225",
"w. c #4B8129",
"e. c #518729",
"r. c #61803E",
"t. c #5E864A",
"y. c #688949",
"u. c #758659",
"i. c #718C59",
"p. c #688367",
"a. c #7B8869",
"s. c #7D837B",
"d. c #768479",
"f. c #799177",
"g. c #858C5A",
"h. c #868A6A",
"j. c #84887B",
"k. c #8B9877",
"l. c #979677",
"z. c #92956B",
"x. c #AC8060",
"c. c #99A277",
"v. c #C29C64",
"b. c #C9A872",
"n. c #C19350",
"m. c #707D80",
"M. c #7A8584",
"N. c #7D8B8C",
"B. c #788786",
"V. c #7A8D92",
"C. c #7D9398",
"Z. c #748A85",
"A. c #7F97A0",
"S. c #838583",
"D. c #838B86",
"F. c #838D8C",
"G. c #898B89",
"H. c #88958C",
"J. c #828E91",
"K. c #849394",
"L. c #8B9593",
"P. c #84959B",
"I. c #859A9D",
"U. c #8C9B9D",
"Y. c #889A96",
"T. c #939C97",
"R. c #999B86",
"E. c #A79F8A",
"W. c #B29D8F",
"Q. c #9CA284",
"!. c #93A29F",
"~. c #8DA19E",
"^. c #A7AA8B",
"/. c #B7A987",
"(. c #ADA792",
"). c #B8B497",
"_. c #BBA792",
"`. c #859BA3",
"'. c #8A9DA3",
"]. c #939FA0",
"[. c #8CA1A5",
"{. c #8CA3AA",
"}. c #89A4AA",
"|. c #91A5AB",
" X c #96A9AE",
".X c #9AACAB",
"XX c #97A4A4",
"oX c #8EA8B0",
"OX c #95ADB4",
"+X c #9BAEB4",
"@X c #9DB4BB",
"#X c #9AB1B8",
"$X c #9DB0AE",
"%X c #A2ADAE",
"&X c #A3ACA6",
"*X c #A5B2AD",
"=X c #A2AFB1",
"-X c #A9B6B4",
";X c #A2B5BA",
":X c #ACBCBD",
">X c #A5B7B9",
",X c #B8BAB5",
"<X c #C9B698",
"1X c #CAAC90",
"2X c #C4B6A6",
"3X c #D1C4B2",
"4X c #9EB8C1",
"5X c #A4BBC2",
"6X c #ABBDC2",
"7X c #A4BEC8",
"8X c #ACC1C6",
"9X c #ACC3CA",
"0X c #A7C3CC",
"qX c #B3C3C5",
"wX c #B2C6CB",
"eX c #B5C9CD",
"rX c #BBCCCD",
"tX c #B9C7C7",
"yX c #AEC9D0",
"uX c #B3CCD3",
"iX c #BACDD3",
"pX c #B5CED9",
"aX c #BDD1D5",
"sX c #BCD3DB",
"dX c #B8D3D9",
"fX c #BED0CF",
"gX c #BFDAE0",
"hX c #C1D3D6",
"jX c #C2D5DA",
"kX c #C5D9DC",
"lX c #C9DBDE",
"zX c #C8D7DA",
"xX c #C0CFD2",
"cX c #C5DBE1",
"vX c #CBDDE2",
"bX c #CEE1E5",
"nX c #CCE4E9",
"mX c #CEE8EB",
"MX c #D1E2E6",
"NX c #D3E5EA",
"BX c #D5E9ED",
"VX c #D8E9EC",
"CX c #D7EDF2",
/* pixels */
"F 9 a a F v r i 0 9 a 0 = 0 c N q.K 0 r b p u n L r U a M b 4 n v 0 x L m k l p 7 p L v 0 > u r U U 0 s u e q u 0 q K K K b u 9 ",
"r > F F K p p s n 8 > 9 s p F n b s i 8 r a i 9 m p k l L x = 0 = 0 0 r i v P U v 0 7 & e 0 i l a L v i i i 1 = 7 7 K I l 7 , u ",
"p 9 r u p r r 7 L c u 8 7 K L x 8 = q 9 = q p 9 i n K n p 0 u 8 r 9 7 4 u 0 s F b x 9 8 9 9 b p b v s s 7 b B u 9 > 9 i i s u 8 ",
"7 r p n s r d B e.n t u e K I p u u r e p r 9 q p K K P p u x s i l e 7 b B p u 0 4 7 k U v 9 0 K B w 0 0 U p u 9 D u.y.F 9 0 r ",
"p a p K B m n M I ' | >.1.y.t.W s > u p u p v x s v s b m b s a e.L F r u t 1 1 u 9 7 v n c v x 0 > r 0 M i p q.y.^.xX3Xu.= e r ",
"v F p u M m K i ' 0.S.S.S.a.p.p.W g u n b i L 8 u t < < u v a P n r v i < - - < M m v K x u B 0 * < u m b b v i i.1Xv.<XR.G y n ",
"b p v p > i K M +.8.0.0.8.3.>.:.+.C u s k u.*X^.W t 1 x L n a v p p x i = - - 0 K b M M b u u 8 < 1 x B v b n & t.(.1X).h.r M q.",
"p s v b i N q.E { ;.;.>.-.;.-.;./ C t 7 R ).b.1Xk.> < n I 8 p r e 7 1 0 < 1 7 7 7 0 M I K 7 1 0 p 0 s U I q.v & *  .R.h.T s K u ",
"= < b I K q.i A { -.{ { { -.{ -./ w y ; Z ).1X2Xk.6 p K m p 8 4 r 0 7 b q.t : t 0 8 K n 8 & e p 9 K u b k v x 0 3 k Q g e l s q ",
"= x P l p k s A / *.{ { { *./ / A p 7 & q &.E.Q.T 7 e r s m s r 0 7 u q.q.Q 0 - 8 7 0 i u 0 8 p i a , i q 0 0 7 9 e s s k i 0 8 ",
"8 n K a p d u q j ( ' } / ( ~ C F F 0 8 7 3 Y w e s q F K n i p p r b i ! z.g.! D > x p 8 0 8 r p p p i 7 p B 0 9 q s r v i 0 0 ",
"p s s K F K u - 2 h h f f $ 5 e i v v a 7 6 s * 8 r l K K B i 7 s p i : ] b.1Xh.w > p r p r 0 D r p u x 0 7 b s 7 9 s p p i > 0 ",
"u i s I K l i 0 6 2 O O 3 3 6 q p n s p 7 0 P r p k U q.u 0 a 8 7 0 v 9 D h.l.^ 7 7 > 9 a p 7 x p K s b a 4 9 e = 0 x p s t u s ",
"i n b K K s K n i s 6 7 6 s a s a v p v > q 0 i r p K q.e e a K p 8 u p 7 V C 6 s K r 9 9 n s p k L v r p v 8 8 b v e W i.i.I B ",
"K n m a 9 y i 0 i i p e v p s l p 8 e i i 8 7 1 a ` | T k ' Z c p 7 r s s r , 9 0 b n q 0 i r p p p B u 8 p i i c F ; y.3X^.Q i ",
"K p I d y.y.v 4 p s > q 8 e r a p 0 7 r B v n 0 K Y.=X+Xf.L.s.T v D U E E E k G w > 0 = b n 9 p v r p v 7 4 u p 9 p , W l.u.K s ",
"p r a y.).<Xg.e 9 e 8 q 7 i a p p G k J ` G U G | ].6XuXwX;X;X.Xp.p.Z.XXY.Y.=X.Xd.| ] T [ F p n F i s e 8 0 0 e e p b v g k K p ",
"F a s u./.<X^.g 9 u p p s b b p k 1.OX}.OX XZ.$XiXwXiXjXcXhXcXvXCXVXNXvXvXkXhXjXjXcXgXaX>XZ.| ;.1.W d u r K a r 8 p m p ; a U s ",
"n p 0 5 #.l.&.3 B x 9 B b 0 c D p.I.yXsXsXgXnXbXnXvXcXvXvXNXNXNXVXMXMXVXVXvXzXzXjXjXjXkXcXcXjXsXpX[.p.t.a b P K p b N i 8 r 9 s ",
"u 9 e & 5 r & - v b c b n 7 0 | @XyXbXnXmXBXBXBXvXcXNXMXNXNXvXvXlXlXvXbXNXBXNXMXvXkXkXjXjXkXjXjXaXdXpX4XZ.T s a i B M u 4 1 7 7 ",
"b 0 p s b * , 1 i M B u s q r p.0XdXcXnXCXCXCXCXMXvXMXNXMXvXvXzXlXbXvXlXMXVXVXMXNXvXvXlXjXjXjXjXjXjXsXsXpX5XC.' k F i i v u 0 x ",
"a 4 p 8 b u 8 7 v q.N p 7 a E oXuXpXcXvXmXBXVXVXMXMXMXVXVXvXvXvXvXMXlXzXvXMXvXMXbXvXvXvXvXjXzXcXjXcXjXgXpXpXyX0XC.T F a q.b r n ",
"r q 8 0 e a 0 = 4 v K 8 e r =.8X9XeXiXiXhXcXnXMXMXVXVXVXVXMXMXvXlXMXMXlXvXMXbXvXvXvXvXvXvXjXcXjXjXjXjXsXsXpXpXyX0XoXH m I v q 7 ",
"0 s i v p a r 4 u 0 p > 9 9 ` ;X@X>X:X9XhXvXNXVXNXMXVXMXMXVXMXvXMXMXlXMXbXvXvXvXvXbXvXvXcXvXjXjXjXsXsXjXsXpXuXeX9X0XI.D P M u 0 ",
"0 0 b d i p q p 8 r a p x B J Z.~.[..XeXbXnXnXNXMXMXMXMXMXNXMXMXMXlXMXvXzXlXlXvXMXNXNXvXjXjXcXjXjXhXiXiXiXuXuXyXyX0X0Xp.d k 6 7 ",
"0 0 K F 0 p 1 4 8 p p p x s s | Y.XX9XkXkXnXbXbXbXbXbXbXvXvXzXvXMXlXlXzXzXhXlXvXvXvXvXvXjXxXjXjXsXhXiXuXeXuXeXyXyX8X7XOX` l u s ",
"m 0 n P i r r & a p > = i K r g d..XsXbXaXkXlXlXlXlXlXlXzXcXzXvXzXzXzXzXxXzXzXlXvXvXjXjXhXxXjXjXsXiXiXeXwX9XwX9X9X0X7X4X7.h y a ",
"i c n K I 8 u 0 a 0 8 p I n K K Y ~.dXcXlXhXhXkXjXjXjXkXjXjXjXzXzXzXzXxXxXxXhXzXjXjXvXvXjXhXpXxXaXeXwX9XwX9X9X0X8X7X@X@XoXj u F ",
"v 7 r v K r p p B 0 7 b v 0 s p p.gXmXnXlXaXfXhXrXeXwXeXxXiXxXjXjXxXxXxXtXtXxXhXjXpXjXxXjXpXiXxXiXuX6X6X8X6X5X5X7X7X4X@X#X=.6 7 ",
"u 7 q F K v p 2 0 I = > 9 0 u g OXmXNXlXaXeXtXtX-X*XF.m.=XeX6XxXhXiXrXtX:XqXrXzXvXvXlXjXiX6X6X6XeXyXyX6X5X5X;X;X@X@X@X@X#XV.6 7 ",
"0 q b I k r n i I L u 8 7 s l ` sXnXlXsXtX:X:X-X*XR.# @ ~ +X6X6XwXrXtX:X6XiXzXvXNXNXNXvXaX6X4X6X6X6X6X4X;X;X@X@X#X#XOXOXoX}.j 7 ",
"= 8 p K P a s b l p 0 u r q J H.nXnXbXsXaXqX-X!.&XD.+ @ + ,.%X6X6X6X6X6XtXiXhXjXcXvXvXjXeX5X;X;X;X4X=X+X#X#X$XOXOX|.oXoXoX}.j 9 ",
"u q q 0 b M n x F K p a a s Z.mXmXCXVXMXlXbXfX:X-X].# + % _ G.-X%X%X:X6XwXwXrXaXiXaXiXwX6X+X+X+X X=X+X X.X X XOXoX'.{.{.}.A.A g ",
"- 9 u q 0 b N p K U U F p i Y.sXlXmXVXMXbXNXMXzXjXrX|.m.G.5.0.L.L.T.=X>X:X6X6XwXwXqX6X=X+X|. X X|. XOX X{.|.oXoX{.{.}.{.`.A.=.e ",
"u 0 8 v p u m b p K F a k J ~.yXkXmXVXmXlXlXMXvXcXjXxX6X=XG.S.j.S.G.T.XX.X=X>X:X6X:X>XXXU.U.|.'.U.'.|.'.'.{.'.'.'.`.'.}.A.V.=.h ",
"m p p v i u p u i p s p i H [.5XfXhXlXzXhXhXMXNXxXxXhX6X;XL.S.S.S.S.K.L.L.T.].].XX%X.XU.Y.J.P.].P.U.`.`.'.'.'.`.'.'.{.`.A.Z.` s ",
"F b F L n 0 q s r 7 7 0 x Q d. X:XfXfXtXiXxXhXkX6XxXxX,X=XG.S.S.0.X.3.M.m.S.j.S.G.L.T.U.K.D.K.I.P.Y.P.P.P.`.`.I.I.`.`.`.V.=.E l ",
"p L K q.n p 7 s u r p 0 p b #.Y.$X-X*X*X-XqXqXtXtX6XrX-XXXG.S.m./ $ $ ~ X.6.6.0.0.s.G.Y.F.M.N.Y.K.J.K.P.J.U.P.C.C.P.C.C.Z.` l s ",
"p K n q.b m p x i i 0 a p 8 [ D.H.H.Q.Y.%X-X6XrXiX6X6X%X+X XJ.9.#     X _ @.2.5.5.5.9.M.M.M.M.J.J.N.J.V.J.J.V.N.N.V.N.Z.=.w.d k ",
"K i d n v F v b 0 7 4 e 0 4 ` s.j.f.k.Y.6X6XP.6XtX,X=X-X5X+X'.9.% X . % ) @.2.5.5.3.5.3.8.8.0.s.F.J.N.N.N.M.M.s.9.9.7.1.w.P l k ",
"v 9 p a F r F v 7 s v 8 e 0 V R #.a.5.H..X[.7.V.XXT.XX6X6X4X#XI.X.S S _ ) 2.5.6.3.2.3.>.o.;.3.9.N.B.B.B.M.9.9.8.1.>.:.E K l p s ",
"u s a b w.F 0 , > u n b q r s T 4.%.#.d.Y.S.,.J.m.0.G.|.5X+X{.K.3.) ) ) @.,.6.6.2.2.{ } } O.<.8.9.s.m.9.9.1.3.3.1.o.G g p i 0 8 ",
"i 9 i a U p u 8 e 7 1 0 u F F D H e Z 8.V.~ o _ ( / -.d.J.J.K.F.6...) +.2.2.3.2.2.:...} X.O.:.2.3.0.8.8.<.:.O.o.] D p a F v 0 i ",
"F 4 r 0 u u p r s u 8 s L L v p u i L ] 9.#   X o o # <.6.S.s.8.6.O.O.@.2.3.2.<.@.O.o.X.X.O.:.:.3.3.3.<.O.o.O.} 8 < u p F c u b ",
"0 q 0 0 i n n m K d 0 8 0 u 0 1 < t u R ;.^ $ X . $ ..@.3.6.3.@.3.,.O.@.3.3.3.2.3.O.O...X.O.2.<.<.<.<.<.O.+.] D p l F s L F q 7 ",
"0 r e 8 s m B n m l a r v x < < < < c r ..o.;.^ ^ +.@.@.$.6.2.$.@.2.2.:.3.3.3.2.2.<.O.o.X.O.<.>.3.3.1.o.^ G v L k i v i L K 0 1 ",
"x 7 8 v 1 > u s i i i i v 0 - 0 0 > u b G +.o.:.$.@.@.$.$.6.$.6.2.<.2.:.3.3.2.2.<.O.X.X.O.O.<.,.} ^ Z g B i b v u u < < p p > 9 ",
"n 8 x 0 b 7 p B s D Y J i x u 8 1 1 7 F m V ^ o.@.@.@.$.$.%.6.2.3.2.2.2.,.2.2.@.:.O.X.<.3...A Z 8 i n p b N K b b i = 0 i p 0 0 ",
"I p b M K r 8 ; E ^.2XQ.H i d 9 p 8 * e I L 5 ^ %.$.@.O.2.$.5.5.2.<.<.2.2.$.O.<.:.+.^ R h r i b B x > F v U u x v i 8 1 u u p p ",
"a L M n i v 9 ; a.<X1X<Xa.a d b r e 8 i i v 7 F +.2.@.....+.] R :.<.2.2.3.3.@.<.O.w w 7 r L q.b 0 x Q r 0 p r K v e 0 > < u r F ",
"p P q.m L x 4 : k.<Xv._.f.l t i e 8 0 0 p 8 w a.H.j.s.4.] ] x n D &.3.2.2.@.:.<.A 8 u = r n a s J z.).c.z u I 0 8 r 8 x i a U I ",
"8 p l 8 s I b : [ (.,Xl.G 9 a a v 0 8 p K q.y.S.S.j.s.a.&.*.Z 8 q s Y #.] H [ C r 0 8 b p r i e g._.n.1X&.> x i s r s K K s u e ",
"s i d P l F M q 2 w R g & K K s s e v p 7 G 4.9.8.8.3.>.;.*.J 0 9 q N P p w p i b K 7 q p 0 a q  ./.x.W. .7 7 i 0 r k p r p i 7 ",
"> u n U F b < = s 6 O & 9 v k r p i p > 7 C 3.>.>.>.;.-.{ / g M 9 , n v r e r r p L 0 1 p k p r 4 %.l.%.D q 7 b 9 7 r p a a i 0 ",
"9 i v U P b i r 0 L p v b p r g r u 0 e s F { ;.-.;.o.{ / E s L q r K F p k p e p i q 9 i K F v 7 q g p s = 7 v 8 9 r k F v 0 0 ",
"p m K k v r p e = x 8 e i p F a r c n 4 , F A #./ / ^ A ( d 0 F 7 i i n U I F s 0 = = p v a a p s p e s 8 8 a s 0 p a p p v p p ",
"p e n n v K l e 8 0 v U P P n i a U b < 7 8 k h j j f q q I s 4 8 i i 0 K e.K s 0 0 x b 7 r s v K K P 9 0 0 0 p u 7 = , M q.x 9 ",
"d 7 i m K L K p 7 7 v b n v b u 9 g 0 t s p l 2 O 3 6 i n b U k 0 - 0 i s i l p i i K K 0 i p v p F P 9 > 0 q v L u z L N M c < ",
"a p i M d u n r 0 u u p 0 0 m x r K p n i l q.K 6 q 9 B K b I P p = 0 y d d 9 i n F K p n i a v u u k 9 - u p v B i u./.g.F s u ",
"l K n u , u b v m K 8 r i t < 8 b I K v v v e.P p k x b n v v n K B u  .Q.k.Q s v U F p P d s 0 x < b b r r p a i s c.3Xl.k y I ",
"p b K 0 u c x B n K p 0 v 0 - 1 i n F k p i l r b K i p b u z M q.i E Q.<X<Xk.x 0 p p l F i 0 p < - c b p r l l i > ! a.R q s P ",
"p r p x n x M N v r i 0 8 s 0 c a p F I L v 7 e F q.i 0 p 7 8 I M 7 T R.b.<XQ.K i 0 8 p 0 i 9 b x x b 8 a 9 q p l 9 , 9 9 7 q p ",
"v F v b n F v m v q 7 > 9 k i i p r a F v b 9 9 K I U i p 9 > c b 7 2 u.W.(.#.i n 0 0 8 4 r e p i m m r 9 > > u P F u u i p 8 u ",
"b K p F n s 0 0 p 0 9 9 u U F r 0 1 0 7 e u 7 r g F a K p s 0 p 9 9 & 5 &.' 4 7 v u r r e 0 k p p P L n 7 8 u q F L n b n U i 0 "
};
