/* XPM */
static char *result[] = {
/* columns rows colors chars-per-pixel */
"64 64 154 2 ",
"   c #310600",
".  c #350A03",
"X  c #3B0D03",
"o  c #3E1006",
"O  c #391008",
"+  c #400F03",
"@  c #431206",
"#  c #491505",
"$  c #4B1807",
"%  c #441409",
"&  c #491609",
"*  c #46180D",
"=  c #4C1A0C",
"-  c #521D0D",
";  c #5A1F0E",
":  c #461A10",
">  c #4E1E11",
",  c #521F11",
"<  c #54200E",
"1  c #5A230F",
"2  c #4F2214",
"3  c #4F2219",
"4  c #542213",
"5  c #5A2514",
"6  c #5C2916",
"7  c #542619",
"8  c #5A2719",
"9  c #562819",
"0  c #5C2B1A",
"q  c #5F311F",
"w  c #612A16",
"e  c #6A2C15",
"r  c #632D1B",
"t  c #6B2F19",
"y  c #66311D",
"u  c #6A331D",
"i  c #71371E",
"p  c #763B1F",
"a  c #5F3021",
"s  c #653422",
"d  c #6B3622",
"f  c #6C3925",
"g  c #623729",
"h  c #653929",
"j  c #6D3D2A",
"k  c #713720",
"l  c #733C25",
"z  c #7A3E25",
"x  c #733E29",
"c  c #6C3F30",
"v  c #6F412D",
"b  c #774126",
"n  c #7C4227",
"m  c #75422C",
"M  c #7B442C",
"N  c #7E492E",
"B  c #754532",
"V  c #794734",
"C  c #7D4B33",
"Z  c #774A39",
"A  c #7C4E39",
"S  c #7F5035",
"D  c #7F523B",
"F  c #824326",
"G  c #81462C",
"H  c #844A2D",
"J  c #894E2E",
"K  c #8B502F",
"L  c #804730",
"P  c #844D32",
"I  c #894E32",
"U  c #865136",
"Y  c #8D5234",
"T  c #84523A",
"R  c #8C553A",
"E  c #8D593C",
"W  c #915535",
"Q  c #935937",
"!  c #925639",
"~  c #955B3B",
"^  c #995E3D",
"/  c #97603E",
"(  c #9B613E",
")  c #835440",
"_  c #8A5740",
"`  c #865A42",
"'  c #8D5C43",
"]  c #8C5F4B",
"[  c #935E42",
"{  c #9A5E41",
"}  c #8E6147",
"|  c #8E624B",
" . c #956143",
".. c #9C6443",
"X. c #9F6846",
"o. c #93644A",
"O. c #9B6649",
"+. c #97694D",
"@. c #9D694B",
"#. c #926751",
"$. c #9B6D52",
"%. c #9F7055",
"&. c #A16644",
"*. c #A26946",
"=. c #A16749",
"-. c #A46C4A",
";. c #A96F4C",
":. c #A7714D",
">. c #AA724E",
",. c #A36E51",
"<. c #AA6F51",
"1. c #A57253",
"2. c #AB7553",
"3. c #AE7955",
"4. c #A57559",
"5. c #AC7759",
"6. c #A5795D",
"7. c #AD7B5A",
"8. c #B07752",
"9. c #B17B56",
"0. c #B07759",
"q. c #B17D5A",
"w. c #A77F65",
"e. c #AB7E61",
"r. c #B17F60",
"t. c #B4815D",
"y. c #B8835D",
"u. c #AE8163",
"i. c #B58462",
"p. c #B98662",
"a. c #B78A66",
"s. c #BA8965",
"d. c #B58768",
"f. c #B5896B",
"g. c #BC8D6A",
"h. c #BE916D",
"j. c #BB8E71",
"k. c #BF9372",
"l. c #BD9678",
"z. c #C08F69",
"x. c #C1926E",
"c. c #C19572",
"v. c #C49A76",
"b. c #C59C7B",
"n. c #C99E7B",
"m. c #C7A07D",
"M. c #CBA17F",
"N. c #C3A082",
"B. c #CBA382",
"V. c #CFAA87",
"C. c #C9A588",
"Z. c #CEA98A",
"A. c #D1AD8C",
"S. c #D5B192",
/* pixels */
"3.3.3.>.2.:.3...q t.>.2.s.U C M.8.8.8.3.8.t.t.t.t.t.t.t.9.9.3.>.:.3.3.s 1.{ { { { <.<.<.0.0.0.r.0.0.0.<.5.,.d V.p.q.9.y.t.t.p.a.",
"3.3.9.9.+.E t. .f 2.....9.U S c.;.>.>.>.3.>.3.2.3.3./  .9.9.8.1.R 9.2.f =.^ ..-.<.<.-.-.,.<.=.-.-.=.<.-.<.{ d v.;.>.>.>.8.8.3.3.",
"9.3.9.>.U -.9.@.4 -.*...t.S m s.;.>.>.>.3.t.t.t.t.t.3.t.9.q.1.E X.7.7.0 [ ..=.{ { ,.=.=.<.<.,.<.,.5.=.{ 2.[ t p.>.>.>.*.>.8.3.3.",
">.:.2.-.2.:.:. .- X.2.:.y.N l -.( &.*.&.*.*.>.2.4.t.3.3.2.9.-.-.-.-.-.5 Y ,.{ I ,.d.r.r.0.r.0.r.r.<.=.0.r.[ y -.^ &.&.&.*.X.*.>.",
"-.-.-.-.-.&.*. .= ..X.*.>.N b ~ W ^ Q ^ ( &.-.&.*.*.X.*.-.*.X.^ ~ { ,.8 L _ { r.r.<.0.5.0.2.{ 4.5.2.0.<.0.R t { Y ^ ^ ~ / X./ ( ",
":.-.-.:.:.:.>.O.> m P >.3.N m -.^ &.( &.*.-.:.:.:.>.:.:.:.-.&...&.=.<., s x =.0.0.<.<.<.;.;.1.2.<.0.0.0.<.R d -.Q ..&.X.*.*.-.:.",
"H M k d l M C q . a 9 m M 3 2 m m b b M G G L P P U U U T Y C M G G f % 8 8 k l j r w w , - 6 y y y l x z ; , L G N n H J N G N ",
"* @ f C V f u d y q q 3 7 3 2 a h h j f m 4 . % @ @ # # = = = & = , 7 , > = = & . = ) $.] L f f s s f s ; c Z c B V C 6 o y m m ",
"m - $.t.-.-.:.>.3.t.q.3.3.' -.q.:.;.>.:.8.O.X w [ X.@.1.4.7.7.5.5.e.q.q.2.:.X.! * u s.x.t.y.y.t.s.h.g. .4.g.s.r.2.q.b.w.- N.n.s.",
"D @  .2./ W W Q ~ ^ ^ (  .~ ~ W Y K K W ^ +.& ,.a.i.i.i.i.7.7.4.5.5.2.2.2.3.3.*.4 w 4.9.>...*.:.>.2.&.( -.&.&.*.-.X.2.w.4 B.q.<.",
"v X 2.:.W K W W ! ~ / / Q K K Y Y K K W ~ ! 4 r.q.7.7.7.4.1.<.-.%.-.1.:.:.:.2.1.4 6 a.>.-.-.;.-.-.1.4.-.1.-.X. .X.&.-.@.8 b.q.8.",
"* s s./ W W ~ Q ! ~ ~ / ! K U H u f J J Q U > i.i.3.3.2.1.3.7.3.:.-.2.>.>.>.2.3.= M c.....;.1.2.3.4.-...O.[ M n X...-.X.; d.r.8.",
"2 o.-.K W W Q R ~ Q ^ ( ~ G b m z l Y W ~ U > 7.7.q.7.q.q.i.i.i.7.i.i.q.2.:.2.7.< 6.t.&.&.-.-.X.:.:.X.O.......I { ..;. .; 7.b.i.",
"f 4./ W Q ( ( ( ( ~ ~ ^ ~ ~ Y K J J H J Y L > X.-.,.q.i.3.3.3.7.7.3.9.2.2.1.2.7.6 g.2.&.-.9.3.2.2.2.2.:.*.&.^ &...{ ;.X.5 -.v.5.",
"j -.*.W ^ &.( / ( ( &.&.^ Q Q Y W I I I I H 4 X.h.g.s.t.9.-.( :.1.3.q.q.q.2.q.U * d.t.*.>.3.q.>.>.>.3.3.2.;.-.-.-.2.q.;.w ! v.p.",
"s b ^ K J W U J J J U U Y U I Y I G z P I n * M E R T C m < < f u M m m N C r %   V 1.X.X.{ R R R U n l n G I U ~ X.,.[ 4 z ' X.",
"f l x B f % * r 4 4 2 > > < = = * o & > , > & & @ = = * 2 4 9 9 4 = .   > 0 a y s k m k y 0 5 0 0 6 4 > * X % & - 4 w r x P M x ",
"x.h.h.B.M.x ,.b.m.h.h.v.h.h.b.R % } f.k.c.f.f.r.1.4.7.3.t.a.t.i.h.n.} f k.M.m.v.M.V.B.n.g.t.i.a.g.g.k.b.i.& ' c.j.i.9.1.3.t.q.q.",
"m.b.v.B.A.U e.Z.y.a.g.a.a.3.B.6.- g.Z.m.B.n.b.b.v.h.p.>.3.3.t.3.3.M.h.M Z.c.9.t.q.q.h.h.i.q.3.t.9.3.3.s.N.5 ' A.2.9.9.2.3.9.9.9.",
"3.7.t.t.v.f E B.>.>.>.:.>.3.c.u.1 t.g.3.2.0.i.g.y.>.>.>.>.:.:.:.-.y.4.w l.y.-.-.X.:.3.7.q.q.3.9.7.9.9.i.v.r R g.*.2.2.2.2.2.2.2.",
"2.9.:.:.i.u m v.2.>.3.t.s.h.b.$.5 q.8.>.q.q.q.2.-.:.-.-.O.{ :.:.-.8. .< 7.g.:.-...*.1.7.t.t.t.9.9.t.a.v.t.* ' p.&.-.-.*.-.*.*.&.",
"9.9.8.>.3.u d c.t.>.2.-.-.:.p.' 5 q.2.>.2.1.;.-.:.-.*.-./ X.8.2.>.8.Q < $.x.2.>.:.;.1.5.3.3.2.:.-.:.:.t.-.= [ t.&.*.-.*.-.-.*.-.",
"2.3.8.2.q.l u g.y.t.>.~ ..*.q.x 5 q.:.;.-.-.-.-.&.-.*.-.-.:.2.3.>.3.X.< $.g.q.9.1.5.<.2.>...:.-.*.-.X.3.+.# ~ q.( *.-.-.-.*.*.:.",
"2.q.2.>.,.w f g.2.>.:.-.:.>.7.l ; 7.3.;.:.;.;.-.:.&.&.&.2.3.3.3.>.9.U $ -.y.>.;.>.q.9.1.-.-.:.:.>.:.>.3. .= T i.-.>.:.-.:.-.-.-.",
";.X.*.*.J 5 M t.....&.-.:.9.i.! 4 7.q.:.>.9.9.8...;.>.8.3.3.>.>.>.:.p < 4.3.-.>.2.q.q.1.8.2.3.3.2.8.q.q.<.5 L s.>.>.8.3.3.-.&.:.",
"-.*.X. .G t y 2...J Q ..-.2.i.^ w { q.>.>.q.9.8.8.1.9.q.9.9.t.3.>.Y n -  .t./ ~ :.i.s.i.t.y.q.3.9.>.q.i.2.t z p.8.>.8.t.9.3.>.>.",
"Y ~ I I I r 4 l P L n L R [  .n 5 u J M n G L n x l l l l M H U n b l = k U R U P ! [ +.+.E X.{ Y / ..X.[ 5 l ~ Q W ! U I J H G ",
"u 5 4 r r y m j y , = , r 4 4 6 r d w 5 5 , + % = , - 8 0 r 0 4 4 9 6 4 * = 9 0 = . > r ; = 4 , % o + @ = , , = $ < < 5 4 = y i ",
"-.w t I { k.S.B.s.:.2.i.7.O.' ,.-.3.5.2.2.Y 4 L I I H ..( ( ~ ..&.{ ^  .m u.4.X.{ r u ! ! X.X.! R o.$.M t e e t k z L ..I r 1.^ ",
"=.d n 8.i.k.i.q.3.7.t.8.3.3.O.7.( ..&.&.-.Y 7 [ F H N Y K ~ ~ ( ! ! Y Y U +.J p W l k c.k.p.q.q.q.t.z.v.j.6.-.@.,.5.q.-.I r -.I ",
"! u L 9.>.2.>.2.2.:.:.>.:.-. .4.1...^ &.&.Y , { H C I I U Y ! Y ! ~ Y Y J M k l G y x v.c.5.2.0.2.q.2.q.a.b.v.g.q.q.7.;.I 4 X.{ ",
"Y r V q.2.2.>.>.2.1.:.2.3.1.*.U { ^ ^ &.*.! 4 ! z L Y Y W W Q ! ~ ! W W Y U G F G w x v.i.<.5.2.2.0.2.2.2.2.5.2.2.5.2.2.[ r X.Y ",
":.y S 3.3.>.1.:.>.4.2.7.t.t.7.O.^ :.>.-.:.~ y k N R R Q ~ ! R ^ ~ ~ ~ { ~ ^ ^ ~ / y m n.t.1.2.1.2.2.2.2.2.2.3.3.2.5.4.d.R u Y Y ",
"E y U >.:.1.2.2.3.7.7.3.7.t.t.t.-.-.&.&.-.( > D X.J ! Q E ~ / / ~ ^ ~ ! ! ! ! ~ R q T B.t.:.-.1.1.2.2.1.1.1.1.7.7.7.2.7.R 4 C r.",
"-.U P >.>.2.3.q.7.9.q.9.1.O.2.t.p.s.2.:.>./ 2 t.J G J U Y ! R Y R ! ~ ! ! W I J Q I N x.2.*.*.<.2.1.;.2.2.2.:.X.:.-...( Y < u.-.",
"f = y N m P U U J U U R U l f M R P M M H p o 6 w 1 1 r y 6 y i d r w 8 , - ; 4 6 - = 5 - , , , 8 5 8 7 4 < - < 4 , ; ; 0 & k G ",
"5 C M k d i u y @ y M b k i v y j m m B B S D S E E v O : V m N M N N N V v f f f m m m m f f b 4 . 7 , > 0 v f % s T m x M M P ",
"g.s.9.9.3.>.3.3.9 O.3.*.:.:.>.t.t.t.i.i.g.h.m.m.k.h.x.q } M.8.>.8.3.9.y.s.s.p.y.y.t.9.9.8.8.3.t.+.y t.*.X.:.y.g.u 1.v.8.8.8.2.9.",
"8.3.:.2.3.2.2.q.y @.*...&.-.;.-.2.2.2.3.3.t.3.t.3.3.y.i %.a.;.8.>.3.9.3.3.3.7.3.-.2.3.3.3.:. .t.o.M 3.X.*.;.:.y.u %.y.>.8.2.8.8.",
">.3.2.X.:.2.2.7.y  .-.....;.-.;.7.q.q.9.2.1.t.3.3.>.t.y O.y.>.>.;.>.9.3.3.3.9.3.X.3.3.9.3.T O.t...f :.&.:.-.;.y.y $.y.:.>.-.>.8.",
":.>.3.>.-.2.:.9.w U 2.*.*.-. .q.3.2.2.q.2.@.3.4.i.a.a.y R >.&.-.*.;.-.-.>.2.2.2.>.>.>.3.....:.2...w 1.2.3.3.2.t.q / :.&.-.-.-.;.",
">.:.:.-.1.:.*.-.r M -.X.X.1.-.*...( O.X.-.-.4.h.B.h.p.y U Q ^ ^ ~ ( &.&.-.-.X.*.*.*.*.*.:.*...X.~ 5 &.=.-.&.~ 1.q K W / ^ ~ ( ( ",
"-.*.*.-.-.&...:.r j R ~ ^ { ..*.&.^ -.3.q.i.a.g.t.q.y.u Y Q ~ ..( ( &.;.:.-.*.-.X.X.*.:.*.X.&.>. .4 T ! ( ^ *.q.y Y W ~ ..^ ( &.",
"( ..&...~ ~ ~ ^ 4 d d R R ~ X.@.O.R [  .U _ ! ..1.3.-.9 U ..! R U U K J H R ../ / / / / E / ..X.P 4 x x ^ ! *.-.1 Y ../ ^ / ..( ",
"> * = = & > , = o & * % % % % o X X . X X X & # - 4 - @ = = % - < < % @ = # = 6 f h 4 $ = = < > = * - * = % < 5 * 7 8 0 , * - 5 ",
"* : | %.[ [ @. ...! L m x x x l f M T ' ' B & $.7.@.X.X.O.M $.i.7.7.E 1.t.E @ R c.7.:./ / O. ...1.@. .X.P V 4.4.3.3.-.:.+.@ +.d.",
"h ) S.k.3.&.{ ..^ Q ^ { { { ( ( ( *.:.3.g.4.0 S.a.t.t.y.t.u.B.q.t.7.s.p.k.u.= m a.&.Q ( X.*.*.*.*.*.;.>.&.:.*.( ........d.8 C.g.",
"j o.k.*.^ ^ ^ { &.&.&.*.&.&.( ( / ! W Y &.@.0 C.3.2.3.3.t.k.q.2.3.3.3.-.t.6.@ S t.^ ( Q ! W Q ~ ~ ( ( &.( ~ K Y W Q ~ ( 2.0 N.t.",
"0 ] 3.*...&.-.;.;.;.;.&.^ { ..=.H z W W (  .4 v.9.2.q.3.9.2.X.-.:.-.X.X.a.#.@ $.9.K ~ ~ Q ~ ~ ^ ( &.( / W K J r < K ^ ^ ( 4 d.i.",
"& o.2.-.^ ( ..( &.....&...Y R Y H p H Q ^  .4 d.g.q.2.2.1.2.:.-.-.X.*.:.3.d 5 y.( Q Q / Q U Y ^ ^ ( &.( ^ Q W n d ! Q ^ ( 4 O.h.",
"6 ' 2. .W ~ ~ / ^ ^ &.^ Q Q ~ Q ( ^ W K ^ ~ ; 7.m.9.2.3.[ $.2.>.:.;.:.2.1.M B t.~ Q ( ../ ! ! X.( ( &.&.( ~ ~ W ~ ~ ~ ^ ^ 4 T k.",
"r T 2.^ Q Q Q Q Q W W I W Y K W K W Q W ^ ~ <  .c.q.3.2.-.X.;.1.3.:.*.*.t.E B t.^ ^ &.&.&.&.&...&.&.&.( ^ W W W W Q Q ( &.4 l s.",
"s d -.Q ~ Q Y W Y K H H H G J H J Y W W ( ~ < I 7.3.:.:.2.1.@.2.>.:.-.X.:.T m t.&.&.*.*...&.&...Q ^ &.*.*.....~ H ^ { { ..5 t ,.",
"= @ 5 5 w 5 4 9 0 9 4 4 - 5 6 w 5 4 5 5 8 2 @ = = s f s f y d s d y y 4 4 = 4 r t w 5 1 - 4 4 = @ $ 6 y r s d y 4 h 4 w r 4 6 5 ",
"E P U ' o.+.o.| C ` %.#.#.} B Z ' ] T A A ) ' o.o.A m m m m m m m M V P I P P N N N P U _ m @ ] +.v m f x Z Z C $.$.+.1.1.3.7.t.",
"h.a.g.h.l.x.j.C.T ] N.b.h.c.g.h.x.h.g.x.c.x.z.p.i.g.i.E 7.g.a.a.g.h.h.h.h.c.x.c.x.x.g.i.g.t.< d.Z.i.a.s.i.b.e.v l.S.B.N.B.b.b.b.",
">.>.>.:.8.t.t.v.C y B.t.:.>.:.2.t.t.9.t.3.3.8.9.2.i.d.e { g.2.q.i.t.t.i.q.t.q.q.q.7.3.t.a.d.- 4.B.:.3.7.2.g.a.- d.b.p.p.t.9.2.2.",
"-.:.:.-.:.3.>.y.C < k.t.:.-...:.3.q.t.8.3.3.3.3.t.k.i.; R g. .=.2.2.9.0.2.2.2.9.0.2.q.q...:.4 T v.3.t.i.s.B.i.- 7.7.:.1.:.-.-.-.",
"*./ U X.8.3.>.9.M = u.s.2.1.;.-.:.8.2.>.:.>.2.3.t.a.5.1 [ a.! ~ -.2.2.2.2.2.2.3.q.q.5.{ Y / - M v.t.f.a.d.c.$.- 7.3.X.*.-.*.*.-.",
"&./ X.8.9.3.8.9.C $ 3.g.9.q.2.3.:.:.2.-.X.:.-.-.-.3.4.=  .d.~ Y ^ &.;.;.:.3.2.-.<.-.{ ~ Y &.5 x l.y.3.-.X.t.R - 7.:.X.-.-.*.:.*.",
"3.3.3.3.9.3.2.t.C $ 6.s.9.8.8.t.5.,.X.:.-.*.-.-.@.3.' # ' p.~ ! ! ! ^ <.2.-. .^ ! ! ^ { ^ :.- m h.3.:.-.-.t.M $ >.>.&.*.:.*.-.*.",
"3.3.3.3.>.>.>.:.r 4 q.7.:.2.-.t.q.2.1.:.3.9.9.2.2.t.&.- R d.{ ! ! ~ { { ~ ! ! ~ ! ~ ~ ! X.R & S s.>.>.>.2.t. .= :.t.>.>.>.:.-.*.",
"t.t.t.3.9.2.2.! i 4 q.2.{ -.3.t.i.2.q.3.9.9.8.8.2.q.2.5 T v.,...&.=.O.{ { { { { { { ^ ~ / M @ U s.&.Q ;.9.i.>.<  .y.:.;.3.8.>.3.",
"..4.:.*.*.&.^ W n < U <.X...-.7.i.a.p.7.t.t.2.-.>.q.&.5 y [ O.@.4.$.@.@.@.{ { ! ! ! J J U z @ u &.-.Y / :.3.@.4 Y >.../ &.-.&.*."
};
